<?xml version="1.0" encoding="UTF-8" standalone="no"?><svg xmlns="http://www.w3.org/2000/svg" xmlns:xlink="http://www.w3.org/1999/xlink" contentScriptType="application/ecmascript" contentStyleType="text/css" height="746px" preserveAspectRatio="none" style="width:1526px;height:746px;" version="1.1" viewBox="0 0 1526 746" width="1526px" zoomAndPan="magnify"><defs><filter height="300%" id="f1274qv1ly27oe" width="300%" x="-1" y="-1"><feGaussianBlur result="blurOut" stdDeviation="2.0"/><feColorMatrix in="blurOut" result="blurOut2" type="matrix" values="0 0 0 0 0 0 0 0 0 0 0 0 0 0 0 0 0 0 .4 0"/><feOffset dx="4.0" dy="4.0" in="blurOut2" result="blurOut3"/><feBlend in="SourceGraphic" in2="blurOut3" mode="normal"/></filter></defs><g><path d="M41.4107,588.6828 C52.4002,572.6712 63.7839,577.1175 73.0057,590.5778 C82.9411,575.6289 92.4702,570.483 106.0343,586.7367 C119.7357,569.3672 129.8021,572.7798 140.1117,590.0714 C149.9816,570.8439 163.153,573.1772 174.4747,588.6331 C182.8442,568.9505 198.9005,569.2991 210.6092,585.2466 C219.0467,569.1763 232.737,570.2621 243.1918,582.9619 C251.9505,568.3031 268.6585,565.9547 278.2783,581.9771 C290.2404,569.2001 301.8949,571.2637 309.3471,586.9073 C318.4134,568.9868 334.0492,569.127 345.0418,584.8645 C355.9608,567.7458 365.9093,571.3596 376.8484,584.8437 C387.1677,571.1942 402.3207,567.6457 411.1584,586.4118 C422.3762,574.4673 435.6254,574.8806 443.7041,590.164 C457.4582,572.5517 470.8595,574.3956 483.3431,591.61 C493.3908,575.8649 510.1747,577.5198 518,594 C520.6626,592.6113 522.8749,593.8305 522.627,596.9724 C554.8607,611.4655 554.5597,636.3776 525.7084,654.1619 C546.2891,674.5865 538.8812,702.3409 511,710 C513.4829,710.9933 514.3994,712.883 512.2366,715.0206 C500.7754,729.3459 490.6924,728.0594 481.6397,712.5505 C469.8915,726.6127 459.4473,729.2312 447.1471,713.1828 C437.1016,730.5728 425.422,727.7823 415.2635,713.2959 C405.4489,734.561 388.1812,731.9874 377.0122,714.6376 C367.5639,730.893 351.9984,729.5111 344.6172,712.6176 C338.1609,730.1694 326.3463,730.9542 313.965,718.7136 C303.0063,733.7031 291.0636,734.3657 279.7054,719.167 C266.6775,733.0564 250.632,731.5072 241.6489,714.2283 C232.8402,729.802 216.8413,730.7657 209.0471,713.2294 C199.3836,730.5458 184.498,731.9738 173.853,714.2141 C165.2438,729.4123 151.5946,734.2596 140.3165,716.9691 C131.7581,731.7738 116.9938,732.6793 108.491,716.9113 C94.7927,733.3834 81.1851,729.0928 71.1822,712.7144 C56.6538,727.5136 36.0518,724.1358 30,703 C31.7587,700.9672 33.1818,700.7559 34.5622,703.3714 C11.5224,690.8399 6.991,674.2819 25.5281,654.1235 C-0.5356,629.581 -0.2224,600.7264 37,587 C39.3826,585.3353 40.6956,585.9767 41.4107,588.6828 " fill="#FFFFFF" style="stroke: #000000; stroke-width: 1.5;"/><!--entity "bus-2nd-terminal"--><rect fill="#FEFECE" filter="url(#f1274qv1ly27oe)" height="36.4883" style="stroke: #A80036; stroke-width: 1.5;" width="155" x="38" y="666"/><rect fill="#FEFECE" height="5" style="stroke: #A80036; stroke-width: 1.5;" width="10" x="33" y="671"/><rect fill="#FEFECE" height="5" style="stroke: #A80036; stroke-width: 1.5;" width="10" x="33" y="692.4883"/><text fill="#000000" font-family="sans-serif" font-size="14" lengthAdjust="spacingAndGlyphs" textLength="135" x="48" y="689.5352">"bus-2nd-terminal"</text><!--entity "vehicles-producer-platforms"--><rect fill="#FEFECE" filter="url(#f1274qv1ly27oe)" height="36.4883" style="stroke: #A80036; stroke-width: 1.5;" width="229" x="281" y="595"/><rect fill="#FEFECE" height="5" style="stroke: #A80036; stroke-width: 1.5;" width="10" x="276" y="600"/><rect fill="#FEFECE" height="5" style="stroke: #A80036; stroke-width: 1.5;" width="10" x="276" y="621.4883"/><text fill="#000000" font-family="sans-serif" font-size="14" lengthAdjust="spacingAndGlyphs" textLength="209" x="291" y="618.5352">"vehicles-producer-platforms"</text><!--entity "bus-terminal"--><rect fill="#FEFECE" filter="url(#f1274qv1ly27oe)" height="36.4883" style="stroke: #A80036; stroke-width: 1.5;" width="120" x="55.5" y="595"/><rect fill="#FEFECE" height="5" style="stroke: #A80036; stroke-width: 1.5;" width="10" x="50.5" y="600"/><rect fill="#FEFECE" height="5" style="stroke: #A80036; stroke-width: 1.5;" width="10" x="50.5" y="621.4883"/><text fill="#000000" font-family="sans-serif" font-size="14" lengthAdjust="spacingAndGlyphs" textLength="100" x="65.5" y="618.5352">"bus-terminal"</text><!--entity mq--><rect fill="#FEFECE" filter="url(#f1274qv1ly27oe)" height="36.4883" style="stroke: #A80036; stroke-width: 1.5;" width="131" x="1106.5" y="308"/><rect fill="#FEFECE" height="5" style="stroke: #A80036; stroke-width: 1.5;" width="10" x="1101.5" y="313"/><rect fill="#FEFECE" height="5" style="stroke: #A80036; stroke-width: 1.5;" width="10" x="1101.5" y="334.4883"/><text fill="#000000" font-family="sans-serif" font-size="14" lengthAdjust="spacingAndGlyphs" textLength="111" x="1116.5" y="331.5352">message-queue</text><!--entity bustbox--><rect fill="#FEFECE" filter="url(#f1274qv1ly27oe)" height="36.4883" style="stroke: #A80036; stroke-width: 1.5;" width="85" x="815" y="593"/><rect fill="#FEFECE" height="5" style="stroke: #A80036; stroke-width: 1.5;" width="10" x="810" y="598"/><rect fill="#FEFECE" height="5" style="stroke: #A80036; stroke-width: 1.5;" width="10" x="810" y="619.4883"/><text fill="#000000" font-family="sans-serif" font-size="14" lengthAdjust="spacingAndGlyphs" textLength="65" x="825" y="616.5352">bus-tbox</text><!--entity tcpip--><ellipse cx="667" cy="619" fill="#FEFECE" filter="url(#f1274qv1ly27oe)" rx="8" ry="8" style="stroke: #A80036; stroke-width: 2.0;"/><text fill="#000000" font-family="sans-serif" font-size="14" lengthAdjust="spacingAndGlyphs" textLength="42" x="646" y="649.5352">tcp-ip</text><!--entity tbox--><ellipse cx="990" cy="435" fill="#FEFECE" filter="url(#f1274qv1ly27oe)" rx="8" ry="8" style="stroke: #A80036; stroke-width: 2.0;"/><text fill="#000000" font-family="sans-serif" font-size="14" lengthAdjust="spacingAndGlyphs" textLength="32" x="974" y="465.5352">tbox</text><!--entity buscore--><rect fill="#FEFECE" filter="url(#f1274qv1ly27oe)" height="36.4883" style="stroke: #A80036; stroke-width: 1.5;" width="83" x="816" y="376"/><rect fill="#FEFECE" height="5" style="stroke: #A80036; stroke-width: 1.5;" width="10" x="811" y="381"/><rect fill="#FEFECE" height="5" style="stroke: #A80036; stroke-width: 1.5;" width="10" x="811" y="402.4883"/><text fill="#000000" font-family="sans-serif" font-size="14" lengthAdjust="spacingAndGlyphs" textLength="63" x="826" y="399.5352">bus-core</text><!--entity extevent--><ellipse cx="990" cy="326" fill="#FEFECE" filter="url(#f1274qv1ly27oe)" rx="8" ry="8" style="stroke: #A80036; stroke-width: 2.0;"/><text fill="#000000" font-family="sans-serif" font-size="14" lengthAdjust="spacingAndGlyphs" textLength="59" x="960.5" y="356.5352">extevent</text><!--entity event--><ellipse cx="990" cy="200" fill="#FEFECE" filter="url(#f1274qv1ly27oe)" rx="8" ry="8" style="stroke: #A80036; stroke-width: 2.0;"/><text fill="#000000" font-family="sans-serif" font-size="14" lengthAdjust="spacingAndGlyphs" textLength="37" x="971.5" y="230.5352">event</text><!--entity busop--><rect fill="#FEFECE" filter="url(#f1274qv1ly27oe)" height="36.4883" style="stroke: #A80036; stroke-width: 1.5;" width="71" x="822" y="61"/><rect fill="#FEFECE" height="5" style="stroke: #A80036; stroke-width: 1.5;" width="10" x="817" y="66"/><rect fill="#FEFECE" height="5" style="stroke: #A80036; stroke-width: 1.5;" width="10" x="817" y="87.4883"/><text fill="#000000" font-family="sans-serif" font-size="14" lengthAdjust="spacingAndGlyphs" textLength="51" x="832" y="84.5352">bus-op</text><!--entity buslog--><rect fill="#FEFECE" filter="url(#f1274qv1ly27oe)" height="36.4883" style="stroke: #A80036; stroke-width: 1.5;" width="75" x="358" y="519"/><rect fill="#FEFECE" height="5" style="stroke: #A80036; stroke-width: 1.5;" width="10" x="353" y="524"/><rect fill="#FEFECE" height="5" style="stroke: #A80036; stroke-width: 1.5;" width="10" x="353" y="545.4883"/><text fill="#000000" font-family="sans-serif" font-size="14" lengthAdjust="spacingAndGlyphs" textLength="55" x="368" y="542.5352">bus-log</text><!--entity buschart--><rect fill="#FEFECE" filter="url(#f1274qv1ly27oe)" height="36.4883" style="stroke: #A80036; stroke-width: 1.5;" width="88" x="351.5" y="285"/><rect fill="#FEFECE" height="5" style="stroke: #A80036; stroke-width: 1.5;" width="10" x="346.5" y="290"/><rect fill="#FEFECE" height="5" style="stroke: #A80036; stroke-width: 1.5;" width="10" x="346.5" y="311.4883"/><text fill="#000000" font-family="sans-serif" font-size="14" lengthAdjust="spacingAndGlyphs" textLength="68" x="361.5" y="308.5352">bus-chart</text><!--entity http--><ellipse cx="667" cy="303" fill="#FEFECE" filter="url(#f1274qv1ly27oe)" rx="8" ry="8" style="stroke: #A80036; stroke-width: 2.0;"/><text fill="#000000" font-family="sans-serif" font-size="14" lengthAdjust="spacingAndGlyphs" textLength="28" x="653" y="333.5352">http</text><!--entity busboxie--><rect fill="#FEFECE" filter="url(#f1274qv1ly27oe)" height="36.4883" style="stroke: #A80036; stroke-width: 1.5;" width="92" x="811.5" y="300"/><rect fill="#FEFECE" height="5" style="stroke: #A80036; stroke-width: 1.5;" width="10" x="806.5" y="305"/><rect fill="#FEFECE" height="5" style="stroke: #A80036; stroke-width: 1.5;" width="10" x="806.5" y="326.4883"/><text fill="#000000" font-family="sans-serif" font-size="14" lengthAdjust="spacingAndGlyphs" textLength="72" x="821.5" y="323.5352">bus-boxie</text><!--entity buscatl--><rect fill="#FEFECE" filter="url(#f1274qv1ly27oe)" height="36.4883" style="stroke: #A80036; stroke-width: 1.5;" width="125" x="795" y="132"/><rect fill="#FEFECE" height="5" style="stroke: #A80036; stroke-width: 1.5;" width="10" x="790" y="137"/><rect fill="#FEFECE" height="5" style="stroke: #A80036; stroke-width: 1.5;" width="10" x="790" y="158.4883"/><text fill="#000000" font-family="sans-serif" font-size="14" lengthAdjust="spacingAndGlyphs" textLength="105" x="805" y="155.5352">bus-core(-catl)</text><!--entity catlsys--><polygon fill="#FEFECE" filter="url(#f1274qv1ly27oe)" points="607.5,132,617.5,122,726.5,122,726.5,158.4883,716.5,168.4883,607.5,168.4883,607.5,132" style="stroke: #000000; stroke-width: 1.5;"/><line style="stroke: #000000; stroke-width: 1.5;" x1="716.5" x2="725.5" y1="132" y2="123"/><line style="stroke: #000000; stroke-width: 1.5;" x1="607.5" x2="716.5" y1="132" y2="132"/><line style="stroke: #000000; stroke-width: 1.5;" x1="716.5" x2="716.5" y1="132" y2="168.4883"/><text fill="#000000" font-family="sans-serif" font-size="14" lengthAdjust="spacingAndGlyphs" textLength="79" x="622.5" y="155.5352">catl-system</text><!--entity boxiesys--><polygon fill="#FEFECE" filter="url(#f1274qv1ly27oe)" points="600,377,610,367,734,367,734,403.4883,724,413.4883,600,413.4883,600,377" style="stroke: #000000; stroke-width: 1.5;"/><line style="stroke: #000000; stroke-width: 1.5;" x1="724" x2="733" y1="377" y2="368"/><line style="stroke: #000000; stroke-width: 1.5;" x1="600" x2="724" y1="377" y2="377"/><line style="stroke: #000000; stroke-width: 1.5;" x1="724" x2="724" y1="377" y2="413.4883"/><text fill="#000000" font-family="sans-serif" font-size="14" lengthAdjust="spacingAndGlyphs" textLength="94" x="615" y="400.5352">boxie-system</text><!--entity busadmin--><rect fill="#FEFECE" filter="url(#f1274qv1ly27oe)" height="36.4883" style="stroke: #A80036; stroke-width: 1.5;" width="96" x="67.5" y="393"/><rect fill="#FEFECE" height="5" style="stroke: #A80036; stroke-width: 1.5;" width="10" x="62.5" y="398"/><rect fill="#FEFECE" height="5" style="stroke: #A80036; stroke-width: 1.5;" width="10" x="62.5" y="419.4883"/><text fill="#000000" font-family="sans-serif" font-size="14" lengthAdjust="spacingAndGlyphs" textLength="76" x="77.5" y="416.5352">bus-admin</text><!--entity bustboxnotifier--><rect fill="#FEFECE" filter="url(#f1274qv1ly27oe)" height="36.4883" style="stroke: #A80036; stroke-width: 1.5;" width="143" x="1353" y="305"/><rect fill="#FEFECE" height="5" style="stroke: #A80036; stroke-width: 1.5;" width="10" x="1348" y="310"/><rect fill="#FEFECE" height="5" style="stroke: #A80036; stroke-width: 1.5;" width="10" x="1348" y="331.4883"/><text fill="#000000" font-family="sans-serif" font-size="14" lengthAdjust="spacingAndGlyphs" textLength="123" x="1363" y="328.5352">bus-tbox-notifier</text><!--entity extmq--><rect fill="#FEFECE" filter="url(#f1274qv1ly27oe)" height="36.4883" style="stroke: #A80036; stroke-width: 1.5;" width="224" x="1060" y="382"/><rect fill="#FEFECE" height="5" style="stroke: #A80036; stroke-width: 1.5;" width="10" x="1055" y="387"/><rect fill="#FEFECE" height="5" style="stroke: #A80036; stroke-width: 1.5;" width="10" x="1055" y="408.4883"/><text fill="#000000" font-family="sans-serif" font-size="14" lengthAdjust="spacingAndGlyphs" textLength="204" x="1070" y="405.5352">message-queue-for-external</text><!--entity extsys--><polygon fill="#FEFECE" filter="url(#f1274qv1ly27oe)" points="1345,392,1355,382,1504,382,1504,418.4883,1494,428.4883,1345,428.4883,1345,392" style="stroke: #000000; stroke-width: 1.5;"/><line style="stroke: #000000; stroke-width: 1.5;" x1="1494" x2="1503" y1="392" y2="383"/><line style="stroke: #000000; stroke-width: 1.5;" x1="1345" x2="1494" y1="392" y2="392"/><line style="stroke: #000000; stroke-width: 1.5;" x1="1494" x2="1494" y1="392" y2="428.4883"/><text fill="#000000" font-family="sans-serif" font-size="14" lengthAdjust="spacingAndGlyphs" textLength="119" x="1360" y="415.5352">external-systems</text><!--link tcpip to bustbox--><path d="M676.1,618.66 C698.76,617.69 764.13,614.92 809.62,612.99 " fill="none" id="tcpip-&gt;bustbox" style="stroke: #A80036; stroke-width: 1.0;"/><polygon fill="#A80036" points="814.78,612.77,805.617,609.159,809.7846,612.9841,805.9595,617.1517,814.78,612.77" style="stroke: #A80036; stroke-width: 1.0;"/><!--link "bus-2nd-terminal" to tcpip--><path d="M193.04,680.4 C277.04,675.75 415.69,666.02 534,648 C577.99,641.3 629.25,628.61 652.86,622.48 " fill="none" id="&quot;bus-2nd-terminal&quot;-&gt;tcpip" style="stroke: #A80036; stroke-width: 1.0;"/><polygon fill="#A80036" points="657.73,621.21,648.0093,619.6265,652.8939,622.4797,650.0407,627.3643,657.73,621.21" style="stroke: #A80036; stroke-width: 1.0;"/><!--link "vehicles-producer-platforms" to tcpip--><path d="M510.01,615.53 C565.88,616.77 626.75,618.13 652.88,618.71 " fill="none" id="&quot;vehicles-producer-platforms&quot;-&gt;tcpip" style="stroke: #A80036; stroke-width: 1.0;"/><polygon fill="#A80036" points="657.92,618.82,649.0138,614.6154,652.9213,618.7057,648.8309,622.6133,657.92,618.82" style="stroke: #A80036; stroke-width: 1.0;"/><!--link "bus-terminal" to "vehicles-producer-platforms"--><path d="M175.8,613 C204.98,613 241.24,613 275.79,613 " fill="none" id="&quot;bus-terminal&quot;-&gt;&quot;vehicles-producer-platforms&quot;" style="stroke: #A80036; stroke-width: 1.0;"/><polygon fill="#A80036" points="280.88,613,271.88,609,275.88,613,271.88,617,280.88,613" style="stroke: #A80036; stroke-width: 1.0;"/><!--link bustbox to tbox--><path d="M900.18,597.76 C918.09,590.16 937.87,578.9 951,563 C979.11,528.96 986.43,474.72 988.33,449.18 " fill="none" id="bustbox-&gt;tbox" style="stroke: #A80036; stroke-width: 1.0;"/><polygon fill="#A80036" points="988.66,444.19,984.0768,452.9075,988.3312,449.1792,992.0595,453.4336,988.66,444.19" style="stroke: #A80036; stroke-width: 1.0;"/><!--link tbox to mq--><path d="M992.27,444.08 C998.53,459.21 1027.19,419.79 1060,399 C1093.21,377.96 1139.43,367.05 1160.17,347.95 " fill="none" id="tbox-&gt;mq" style="stroke: #A80036; stroke-width: 1.0;"/><polygon fill="#A80036" points="1163.74,344.29,1154.5912,347.9369,1160.2477,347.8682,1160.3164,353.5246,1163.74,344.29" style="stroke: #A80036; stroke-width: 1.0;"/><!--reverse link tbox to mq--><path d="M1000.77,421.64 C1012.98,405.82 1035.31,379.64 1060,364 C1074.11,355.06 1090.57,347.95 1106.42,342.41 " fill="none" id="tbox&lt;-mq" style="stroke: #A80036; stroke-width: 1.0; stroke-dasharray: 7.0,7.0;"/><polygon fill="#A80036" points="997.6,425.82,1006.2191,421.0545,1000.616,421.832,999.8384,416.2289,997.6,425.82" style="stroke: #A80036; stroke-width: 1.0;"/><!--reverse link tbox to mq--><path d="M992.61,420.53 C999.52,387.86 1027.75,349.43 1060,329 C1093.21,307.96 1139.43,297.05 1160.17,307.95 " fill="none" id="tbox&lt;-mq-1" style="stroke: #A80036; stroke-width: 1.0; stroke-dasharray: 7.0,7.0;"/><polygon fill="#A80036" points="991.69,425.72,997.2188,417.5694,992.5744,420.7988,989.345,416.1544,991.69,425.72" style="stroke: #A80036; stroke-width: 1.0;"/><!--reverse link buscore to tbox--><path d="M903.9,408.26 C932.06,417.11 965.66,427.67 980.84,432.44 " fill="none" id="buscore&lt;-tbox" style="stroke: #A80036; stroke-width: 1.0; stroke-dasharray: 7.0,7.0;"/><polygon fill="#A80036" points="899.08,406.75,906.4661,413.265,903.8499,408.2495,908.8653,405.6332,899.08,406.75" style="stroke: #A80036; stroke-width: 1.0;"/><!--reverse link buscore to extevent--><path d="M904.63,389.06 C920.21,385.87 937.15,380.62 951,372 C965.77,362.8 977.52,345.87 983.85,335.31 " fill="none" id="buscore&lt;-extevent" style="stroke: #A80036; stroke-width: 1.0; stroke-dasharray: 7.0,7.0;"/><polygon fill="#A80036" points="899.4,390.06,908.9937,392.2874,904.3099,389.1152,907.4821,384.4315,899.4,390.06" style="stroke: #A80036; stroke-width: 1.0;"/><!--reverse link extevent to mq--><path d="M999.95,338.26 C1027.05,354.73 1108.77,356.66 1148.64,344.04 " fill="none" id="extevent&lt;-mq" style="stroke: #A80036; stroke-width: 1.0; stroke-dasharray: 7.0,7.0;"/><polygon fill="#A80036" points="995.81,335.25,1000.7324,343.7806,999.8524,338.1926,1005.4404,337.3126,995.81,335.25" style="stroke: #A80036; stroke-width: 1.0;"/><!--link extevent to mq--><path d="M999.2,326 C1017.24,326 1061.86,326 1101.11,326 " fill="none" id="extevent-&gt;mq" style="stroke: #A80036; stroke-width: 1.0;"/><polygon fill="#A80036" points="1106.36,326,1097.36,322,1101.36,326,1097.36,330,1106.36,326" style="stroke: #A80036; stroke-width: 1.0;"/><!--link extevent to mq--><path d="M995.81,316.75 C1016.65,298.25 1099.95,294.85 1143.76,306.55 " fill="none" id="extevent-&gt;mq-1" style="stroke: #A80036; stroke-width: 1.0;"/><polygon fill="#A80036" points="1148.64,307.96,1141.12,301.6,1143.84,306.56,1138.88,309.28,1148.64,307.96" style="stroke: #A80036; stroke-width: 1.0;"/><!--link buscore to event--><path d="M892.8,375.96 C902.49,369.66 912.45,361.91 920,353 C956.9,309.48 977.72,243.02 985.47,214.18 " fill="none" id="buscore-&gt;event" style="stroke: #A80036; stroke-width: 1.0;"/><polygon fill="#A80036" points="986.77,209.24,980.637,216.9462,985.5137,214.0796,988.3803,218.9563,986.77,209.24" style="stroke: #A80036; stroke-width: 1.0;"/><!--link event to mq--><path d="M992.56,209.15 C1002.28,240.15 1055.72,287.56 1101.62,315.51 " fill="none" id="event-&gt;mq" style="stroke: #A80036; stroke-width: 1.0;"/><polygon fill="#A80036" points="1106.03,318.15,1100.3705,310.0896,1101.7425,315.5775,1096.2546,316.9495,1106.03,318.15" style="stroke: #A80036; stroke-width: 1.0;"/><!--reverse link event to mq--><path d="M1000.73,212.99 C1024.62,236.39 1087.25,281.82 1129.51,307.89 " fill="none" id="event&lt;-mq" style="stroke: #A80036; stroke-width: 1.0; stroke-dasharray: 7.0,7.0;"/><polygon fill="#A80036" points="996.99,209.16,1000.4141,218.3945,1000.4825,212.738,1006.139,212.8065,996.99,209.16" style="stroke: #A80036; stroke-width: 1.0;"/><!--link event to mq--><path d="M999.2,199.68 C1026.34,209.71 1113.7,270 1152.33,304.3 " fill="none" id="event-&gt;mq-1" style="stroke: #A80036; stroke-width: 1.0;"/><polygon fill="#A80036" points="1156.35,307.94,1152.3553,298.9376,1152.6406,304.5873,1146.991,304.8726,1156.35,307.94" style="stroke: #A80036; stroke-width: 1.0;"/><!--reverse link event to mq--><path d="M998.5,188.1 C1028.65,178.19 1140.55,257.43 1165.88,308 " fill="none" id="event&lt;-mq-1" style="stroke: #A80036; stroke-width: 1.0; stroke-dasharray: 7.0,7.0;"/><polygon fill="#A80036" points="994.12,190.74,1003.8906,189.5011,998.3973,188.1507,999.7478,182.6574,994.12,190.74" style="stroke: #A80036; stroke-width: 1.0;"/><!--reverse link busop to event--><path d="M877.57,100.02 C897.96,114.41 930.15,132.45 951,156 C963.24,169.83 974.03,188.05 980.95,197.69 " fill="none" id="busop&lt;-event" style="stroke: #A80036; stroke-width: 1.0; stroke-dasharray: 7.0,7.0;"/><polygon fill="#A80036" points="873.41,97,878.3324,105.5306,877.4524,99.9426,883.0404,99.0626,873.41,97" style="stroke: #A80036; stroke-width: 1.0;"/><!--link busop to event--><path d="M893.02,79.68 C912,87.89 934.89,102.8 951,121 C967.48,139.62 981.33,166.21 986.66,185.57 " fill="none" id="busop-&gt;event" style="stroke: #A80036; stroke-width: 1.0;"/><polygon fill="#A80036" points="987.93,190.83,989.7084,181.143,986.7577,185.9694,981.9314,183.0187,987.93,190.83" style="stroke: #A80036; stroke-width: 1.0;"/><!--reverse link buslog to tbox--><path d="M438.12,529.84 C561.74,508.55 921.81,446.57 980.79,436.41 " fill="none" id="buslog&lt;-tbox" style="stroke: #A80036; stroke-width: 1.0; stroke-dasharray: 7.0,7.0;"/><polygon fill="#A80036" points="433.12,530.7,442.6655,533.1257,438.0485,529.8572,441.3169,525.2401,433.12,530.7" style="stroke: #A80036; stroke-width: 1.0;"/><!--reverse link buschart to event--><path d="M444.46,290.72 C485.55,280.49 546.4,266.03 600,256 C751.91,227.58 939.52,205.61 980.75,200.93 " fill="none" id="buschart&lt;-event" style="stroke: #A80036; stroke-width: 1.0; stroke-dasharray: 7.0,7.0;"/><polygon fill="#A80036" points="439.55,291.95,449.2467,293.6746,444.4041,290.7508,447.3279,285.9081,439.55,291.95" style="stroke: #A80036; stroke-width: 1.0;"/><!--reverse link buschart to http--><path d="M444.59,303 C510.94,303 625.99,303 657.7,303 " fill="none" id="buschart&lt;-http" style="stroke: #A80036; stroke-width: 1.0; stroke-dasharray: 7.0,7.0;"/><polygon fill="#A80036" points="439.5,303,448.5,307,444.5,303,448.5,299,439.5,303" style="stroke: #A80036; stroke-width: 1.0;"/><!--reverse link http to buscore--><path d="M680.86,309.21 C708.92,322.76 776.53,355.39 819.2,375.99 " fill="none" id="http&lt;-buscore" style="stroke: #A80036; stroke-width: 1.0; stroke-dasharray: 7.0,7.0;"/><polygon fill="#A80036" points="676.1,306.91,682.4673,314.4238,680.6031,309.0829,685.944,307.2188,676.1,306.91" style="stroke: #A80036; stroke-width: 1.0;"/><!--reverse link http to busop--><path d="M674.51,289.08 C690.78,255.46 736.18,168.6 795,114 C802.83,106.73 812.44,100.36 821.72,95.11 " fill="none" id="http&lt;-busop" style="stroke: #A80036; stroke-width: 1.0; stroke-dasharray: 7.0,7.0;"/><polygon fill="#A80036" points="672.32,293.64,679.8174,287.2533,674.4813,289.1313,672.6034,283.7952,672.32,293.64" style="stroke: #A80036; stroke-width: 1.0;"/><!--link busboxie to extevent--><path d="M903.78,320.78 C929.17,322.33 959.04,324.16 975.82,325.19 " fill="none" id="busboxie-&gt;extevent" style="stroke: #A80036; stroke-width: 1.0;"/><polygon fill="#A80036" points="980.98,325.51,972.2365,320.9767,975.989,325.2097,971.756,328.9622,980.98,325.51" style="stroke: #A80036; stroke-width: 1.0;"/><!--link buscatl to extevent--><path d="M871.97,168.17 C898.29,203.67 955.97,281.46 979.11,312.66 " fill="none" id="buscatl-&gt;extevent" style="stroke: #A80036; stroke-width: 1.0;"/><polygon fill="#A80036" points="982.26,316.92,980.1205,307.3063,979.2852,312.9012,973.6904,312.066,982.26,316.92" style="stroke: #A80036; stroke-width: 1.0;"/><!--link catlsys to buscatl--><path d="M726.61,146.55 C746.64,147.09 769.18,147.68 789.79,148.23 " fill="none" id="catlsys-&gt;buscatl" style="stroke: #A80036; stroke-width: 1.0; stroke-dasharray: 7.0,7.0;"/><polygon fill="#A80036" points="794.99,148.37,786.0958,144.14,789.9917,148.2415,785.8902,152.1373,794.99,148.37" style="stroke: #A80036; stroke-width: 1.0;"/><!--link boxiesys to busboxie--><path d="M728.42,366.92 C753.66,357.28 782.63,346.22 806.63,337.05 " fill="none" id="boxiesys-&gt;busboxie" style="stroke: #A80036; stroke-width: 1.0; stroke-dasharray: 7.0,7.0;"/><polygon fill="#A80036" points="811.36,335.24,801.525,334.7173,806.6896,337.0253,804.3815,342.1899,811.36,335.24" style="stroke: #A80036; stroke-width: 1.0;"/><!--reverse link busadmin to buscore--><path d="M168.65,418.65 C275.41,433 526.3,459.89 734,430 C761.86,425.99 792.23,417.1 815.76,409.16 " fill="none" id="busadmin&lt;-buscore" style="stroke: #A80036; stroke-width: 1.0; stroke-dasharray: 7.0,7.0;"/><polygon fill="#A80036" points="163.68,417.98,172.0617,423.1518,168.6348,418.6511,173.1354,415.2242,163.68,417.98" style="stroke: #A80036; stroke-width: 1.0;"/><text fill="#000000" font-family="sans-serif" font-size="13" lengthAdjust="spacingAndGlyphs" textLength="26" x="543" y="440.5684">http</text><!--reverse link busadmin to busop--><path d="M138.04,389 C168.16,358.99 225.45,304.66 281,267 C412.79,177.66 447.2,148.73 600,104 C676.86,81.5 771.64,78.24 821.7,78.32 " fill="none" id="busadmin&lt;-busop" style="stroke: #A80036; stroke-width: 1.0; stroke-dasharray: 7.0,7.0;"/><polygon fill="#A80036" points="134.5,392.53,143.6995,389.013,138.0427,389.0016,138.0541,383.3448,134.5,392.53" style="stroke: #A80036; stroke-width: 1.0;"/><text fill="#000000" font-family="sans-serif" font-size="13" lengthAdjust="spacingAndGlyphs" textLength="26" x="543" y="110.5684">http</text><!--reverse link busadmin to buslog--><path d="M133.92,433.37 C153.12,456.31 186.2,491.1 223,509 C266.13,529.99 321.84,535.71 357.87,537.03 " fill="none" id="busadmin&lt;-buslog" style="stroke: #A80036; stroke-width: 1.0; stroke-dasharray: 7.0,7.0;"/><polygon fill="#A80036" points="130.5,429.23,133.1645,438.7116,133.6911,433.0793,139.3233,433.6059,130.5,429.23" style="stroke: #A80036; stroke-width: 1.0;"/><text fill="#000000" font-family="sans-serif" font-size="13" lengthAdjust="spacingAndGlyphs" textLength="26" x="224" y="505.5684">http</text><!--reverse link busadmin to buschart--><path d="M167.73,391.1 C220.53,370.59 301.91,338.97 351.48,319.71 " fill="none" id="busadmin&lt;-buschart" style="stroke: #A80036; stroke-width: 1.0; stroke-dasharray: 7.0,7.0;"/><polygon fill="#A80036" points="163.03,392.92,172.8681,393.3802,167.6889,391.105,169.9641,385.9259,163.03,392.92" style="stroke: #A80036; stroke-width: 1.0;"/><text fill="#000000" font-family="sans-serif" font-size="13" lengthAdjust="spacingAndGlyphs" textLength="26" x="224" y="357.5684">http</text><!--link mq to bustboxnotifier--><path d="M1237.51,325.23 C1271.08,324.83 1312.34,324.33 1347.46,323.91 " fill="none" id="mq-&gt;bustboxnotifier" style="stroke: #A80036; stroke-width: 1.0; stroke-dasharray: 7.0,7.0;"/><polygon fill="#A80036" points="1352.6,323.85,1343.5549,319.9531,1347.6003,323.9071,1343.6463,327.9526,1352.6,323.85" style="stroke: #A80036; stroke-width: 1.0;"/><!--reverse link extmq to bustboxnotifier--><path d="M1236.96,380.34 C1276.31,368.25 1326.35,352.86 1364.7,341.07 " fill="none" id="extmq&lt;-bustboxnotifier" style="stroke: #A80036; stroke-width: 1.0;"/><polygon fill="#A80036" points="1231.73,381.95,1241.5059,383.1469,1236.512,380.4896,1239.1693,375.4958,1231.73,381.95" style="stroke: #A80036; stroke-width: 1.0;"/><!--reverse link catlsys to bustboxnotifier--><path d="M687.51,117.51 C718.41,77.51 782.73,8 856.5,8 C856.5,8 856.5,8 1173,8 C1325.67,8 1400.21,237.47 1418.78,304.7 " fill="none" id="catlsys&lt;-bustboxnotifier" style="stroke: #A80036; stroke-width: 1.0;"/><polygon fill="#A80036" points="684.26,121.76,692.9089,117.0487,687.301,117.791,686.5586,112.1831,684.26,121.76" style="stroke: #A80036; stroke-width: 1.0;"/><!--link extmq to extsys--><path d="M1284.33,402.22 C1302.81,402.59 1321.69,402.97 1339.34,403.32 " fill="none" id="extmq-&gt;extsys" style="stroke: #A80036; stroke-width: 1.0; stroke-dasharray: 7.0,7.0;"/><polygon fill="#A80036" points="1344.78,403.43,1335.8618,399.2508,1339.781,403.33,1335.7018,407.2492,1344.78,403.43" style="stroke: #A80036; stroke-width: 1.0;"/><!--
@startuml

left to right direction

component "message-queue" as mq

component "bus-tbox" as bustbox

interface "tcp-ip" as tcpip
tcpip - -> bustbox

cloud {
    ["bus-2nd-terminal"] - -> tcpip
    ["vehicles-producer-platforms"] - -> tcpip
    ["bus-terminal"] - -> ["vehicles-producer-platforms"]
}

interface "tbox" as tbox

bustbox - -> tbox
tbox - -> mq

component "bus-core" as buscore
buscore <.. tbox
tbox <.. mq

interface "extevent" as extevent
buscore <.. extevent
extevent <.. mq

interface "event" as event
buscore - -> event
event - -> mq

component "bus-op" as busop
busop <.. event
event <.. mq
busop - -> event
event - -> mq

component "bus-log" as buslog
buslog <.. tbox
tbox <.. mq

component "bus-chart" as buschart
buschart <.. event
event <.. mq

interface "http" as http
buschart <.. http
http <.. buscore
http <.. busop

component "bus-boxie" as busboxie
busboxie - -> extevent
extevent - -> mq

component "bus-core(-catl)" as buscatl
buscatl - -> extevent
extevent - -> mq

node "catl-system" as catlsys
catlsys ..> buscatl

node "boxie-system" as boxiesys
boxiesys ..> busboxie

component "bus-admin" as busadmin
busadmin <.. buscore : http
busadmin <.. busop : http
busadmin <.. buslog : http
busadmin <.. buschart : http

component "bus-tbox-notifier" as bustboxnotifier

component "message-queue-for-external" as extmq
mq ..> bustboxnotifier
extmq <- - bustboxnotifier
catlsys <- - bustboxnotifier

node "external-systems" as extsys
extmq ..> extsys

@enduml

PlantUML version 1.2019.09(Tue Aug 27 00:19:51 CST 2019)
(GPL source distribution)
Java Runtime: OpenJDK Runtime Environment
JVM: OpenJDK 64-Bit Server VM
Java Version: 13.0.1+9
Operating System: Mac OS X
OS Version: 10.15.2
Default Encoding: UTF-8
Language: en
Country: GB
--></g></svg>