<?xml version="1.0" encoding="UTF-8" standalone="no"?><svg xmlns="http://www.w3.org/2000/svg" xmlns:xlink="http://www.w3.org/1999/xlink" contentScriptType="application/ecmascript" contentStyleType="text/css" height="854px" preserveAspectRatio="none" style="width:1526px;height:854px;" version="1.1" viewBox="0 0 1526 854" width="1526px" zoomAndPan="magnify"><defs><filter height="300%" id="fsudbqrzjamo0" width="300%" x="-1" y="-1"><feGaussianBlur result="blurOut" stdDeviation="2.0"/><feColorMatrix in="blurOut" result="blurOut2" type="matrix" values="0 0 0 0 0 0 0 0 0 0 0 0 0 0 0 0 0 0 .4 0"/><feOffset dx="4.0" dy="4.0" in="blurOut2" result="blurOut3"/><feBlend in="SourceGraphic" in2="blurOut3" mode="normal"/></filter></defs><g><path d="M41.4107,126.2328 C52.4002,110.2212 63.7839,114.6675 73.0057,128.1278 C82.9411,113.1789 92.4702,108.033 106.0343,124.2867 C119.7357,106.9172 129.8021,110.3298 140.1117,127.6214 C149.9816,108.3939 163.153,110.7272 174.4747,126.1831 C182.8442,106.5005 198.9005,106.8491 210.6092,122.7966 C219.0467,106.7263 232.737,107.8121 243.1918,120.5119 C251.9505,105.8531 268.6585,103.5047 278.2783,119.5271 C290.2404,106.7501 301.8949,108.8137 309.3471,124.4573 C318.4134,106.5368 334.0492,106.677 345.0418,122.4145 C355.9608,105.2958 365.9093,108.9096 376.8484,122.3937 C387.1677,108.7442 402.3207,105.1957 411.1584,123.9618 C422.3762,112.0173 435.6254,112.4306 443.7041,127.714 C457.4582,110.1017 470.8595,111.9456 483.3431,129.16 C493.3908,113.4149 510.1747,115.0698 518,131.55 C520.6626,130.1613 522.8749,131.3805 522.627,134.5224 C554.8607,149.0155 554.5597,173.9276 525.7084,191.7119 C546.2891,212.1365 538.8812,239.8909 511,247.55 C513.4829,248.5433 514.3994,250.433 512.2366,252.5706 C500.7754,266.8959 490.6924,265.6094 481.6397,250.1005 C469.8915,264.1627 459.4473,266.7812 447.1471,250.7328 C437.1016,268.1228 425.422,265.3323 415.2635,250.8459 C405.4489,272.111 388.1812,269.5374 377.0122,252.1876 C367.5639,268.443 351.9984,267.0611 344.6172,250.1676 C338.1609,267.7194 326.3463,268.5042 313.965,256.2636 C303.0063,271.2531 291.0636,271.9157 279.7054,256.717 C266.6775,270.6064 250.632,269.0572 241.6489,251.7783 C232.8402,267.352 216.8413,268.3157 209.0471,250.7794 C199.3836,268.0958 184.498,269.5238 173.853,251.7641 C165.2438,266.9623 151.5946,271.8096 140.3165,254.5191 C131.7581,269.3238 116.9938,270.2293 108.491,254.4613 C94.7927,270.9334 81.1851,266.6428 71.1822,250.2644 C56.6538,265.0636 36.0518,261.6858 30,240.55 C31.7587,238.5172 33.1818,238.3059 34.5622,240.9214 C11.5224,228.3899 6.991,211.8319 25.5281,191.6735 C-0.5356,167.131 -0.2224,138.2764 37,124.55 C39.3826,122.8853 40.6956,123.5267 41.4107,126.2328 " fill="#FFFFFF" style="stroke: #000000; stroke-width: 1.5;"/><!--entity "bus-2nd-terminal"--><rect fill="#FEFECE" filter="url(#fsudbqrzjamo0)" height="36.4883" style="stroke: #A80036; stroke-width: 1.5;" width="155" x="38" y="203.55"/><rect fill="#FEFECE" height="5" style="stroke: #A80036; stroke-width: 1.5;" width="10" x="33" y="208.55"/><rect fill="#FEFECE" height="5" style="stroke: #A80036; stroke-width: 1.5;" width="10" x="33" y="230.0383"/><text fill="#000000" font-family="sans-serif" font-size="14" lengthAdjust="spacingAndGlyphs" textLength="135" x="48" y="227.0852">"bus-2nd-terminal"</text><!--entity "vehicles-producer-platforms"--><rect fill="#FEFECE" filter="url(#fsudbqrzjamo0)" height="36.4883" style="stroke: #A80036; stroke-width: 1.5;" width="229" x="281" y="132.55"/><rect fill="#FEFECE" height="5" style="stroke: #A80036; stroke-width: 1.5;" width="10" x="276" y="137.55"/><rect fill="#FEFECE" height="5" style="stroke: #A80036; stroke-width: 1.5;" width="10" x="276" y="159.0383"/><text fill="#000000" font-family="sans-serif" font-size="14" lengthAdjust="spacingAndGlyphs" textLength="209" x="291" y="156.0852">"vehicles-producer-platforms"</text><!--entity "bus-terminal"--><rect fill="#FEFECE" filter="url(#fsudbqrzjamo0)" height="36.4883" style="stroke: #A80036; stroke-width: 1.5;" width="120" x="55.5" y="132.55"/><rect fill="#FEFECE" height="5" style="stroke: #A80036; stroke-width: 1.5;" width="10" x="50.5" y="137.55"/><rect fill="#FEFECE" height="5" style="stroke: #A80036; stroke-width: 1.5;" width="10" x="50.5" y="159.0383"/><text fill="#000000" font-family="sans-serif" font-size="14" lengthAdjust="spacingAndGlyphs" textLength="100" x="65.5" y="156.0852">"bus-terminal"</text><!--entity mq--><rect fill="#FEFECE" filter="url(#fsudbqrzjamo0)" height="36.4883" style="stroke: #A80036; stroke-width: 1.5;" width="131" x="1106.5" y="279.55"/><rect fill="#FEFECE" height="5" style="stroke: #A80036; stroke-width: 1.5;" width="10" x="1101.5" y="284.55"/><rect fill="#FEFECE" height="5" style="stroke: #A80036; stroke-width: 1.5;" width="10" x="1101.5" y="306.0383"/><text fill="#000000" font-family="sans-serif" font-size="14" lengthAdjust="spacingAndGlyphs" textLength="111" x="1116.5" y="303.0852">message-queue</text><!--entity bustbox--><rect fill="#FEFECE" filter="url(#fsudbqrzjamo0)" height="36.4883" style="stroke: #A80036; stroke-width: 1.5;" width="85" x="815" y="208.55"/><rect fill="#FEFECE" height="5" style="stroke: #A80036; stroke-width: 1.5;" width="10" x="810" y="213.55"/><rect fill="#FEFECE" height="5" style="stroke: #A80036; stroke-width: 1.5;" width="10" x="810" y="235.0383"/><text fill="#000000" font-family="sans-serif" font-size="14" lengthAdjust="spacingAndGlyphs" textLength="65" x="825" y="232.0852">bus-tbox</text><!--entity tcpip--><ellipse cx="667" cy="215.55" fill="#FEFECE" filter="url(#fsudbqrzjamo0)" rx="8" ry="8" style="stroke: #A80036; stroke-width: 2.0;"/><text fill="#000000" font-family="sans-serif" font-size="14" lengthAdjust="spacingAndGlyphs" textLength="42" x="646" y="246.0852">tcp-ip</text><!--entity tbox--><ellipse cx="990" cy="297.55" fill="#FEFECE" filter="url(#fsudbqrzjamo0)" rx="8" ry="8" style="stroke: #A80036; stroke-width: 2.0;"/><text fill="#000000" font-family="sans-serif" font-size="14" lengthAdjust="spacingAndGlyphs" textLength="32" x="974" y="328.0852">tbox</text><!--entity buscore--><rect fill="#FEFECE" filter="url(#fsudbqrzjamo0)" height="36.4883" style="stroke: #A80036; stroke-width: 1.5;" width="83" x="816" y="383.55"/><rect fill="#FEFECE" height="5" style="stroke: #A80036; stroke-width: 1.5;" width="10" x="811" y="388.55"/><rect fill="#FEFECE" height="5" style="stroke: #A80036; stroke-width: 1.5;" width="10" x="811" y="410.0383"/><text fill="#000000" font-family="sans-serif" font-size="14" lengthAdjust="spacingAndGlyphs" textLength="63" x="826" y="407.0852">bus-core</text><!--entity extevent--><ellipse cx="990" cy="188.55" fill="#FEFECE" filter="url(#fsudbqrzjamo0)" rx="8" ry="8" style="stroke: #A80036; stroke-width: 2.0;"/><text fill="#000000" font-family="sans-serif" font-size="14" lengthAdjust="spacingAndGlyphs" textLength="59" x="960.5" y="219.0852">extevent</text><!--entity event--><ellipse cx="990" cy="423.55" fill="#FEFECE" filter="url(#fsudbqrzjamo0)" rx="8" ry="8" style="stroke: #A80036; stroke-width: 2.0;"/><text fill="#000000" font-family="sans-serif" font-size="14" lengthAdjust="spacingAndGlyphs" textLength="37" x="971.5" y="454.0852">event</text><!--entity busop--><rect fill="#FEFECE" filter="url(#fsudbqrzjamo0)" height="36.4883" style="stroke: #A80036; stroke-width: 1.5;" width="71" x="822" y="574.55"/><rect fill="#FEFECE" height="5" style="stroke: #A80036; stroke-width: 1.5;" width="10" x="817" y="579.55"/><rect fill="#FEFECE" height="5" style="stroke: #A80036; stroke-width: 1.5;" width="10" x="817" y="601.0383"/><text fill="#000000" font-family="sans-serif" font-size="14" lengthAdjust="spacingAndGlyphs" textLength="51" x="832" y="598.0852">bus-op</text><!--entity buslog--><rect fill="#FEFECE" filter="url(#fsudbqrzjamo0)" height="36.4883" style="stroke: #A80036; stroke-width: 1.5;" width="75" x="358" y="279.55"/><rect fill="#FEFECE" height="5" style="stroke: #A80036; stroke-width: 1.5;" width="10" x="353" y="284.55"/><rect fill="#FEFECE" height="5" style="stroke: #A80036; stroke-width: 1.5;" width="10" x="353" y="306.0383"/><text fill="#000000" font-family="sans-serif" font-size="14" lengthAdjust="spacingAndGlyphs" textLength="55" x="368" y="303.0852">bus-log</text><!--entity buschart--><rect fill="#FEFECE" filter="url(#fsudbqrzjamo0)" height="36.4883" style="stroke: #A80036; stroke-width: 1.5;" width="88" x="351.5" y="492.55"/><rect fill="#FEFECE" height="5" style="stroke: #A80036; stroke-width: 1.5;" width="10" x="346.5" y="497.55"/><rect fill="#FEFECE" height="5" style="stroke: #A80036; stroke-width: 1.5;" width="10" x="346.5" y="519.0383"/><text fill="#000000" font-family="sans-serif" font-size="14" lengthAdjust="spacingAndGlyphs" textLength="68" x="361.5" y="516.0852">bus-chart</text><!--entity http--><ellipse cx="667" cy="592.55" fill="#FEFECE" filter="url(#fsudbqrzjamo0)" rx="8" ry="8" style="stroke: #A80036; stroke-width: 2.0;"/><text fill="#000000" font-family="sans-serif" font-size="14" lengthAdjust="spacingAndGlyphs" textLength="28" x="653" y="623.0852">http</text><!--entity busboxie--><rect fill="#FEFECE" filter="url(#fsudbqrzjamo0)" height="36.4883" style="stroke: #A80036; stroke-width: 1.5;" width="92" x="811.5" y="137.55"/><rect fill="#FEFECE" height="5" style="stroke: #A80036; stroke-width: 1.5;" width="10" x="806.5" y="142.55"/><rect fill="#FEFECE" height="5" style="stroke: #A80036; stroke-width: 1.5;" width="10" x="806.5" y="164.0383"/><text fill="#000000" font-family="sans-serif" font-size="14" lengthAdjust="spacingAndGlyphs" textLength="72" x="821.5" y="161.0852">bus-boxie</text><!--entity buscatl--><rect fill="#FEFECE" filter="url(#fsudbqrzjamo0)" height="36.4883" style="stroke: #A80036; stroke-width: 1.5;" width="125" x="795" y="66.55"/><rect fill="#FEFECE" height="5" style="stroke: #A80036; stroke-width: 1.5;" width="10" x="790" y="71.55"/><rect fill="#FEFECE" height="5" style="stroke: #A80036; stroke-width: 1.5;" width="10" x="790" y="93.0383"/><text fill="#000000" font-family="sans-serif" font-size="14" lengthAdjust="spacingAndGlyphs" textLength="105" x="805" y="90.0852">bus-core(-catl)</text><!--entity catlsys--><polygon fill="#FEFECE" filter="url(#fsudbqrzjamo0)" points="607.5,17.55,617.5,7.55,726.5,7.55,726.5,44.0383,716.5,54.0383,607.5,54.0383,607.5,17.55" style="stroke: #000000; stroke-width: 1.5;"/><line style="stroke: #000000; stroke-width: 1.5;" x1="716.5" x2="725.5" y1="17.55" y2="8.55"/><line style="stroke: #000000; stroke-width: 1.5;" x1="607.5" x2="716.5" y1="17.55" y2="17.55"/><line style="stroke: #000000; stroke-width: 1.5;" x1="716.5" x2="716.5" y1="17.55" y2="54.0383"/><text fill="#000000" font-family="sans-serif" font-size="14" lengthAdjust="spacingAndGlyphs" textLength="79" x="622.5" y="41.0852">catl-system</text><!--entity boxiesys--><polygon fill="#FEFECE" filter="url(#fsudbqrzjamo0)" points="600,115.55,610,105.55,734,105.55,734,142.0383,724,152.0383,600,152.0383,600,115.55" style="stroke: #000000; stroke-width: 1.5;"/><line style="stroke: #000000; stroke-width: 1.5;" x1="724" x2="733" y1="115.55" y2="106.55"/><line style="stroke: #000000; stroke-width: 1.5;" x1="600" x2="724" y1="115.55" y2="115.55"/><line style="stroke: #000000; stroke-width: 1.5;" x1="724" x2="724" y1="115.55" y2="152.0383"/><text fill="#000000" font-family="sans-serif" font-size="14" lengthAdjust="spacingAndGlyphs" textLength="94" x="615" y="139.0852">boxie-system</text><!--entity busadmin--><rect fill="#FEFECE" filter="url(#fsudbqrzjamo0)" height="36.4883" style="stroke: #A80036; stroke-width: 1.5;" width="96" x="67.5" y="442.55"/><rect fill="#FEFECE" height="5" style="stroke: #A80036; stroke-width: 1.5;" width="10" x="62.5" y="447.55"/><rect fill="#FEFECE" height="5" style="stroke: #A80036; stroke-width: 1.5;" width="10" x="62.5" y="469.0383"/><text fill="#000000" font-family="sans-serif" font-size="14" lengthAdjust="spacingAndGlyphs" textLength="76" x="77.5" y="466.0852">bus-admin</text><!--entity bustboxnotifier--><rect fill="#FEFECE" filter="url(#fsudbqrzjamo0)" height="36.4883" style="stroke: #A80036; stroke-width: 1.5;" width="143" x="1353" y="276.55"/><rect fill="#FEFECE" height="5" style="stroke: #A80036; stroke-width: 1.5;" width="10" x="1348" y="281.55"/><rect fill="#FEFECE" height="5" style="stroke: #A80036; stroke-width: 1.5;" width="10" x="1348" y="303.0383"/><text fill="#000000" font-family="sans-serif" font-size="14" lengthAdjust="spacingAndGlyphs" textLength="123" x="1363" y="300.0852">bus-tbox-notifier</text><!--entity extmq--><rect fill="#FEFECE" filter="url(#fsudbqrzjamo0)" height="36.4883" style="stroke: #A80036; stroke-width: 1.5;" width="224" x="1060" y="353.55"/><rect fill="#FEFECE" height="5" style="stroke: #A80036; stroke-width: 1.5;" width="10" x="1055" y="358.55"/><rect fill="#FEFECE" height="5" style="stroke: #A80036; stroke-width: 1.5;" width="10" x="1055" y="380.0383"/><text fill="#000000" font-family="sans-serif" font-size="14" lengthAdjust="spacingAndGlyphs" textLength="204" x="1070" y="377.0852">message-queue-for-external</text><!--entity extsys--><polygon fill="#FEFECE" filter="url(#fsudbqrzjamo0)" points="1345,363.55,1355,353.55,1504,353.55,1504,390.0383,1494,400.0383,1345,400.0383,1345,363.55" style="stroke: #000000; stroke-width: 1.5;"/><line style="stroke: #000000; stroke-width: 1.5;" x1="1494" x2="1503" y1="363.55" y2="354.55"/><line style="stroke: #000000; stroke-width: 1.5;" x1="1345" x2="1494" y1="363.55" y2="363.55"/><line style="stroke: #000000; stroke-width: 1.5;" x1="1494" x2="1494" y1="363.55" y2="400.0383"/><text fill="#000000" font-family="sans-serif" font-size="14" lengthAdjust="spacingAndGlyphs" textLength="119" x="1360" y="387.0852">external-systems</text><!--link tcpip to bustbox--><path d="M676.1,216.03 C698.76,217.35 764.13,221.16 809.62,223.82 " fill="none" id="tcpip-&gt;bustbox" style="stroke: #A80036; stroke-width: 1.0;"/><polygon fill="#A80036" points="814.78,224.12,806.0236,219.6116,809.7882,223.8339,805.5659,227.5985,814.78,224.12" style="stroke: #A80036; stroke-width: 1.0;"/><!--link "bus-2nd-terminal" to tcpip--><path d="M193.19,220.72 C326.13,219.26 591.07,216.37 652.89,215.7 " fill="none" id="&quot;bus-2nd-terminal&quot;-&gt;tcpip" style="stroke: #A80036; stroke-width: 1.0;"/><polygon fill="#A80036" points="657.92,215.64,648.8749,211.7431,652.9203,215.6971,648.9663,219.7426,657.92,215.64" style="stroke: #A80036; stroke-width: 1.0;"/><!--link "vehicles-producer-platforms" to tcpip--><path d="M471.21,168.57 C534.53,183.85 620.09,204.48 652.66,212.34 " fill="none" id="&quot;vehicles-producer-platforms&quot;-&gt;tcpip" style="stroke: #A80036; stroke-width: 1.0;"/><polygon fill="#A80036" points="657.77,213.57,649.9713,207.555,652.9118,212.3875,648.0793,215.3281,657.77,213.57" style="stroke: #A80036; stroke-width: 1.0;"/><!--link "bus-terminal" to "vehicles-producer-platforms"--><path d="M175.8,150.55 C204.98,150.55 241.24,150.55 275.79,150.55 " fill="none" id="&quot;bus-terminal&quot;-&gt;&quot;vehicles-producer-platforms&quot;" style="stroke: #A80036; stroke-width: 1.0;"/><polygon fill="#A80036" points="280.88,150.55,271.88,146.55,275.88,150.55,271.88,154.55,280.88,150.55" style="stroke: #A80036; stroke-width: 1.0;"/><!--link bustbox to tbox--><path d="M898.78,244.57 C915.26,252.34 934.32,261.86 951,271.55 C959.81,276.68 969.28,283.15 976.55,288.35 " fill="none" id="bustbox-&gt;tbox" style="stroke: #A80036; stroke-width: 1.0;"/><polygon fill="#A80036" points="980.78,291.41,975.8379,282.8909,976.7308,288.4768,971.1448,289.3696,980.78,291.41" style="stroke: #A80036; stroke-width: 1.0;"/><!--link tbox to mq--><path d="M995.81,306.81 C1016.65,325.3 1099.95,328.7 1143.76,317.01 " fill="none" id="tbox-&gt;mq" style="stroke: #A80036; stroke-width: 1.0;"/><polygon fill="#A80036" points="1148.64,315.59,1138.8811,314.2622,1143.8389,316.9862,1141.1149,321.944,1148.64,315.59" style="stroke: #A80036; stroke-width: 1.0;"/><!--reverse link tbox to mq--><path d="M1004.41,297.55 C1025.85,297.55 1069.24,297.55 1106.36,297.55 " fill="none" id="tbox&lt;-mq" style="stroke: #A80036; stroke-width: 1.0; stroke-dasharray: 7.0,7.0;"/><polygon fill="#A80036" points="999.2,297.55,1008.2,301.55,1004.2,297.55,1008.2,293.55,999.2,297.55" style="stroke: #A80036; stroke-width: 1.0;"/><!--reverse link tbox to mq--><path d="M999.95,285.3 C1027.05,268.82 1108.77,266.89 1148.64,279.52 " fill="none" id="tbox&lt;-mq-1" style="stroke: #A80036; stroke-width: 1.0; stroke-dasharray: 7.0,7.0;"/><polygon fill="#A80036" points="995.81,288.3,1005.4404,286.2374,999.8524,285.3574,1000.7324,279.7694,995.81,288.3" style="stroke: #A80036; stroke-width: 1.0;"/><!--reverse link buscore to tbox--><path d="M904.2,386.49 C920.21,379.69 937.54,370.47 951,358.55 C967.82,343.67 979.77,319.56 985.39,306.55 " fill="none" id="buscore&lt;-tbox" style="stroke: #A80036; stroke-width: 1.0; stroke-dasharray: 7.0,7.0;"/><polygon fill="#A80036" points="899.28,388.52,909.1255,388.7767,903.9004,386.6091,906.068,381.384,899.28,388.52" style="stroke: #A80036; stroke-width: 1.0;"/><!--reverse link buscore to extevent--><path d="M872.25,379.11 C900.53,332.95 964.17,229.08 983.4,197.7 " fill="none" id="buscore&lt;-extevent" style="stroke: #A80036; stroke-width: 1.0; stroke-dasharray: 7.0,7.0;"/><polygon fill="#A80036" points="869.63,383.39,877.7347,377.7941,872.2361,379.1229,870.9073,373.6243,869.63,383.39" style="stroke: #A80036; stroke-width: 1.0;"/><!--reverse link extevent to mq--><path d="M996.69,201.99 C1013.39,225.53 1063.76,261.15 1106.09,283.57 " fill="none" id="extevent&lt;-mq" style="stroke: #A80036; stroke-width: 1.0; stroke-dasharray: 7.0,7.0;"/><polygon fill="#A80036" points="993.97,197.74,995.4571,207.4759,996.6673,201.9501,1002.1932,203.1603,993.97,197.74" style="stroke: #A80036; stroke-width: 1.0;"/><!--link extevent to mq--><path d="M999.2,193.52 C1023.14,208.02 1093.92,250.88 1136.8,276.84 " fill="none" id="extevent-&gt;mq" style="stroke: #A80036; stroke-width: 1.0;"/><polygon fill="#A80036" points="1141.11,279.45,1135.4822,271.3674,1136.8327,276.8607,1131.3394,278.2111,1141.11,279.45" style="stroke: #A80036; stroke-width: 1.0;"/><!--link extevent to mq--><path d="M999.2,181.73 C1027.8,180.67 1123.27,237.63 1158.12,275.39 " fill="none" id="extevent-&gt;mq-1" style="stroke: #A80036; stroke-width: 1.0;"/><polygon fill="#A80036" points="1161.69,279.44,1158.7561,270.0383,1158.3904,275.6833,1152.7454,275.3176,1161.69,279.44" style="stroke: #A80036; stroke-width: 1.0;"/><!--link buscore to event--><path d="M899.08,408.39 C925.38,412.83 957.97,418.32 975.8,421.33 " fill="none" id="buscore-&gt;event" style="stroke: #A80036; stroke-width: 1.0;"/><polygon fill="#A80036" points="980.84,422.18,972.6277,416.7433,975.9092,421.3511,971.3014,424.6325,980.84,422.18" style="stroke: #A80036; stroke-width: 1.0;"/><!--link event to mq--><path d="M991.42,432.93 C995.11,467.49 1022.63,415.18 1060,388.55 C1095.36,363.36 1148.52,353.12 1165.55,320.6 " fill="none" id="event-&gt;mq" style="stroke: #A80036; stroke-width: 1.0;"/><polygon fill="#A80036" points="1167.79,315.64,1160.4413,322.1972,1165.7328,320.1972,1167.7329,325.4887,1167.79,315.64" style="stroke: #A80036; stroke-width: 1.0;"/><!--reverse link event to mq--><path d="M1002.45,416.15 C1014.45,400.61 1035.03,371.35 1060,353.55 C1085.78,335.18 1121.04,324.76 1144.84,315.62 " fill="none" id="event&lt;-mq" style="stroke: #A80036; stroke-width: 1.0; stroke-dasharray: 7.0,7.0;"/><polygon fill="#A80036" points="999.29,420.15,1008.0052,415.5626,1002.3873,416.2249,1001.725,410.6069,999.29,420.15" style="stroke: #A80036; stroke-width: 1.0;"/><!--link event to mq--><path d="M992.48,414.41 C998.85,390.58 1025.15,343.39 1060,318.55 C1072.4,309.71 1087,302.72 1101.46,297.68 " fill="none" id="event-&gt;mq-1" style="stroke: #A80036; stroke-width: 1.0;"/><polygon fill="#A80036" points="1106.35,296.05,1096.5487,295.0836,1101.6037,297.6226,1099.0648,302.6776,1106.35,296.05" style="stroke: #A80036; stroke-width: 1.0;"/><!--reverse link event to mq--><path d="M991.66,409.47 C996.16,360.52 1023.34,309.67 1060,283.55 C1096.76,257.36 1152.78,247.33 1167.4,279.17 " fill="none" id="event&lt;-mq-1" style="stroke: #A80036; stroke-width: 1.0; stroke-dasharray: 7.0,7.0;"/><polygon fill="#A80036" points="991.27,414.5,995.9523,405.8353,991.6557,409.5149,987.9761,405.2183,991.27,414.5" style="stroke: #A80036; stroke-width: 1.0;"/><!--reverse link busop to event--><path d="M898.13,591.67 C916.45,584.07 937.16,570.83 951,553.55 C979.86,517.53 987.27,458.52 988.71,432.67 " fill="none" id="busop&lt;-event" style="stroke: #A80036; stroke-width: 1.0; stroke-dasharray: 7.0,7.0;"/><polygon fill="#A80036" points="893.03,593.66,902.8681,594.1202,897.6889,591.845,899.9641,586.6659,893.03,593.66" style="stroke: #A80036; stroke-width: 1.0;"/><!--link busop to event--><path d="M874.61,574.5 C895.18,560.76 930.58,544.05 951,518.55 C970.8,493.83 980.51,458.29 985.11,437.54 " fill="none" id="busop-&gt;event" style="stroke: #A80036; stroke-width: 1.0;"/><polygon fill="#A80036" points="986.18,432.6,980.3941,440.5702,985.1392,437.4905,988.2189,442.2355,986.18,432.6" style="stroke: #A80036; stroke-width: 1.0;"/><!--reverse link buslog to tbox--><path d="M438.12,297.55 C561.74,297.55 921.81,297.55 980.79,297.55 " fill="none" id="buslog&lt;-tbox" style="stroke: #A80036; stroke-width: 1.0; stroke-dasharray: 7.0,7.0;"/><polygon fill="#A80036" points="433.12,297.55,442.12,301.55,438.12,297.55,442.12,293.55,433.12,297.55" style="stroke: #A80036; stroke-width: 1.0;"/><!--reverse link buschart to event--><path d="M444.85,504.82 C537.38,493.63 745.78,467.35 920,437.55 C942.17,433.76 968.12,428.19 980.96,425.35 " fill="none" id="buschart&lt;-event" style="stroke: #A80036; stroke-width: 1.0; stroke-dasharray: 7.0,7.0;"/><polygon fill="#A80036" points="439.73,505.44,449.1362,508.3595,444.6957,504.855,448.2002,500.4144,439.73,505.44" style="stroke: #A80036; stroke-width: 1.0;"/><!--reverse link buschart to http--><path d="M444.59,525.18 C510.94,545.37 625.99,580.38 657.7,590.03 " fill="none" id="buschart&lt;-http" style="stroke: #A80036; stroke-width: 1.0; stroke-dasharray: 7.0,7.0;"/><polygon fill="#A80036" points="439.5,523.64,446.9623,530.0677,444.2872,525.0833,449.2715,522.4082,439.5,523.64" style="stroke: #A80036; stroke-width: 1.0;"/><!--reverse link http to buscore--><path d="M679.71,580.69 C711.67,548.31 800.56,458.23 838.72,419.57 " fill="none" id="http&lt;-buscore" style="stroke: #A80036; stroke-width: 1.0; stroke-dasharray: 7.0,7.0;"/><polygon fill="#A80036" points="676.1,584.35,685.2708,580.7588,679.614,580.7931,679.5798,575.1364,676.1,584.35" style="stroke: #A80036; stroke-width: 1.0;"/><!--reverse link http to busop--><path d="M681.33,592.55 C710.28,592.55 779.69,592.55 821.93,592.55 " fill="none" id="http&lt;-busop" style="stroke: #A80036; stroke-width: 1.0; stroke-dasharray: 7.0,7.0;"/><polygon fill="#A80036" points="676.1,592.55,685.1,596.55,681.1,592.55,685.1,588.55,676.1,592.55" style="stroke: #A80036; stroke-width: 1.0;"/><!--link busboxie to extevent--><path d="M903.78,167 C929.17,173.43 959.04,180.98 975.82,185.22 " fill="none" id="busboxie-&gt;extevent" style="stroke: #A80036; stroke-width: 1.0;"/><polygon fill="#A80036" points="980.98,186.53,973.2357,180.4452,976.1327,185.3039,971.2739,188.2009,980.98,186.53" style="stroke: #A80036; stroke-width: 1.0;"/><!--link buscatl to extevent--><path d="M894.01,102.62 C902.8,107.66 911.99,113.45 920,119.55 C942.41,136.64 964.83,160.66 977.79,175.38 " fill="none" id="buscatl-&gt;extevent" style="stroke: #A80036; stroke-width: 1.0;"/><polygon fill="#A80036" points="981.18,179.28,978.284,169.8665,977.8956,175.51,972.2521,175.1216,981.18,179.28" style="stroke: #A80036; stroke-width: 1.0;"/><!--link catlsys to buscatl--><path d="M726.61,47.34 C746.72,53.1 769.37,59.59 790.06,65.52 " fill="none" id="catlsys-&gt;buscatl" style="stroke: #A80036; stroke-width: 1.0; stroke-dasharray: 7.0,7.0;"/><polygon fill="#A80036" points="794.99,66.93,787.4476,60.5966,790.1851,65.547,785.2347,68.2845,794.99,66.93" style="stroke: #A80036; stroke-width: 1.0;"/><!--link boxiesys to busboxie--><path d="M734.19,138.03 C757.96,141.44 784.35,145.22 806.51,148.39 " fill="none" id="boxiesys-&gt;busboxie" style="stroke: #A80036; stroke-width: 1.0; stroke-dasharray: 7.0,7.0;"/><polygon fill="#A80036" points="811.47,149.1,803.1177,143.8809,806.5191,148.4009,801.9991,151.8023,811.47,149.1" style="stroke: #A80036; stroke-width: 1.0;"/><!--reverse link busadmin to buscore--><path d="M153.15,440.06 C173.14,430.01 198.7,418.93 223,413.55 C442.1,365.03 714.29,386.22 815.82,396.83 " fill="none" id="busadmin&lt;-buscore" style="stroke: #A80036; stroke-width: 1.0; stroke-dasharray: 7.0,7.0;"/><polygon fill="#A80036" points="148.46,442.46,158.2943,441.9246,152.9119,440.1839,154.6526,434.8016,148.46,442.46" style="stroke: #A80036; stroke-width: 1.0;"/><text fill="#000000" font-family="sans-serif" font-size="13" lengthAdjust="spacingAndGlyphs" textLength="26" x="543" y="379.1184">http</text><!--link busadmin to buscore--><path d="M163.63,456.8 C297.4,446.13 678.24,415.77 810.54,405.22 " fill="none" id="busadmin-&gt;buscore" style="stroke: #A80036; stroke-width: 1.0;"/><polygon fill="#A80036" points="815.9,404.79,806.6089,401.5226,810.916,405.1899,807.2487,409.4969,815.9,404.79" style="stroke: #A80036; stroke-width: 1.0;"/><text fill="#000000" font-family="sans-serif" font-size="13" lengthAdjust="spacingAndGlyphs" textLength="26" x="543" y="420.1184">http</text><!--reverse link busadmin to busop--><path d="M119.21,483.9 C126.29,533.14 150.13,647.46 223,700.55 C417.69,842.41 555.98,820.3 765,700.55 C802.74,678.93 832.03,635.58 846.52,610.88 " fill="none" id="busadmin&lt;-busop" style="stroke: #A80036; stroke-width: 1.0; stroke-dasharray: 7.0,7.0;"/><polygon fill="#A80036" points="118.5,478.78,115.7747,488.2443,119.1871,483.7326,123.6988,487.145,118.5,478.78" style="stroke: #A80036; stroke-width: 1.0;"/><text fill="#000000" font-family="sans-serif" font-size="13" lengthAdjust="spacingAndGlyphs" textLength="26" x="543" y="783.1184">http</text><!--link busadmin to busop--><path d="M146.56,478.59 C178.91,497.44 232.27,526.94 281,546.55 C418,601.7 453.8,618.68 600,639.55 C658.96,647.97 675.44,650.4 734,639.55 C762.87,634.2 793.73,622.33 817.25,611.85 " fill="none" id="busadmin-&gt;busop" style="stroke: #A80036; stroke-width: 1.0;"/><polygon fill="#A80036" points="821.85,609.77,812.0012,609.8015,817.2875,611.8153,815.2736,617.1015,821.85,609.77" style="stroke: #A80036; stroke-width: 1.0;"/><text fill="#000000" font-family="sans-serif" font-size="13" lengthAdjust="spacingAndGlyphs" textLength="26" x="543" y="626.1184">http</text><!--reverse link busadmin to buslog--><path d="M130.86,437.88 C149.05,411.05 182.89,366.96 223,342.55 C265.08,316.95 321.55,305.78 357.99,300.99 " fill="none" id="busadmin&lt;-buslog" style="stroke: #A80036; stroke-width: 1.0; stroke-dasharray: 7.0,7.0;"/><polygon fill="#A80036" points="127.87,442.36,136.1905,437.0903,130.6435,438.1997,129.5341,432.6527,127.87,442.36" style="stroke: #A80036; stroke-width: 1.0;"/><text fill="#000000" font-family="sans-serif" font-size="13" lengthAdjust="spacingAndGlyphs" textLength="26" x="224" y="325.1184">http</text><!--reverse link busadmin to buschart--><path d="M168.87,471.83 C186.09,475.41 205.33,479.29 223,482.55 C266.61,490.61 316.68,498.65 351.42,504.03 " fill="none" id="busadmin&lt;-buschart" style="stroke: #A80036; stroke-width: 1.0; stroke-dasharray: 7.0,7.0;"/><polygon fill="#A80036" points="163.6,470.73,171.599,476.4759,168.4956,471.7463,173.2252,468.6429,163.6,470.73" style="stroke: #A80036; stroke-width: 1.0;"/><text fill="#000000" font-family="sans-serif" font-size="13" lengthAdjust="spacingAndGlyphs" textLength="26" x="224" y="479.1184">http</text><!--link mq to bustboxnotifier--><path d="M1237.51,296.78 C1271.08,296.38 1312.34,295.88 1347.46,295.46 " fill="none" id="mq-&gt;bustboxnotifier" style="stroke: #A80036; stroke-width: 1.0; stroke-dasharray: 7.0,7.0;"/><polygon fill="#A80036" points="1352.6,295.4,1343.5549,291.5031,1347.6003,295.4571,1343.6463,299.5026,1352.6,295.4" style="stroke: #A80036; stroke-width: 1.0;"/><!--reverse link extmq to bustboxnotifier--><path d="M1236.96,351.89 C1276.31,339.8 1326.35,324.41 1364.7,312.63 " fill="none" id="extmq&lt;-bustboxnotifier" style="stroke: #A80036; stroke-width: 1.0;"/><polygon fill="#A80036" points="1231.73,353.5,1241.5059,354.6969,1236.512,352.0396,1239.1693,347.0458,1231.73,353.5" style="stroke: #A80036; stroke-width: 1.0;"/><!--reverse link catlsys to bustboxnotifier--><path d="M732.18,21.88 C768.58,17.69 815,13.55 856.5,13.55 C856.5,13.55 856.5,13.55 1173,13.55 C1314.49,13.55 1395.83,214.53 1417.55,276.55 " fill="none" id="catlsys&lt;-bustboxnotifier" style="stroke: #A80036; stroke-width: 1.0;"/><polygon fill="#A80036" points="726.88,22.5,736.2779,25.4461,731.8473,21.929,735.3644,17.4984,726.88,22.5" style="stroke: #A80036; stroke-width: 1.0;"/><!--link extmq to extsys--><path d="M1284.33,373.78 C1302.81,374.14 1321.69,374.52 1339.34,374.87 " fill="none" id="extmq-&gt;extsys" style="stroke: #A80036; stroke-width: 1.0; stroke-dasharray: 7.0,7.0;"/><polygon fill="#A80036" points="1344.78,374.98,1335.8618,370.8008,1339.781,374.88,1335.7018,378.7992,1344.78,374.98" style="stroke: #A80036; stroke-width: 1.0;"/><!--
@startuml

left to right direction

component "message-queue" as mq

component "bus-tbox" as bustbox

interface "tcp-ip" as tcpip
tcpip - -> bustbox

cloud {
    ["bus-2nd-terminal"] - -> tcpip
    ["vehicles-producer-platforms"] - -> tcpip
    ["bus-terminal"] - -> ["vehicles-producer-platforms"]
}

interface "tbox" as tbox

bustbox - -> tbox
tbox - -> mq

component "bus-core" as buscore
buscore <.. tbox
tbox <.. mq

interface "extevent" as extevent
buscore <.. extevent
extevent <.. mq

interface "event" as event
buscore - -> event
event - -> mq

component "bus-op" as busop
busop <.. event
event <.. mq
busop - -> event
event - -> mq

component "bus-log" as buslog
buslog <.. tbox
tbox <.. mq

component "bus-chart" as buschart
buschart <.. event
event <.. mq

interface "http" as http
buschart <.. http
http <.. buscore
http <.. busop

component "bus-boxie" as busboxie
busboxie - -> extevent
extevent - -> mq

component "bus-core(-catl)" as buscatl
buscatl - -> extevent
extevent - -> mq

node "catl-system" as catlsys
catlsys ..> buscatl

node "boxie-system" as boxiesys
boxiesys ..> busboxie

component "bus-admin" as busadmin
busadmin <.. buscore : http
busadmin - -> buscore : http
busadmin <.. busop : http
busadmin - -> busop : http
busadmin <.. buslog : http
busadmin <.. buschart : http

component "bus-tbox-notifier" as bustboxnotifier

component "message-queue-for-external" as extmq
mq ..> bustboxnotifier
extmq <- - bustboxnotifier
catlsys <- - bustboxnotifier

node "external-systems" as extsys
extmq ..> extsys

@enduml

PlantUML version 1.2019.09(Tue Aug 27 00:19:51 CST 2019)
(GPL source distribution)
Java Runtime: OpenJDK Runtime Environment
JVM: OpenJDK 64-Bit Server VM
Java Version: 13.0.1+9
Operating System: Mac OS X
OS Version: 10.15.2
Default Encoding: UTF-8
Language: en
Country: GB
--></g></svg>