<?xml version="1.0" encoding="UTF-8" standalone="no"?><svg xmlns="http://www.w3.org/2000/svg" xmlns:xlink="http://www.w3.org/1999/xlink" contentScriptType="application/ecmascript" contentStyleType="text/css" height="844px" preserveAspectRatio="none" style="width:1526px;height:844px;" version="1.1" viewBox="0 0 1526 844" width="1526px" zoomAndPan="magnify"><defs><filter height="300%" id="f6tf8i3qn7cmx" width="300%" x="-1" y="-1"><feGaussianBlur result="blurOut" stdDeviation="2.0"/><feColorMatrix in="blurOut" result="blurOut2" type="matrix" values="0 0 0 0 0 0 0 0 0 0 0 0 0 0 0 0 0 0 .4 0"/><feOffset dx="4.0" dy="4.0" in="blurOut2" result="blurOut3"/><feBlend in="SourceGraphic" in2="blurOut3" mode="normal"/></filter></defs><g><path d="M42.1853,684.993 C47.0705,669.7975 59.6027,668.4683 69.6639,679.5883 C80.855,664.4975 98.2231,664.1374 106.1186,683.1147 C115.1537,667.9407 125.0089,670.7526 133.9753,683.184 C143.7893,666.6527 155.7139,665.4655 166.6259,682.1032 C173.9801,664.1222 191.6585,662.3938 202.0383,679.0058 C211.2168,662.1117 225.4793,662.8933 234.3384,679.3155 C243.4099,667.1163 253.4239,665.7973 263.3927,678.2583 C275.0164,663.6449 286.4402,664.5765 297.0084,679.4612 C303.7583,663.3298 319.6284,661.0224 329.6734,676.0014 C340.098,663.7735 351.9077,665.3024 359.3903,679.331 C369.0575,664.7566 378.5129,666.4392 388.5993,678.8778 C400.0208,661.824 414.8782,664.2387 422.3463,682.6408 C430.4793,667.4428 446.1402,664.5532 455.8242,681.0001 C469.1145,663.414 483.7777,669.0113 491,687 C494.4451,687.66 495.1277,689.7536 493.2612,692.5699 C516.9919,710.3326 524.4125,726.8834 495.6646,746.9649 C518.392,768.9201 517.2044,792.6879 484,803 C487.7202,802.0978 489.1381,803.3673 488.3657,807.1693 C480.0744,823.3277 463.838,822.9883 455.7133,807.0001 C449.2332,821.7975 436.5466,825.3253 425.9334,811.2654 C415.9783,829.1903 400.1616,825.9465 389.9648,811.5344 C382.361,827.9956 367.4467,830.5579 356.8106,814.6392 C345.0894,830.1295 335.4272,827.4501 325.9161,812.4032 C317.9717,825.319 307.4317,826.4605 297.9718,814.0772 C287.9418,832.9563 274.2766,831.0745 262.8831,815.4645 C253.7322,827.5201 244.3481,828.7735 234.0528,816.8398 C220.7922,832.5427 211.1685,829.9126 201.8141,812.9809 C189.4685,829.1487 177.5453,826.5549 166.9281,811.0756 C157.6227,826.7649 143.2816,825.3809 133.9371,811.1186 C123.876,825.4152 114.1328,822.47 106.3464,808.8689 C94.933,824.2518 82.4807,822.3687 72.7171,807.0611 C54.104,820.6115 38.6185,821.0485 30,796 C33.1619,795.7113 34.3644,797.9399 32.9349,800.5882 C6.7462,790.9098 -2.6409,767.5569 21.5432,747.142 C-6.8175,716.1293 -3.9744,695.051 37,680 C40.7416,678.8509 42.8932,681.5214 42.1853,684.993 " fill="#FFFFFF" style="stroke: #000000; stroke-width: 1.5;"/><!--entity "bus-2nd-terminal"--><rect fill="#FEFECE" filter="url(#f6tf8i3qn7cmx)" height="36.4883" style="stroke: #A80036; stroke-width: 1.5;" width="155" x="38" y="688"/><rect fill="#FEFECE" height="5" style="stroke: #A80036; stroke-width: 1.5;" width="10" x="33" y="693"/><rect fill="#FEFECE" height="5" style="stroke: #A80036; stroke-width: 1.5;" width="10" x="33" y="714.4883"/><text fill="#000000" font-family="sans-serif" font-size="14" lengthAdjust="spacingAndGlyphs" textLength="135" x="48" y="711.5352">"bus-2nd-terminal"</text><!--entity "vehicles-producer-platforms"--><rect fill="#FEFECE" filter="url(#f6tf8i3qn7cmx)" height="36.4883" style="stroke: #A80036; stroke-width: 1.5;" width="229" x="254" y="759"/><rect fill="#FEFECE" height="5" style="stroke: #A80036; stroke-width: 1.5;" width="10" x="249" y="764"/><rect fill="#FEFECE" height="5" style="stroke: #A80036; stroke-width: 1.5;" width="10" x="249" y="785.4883"/><text fill="#000000" font-family="sans-serif" font-size="14" lengthAdjust="spacingAndGlyphs" textLength="209" x="264" y="782.5352">"vehicles-producer-platforms"</text><!--entity "bus-terminal"--><rect fill="#FEFECE" filter="url(#f6tf8i3qn7cmx)" height="36.4883" style="stroke: #A80036; stroke-width: 1.5;" width="120" x="55.5" y="759"/><rect fill="#FEFECE" height="5" style="stroke: #A80036; stroke-width: 1.5;" width="10" x="50.5" y="764"/><rect fill="#FEFECE" height="5" style="stroke: #A80036; stroke-width: 1.5;" width="10" x="50.5" y="785.4883"/><text fill="#000000" font-family="sans-serif" font-size="14" lengthAdjust="spacingAndGlyphs" textLength="100" x="65.5" y="782.5352">"bus-terminal"</text><!--entity mq--><rect fill="#FEFECE" filter="url(#f6tf8i3qn7cmx)" height="36.4883" style="stroke: #A80036; stroke-width: 1.5;" width="131" x="1106.5" y="394"/><rect fill="#FEFECE" height="5" style="stroke: #A80036; stroke-width: 1.5;" width="10" x="1101.5" y="399"/><rect fill="#FEFECE" height="5" style="stroke: #A80036; stroke-width: 1.5;" width="10" x="1101.5" y="420.4883"/><text fill="#000000" font-family="sans-serif" font-size="14" lengthAdjust="spacingAndGlyphs" textLength="111" x="1116.5" y="417.5352">message-queue</text><!--entity bustbox--><rect fill="#FEFECE" filter="url(#f6tf8i3qn7cmx)" height="36.4883" style="stroke: #A80036; stroke-width: 1.5;" width="85" x="815" y="704"/><rect fill="#FEFECE" height="5" style="stroke: #A80036; stroke-width: 1.5;" width="10" x="810" y="709"/><rect fill="#FEFECE" height="5" style="stroke: #A80036; stroke-width: 1.5;" width="10" x="810" y="730.4883"/><text fill="#000000" font-family="sans-serif" font-size="14" lengthAdjust="spacingAndGlyphs" textLength="65" x="825" y="727.5352">bus-tbox</text><!--entity tcpip--><ellipse cx="640" cy="734" fill="#FEFECE" filter="url(#f6tf8i3qn7cmx)" rx="8" ry="8" style="stroke: #A80036; stroke-width: 2.0;"/><text fill="#000000" font-family="sans-serif" font-size="14" lengthAdjust="spacingAndGlyphs" textLength="42" x="619" y="764.5352">tcp-ip</text><!--entity tbox--><ellipse cx="990" cy="538" fill="#FEFECE" filter="url(#f6tf8i3qn7cmx)" rx="8" ry="8" style="stroke: #A80036; stroke-width: 2.0;"/><text fill="#000000" font-family="sans-serif" font-size="14" lengthAdjust="spacingAndGlyphs" textLength="32" x="974" y="568.5352">tbox</text><!--entity buscore--><rect fill="#FEFECE" filter="url(#f6tf8i3qn7cmx)" height="36.4883" style="stroke: #A80036; stroke-width: 1.5;" width="83" x="816" y="310"/><rect fill="#FEFECE" height="5" style="stroke: #A80036; stroke-width: 1.5;" width="10" x="811" y="315"/><rect fill="#FEFECE" height="5" style="stroke: #A80036; stroke-width: 1.5;" width="10" x="811" y="336.4883"/><text fill="#000000" font-family="sans-serif" font-size="14" lengthAdjust="spacingAndGlyphs" textLength="63" x="826" y="333.5352">bus-core</text><!--entity extevent--><ellipse cx="990" cy="412" fill="#FEFECE" filter="url(#f6tf8i3qn7cmx)" rx="8" ry="8" style="stroke: #A80036; stroke-width: 2.0;"/><text fill="#000000" font-family="sans-serif" font-size="14" lengthAdjust="spacingAndGlyphs" textLength="59" x="960.5" y="442.5352">extevent</text><!--entity event--><ellipse cx="990" cy="252" fill="#FEFECE" filter="url(#f6tf8i3qn7cmx)" rx="8" ry="8" style="stroke: #A80036; stroke-width: 2.0;"/><text fill="#000000" font-family="sans-serif" font-size="14" lengthAdjust="spacingAndGlyphs" textLength="37" x="971.5" y="282.5352">event</text><!--entity busop--><rect fill="#FEFECE" filter="url(#f6tf8i3qn7cmx)" height="36.4883" style="stroke: #A80036; stroke-width: 1.5;" width="71" x="822" y="67"/><rect fill="#FEFECE" height="5" style="stroke: #A80036; stroke-width: 1.5;" width="10" x="817" y="72"/><rect fill="#FEFECE" height="5" style="stroke: #A80036; stroke-width: 1.5;" width="10" x="817" y="93.4883"/><text fill="#000000" font-family="sans-serif" font-size="14" lengthAdjust="spacingAndGlyphs" textLength="51" x="832" y="90.5352">bus-op</text><!--entity buslog--><rect fill="#FEFECE" filter="url(#f6tf8i3qn7cmx)" height="36.4883" style="stroke: #A80036; stroke-width: 1.5;" width="75" x="602.5" y="553"/><rect fill="#FEFECE" height="5" style="stroke: #A80036; stroke-width: 1.5;" width="10" x="597.5" y="558"/><rect fill="#FEFECE" height="5" style="stroke: #A80036; stroke-width: 1.5;" width="10" x="597.5" y="579.4883"/><text fill="#000000" font-family="sans-serif" font-size="14" lengthAdjust="spacingAndGlyphs" textLength="55" x="612.5" y="576.5352">bus-log</text><!--entity buschart--><rect fill="#FEFECE" filter="url(#f6tf8i3qn7cmx)" height="36.4883" style="stroke: #A80036; stroke-width: 1.5;" width="88" x="596" y="53"/><rect fill="#FEFECE" height="5" style="stroke: #A80036; stroke-width: 1.5;" width="10" x="591" y="58"/><rect fill="#FEFECE" height="5" style="stroke: #A80036; stroke-width: 1.5;" width="10" x="591" y="79.4883"/><text fill="#000000" font-family="sans-serif" font-size="14" lengthAdjust="spacingAndGlyphs" textLength="68" x="606" y="76.5352">bus-chart</text><!--entity buspile--><rect fill="#FEFECE" filter="url(#f6tf8i3qn7cmx)" height="36.4883" style="stroke: #A80036; stroke-width: 1.5;" width="78" x="818.5" y="218"/><rect fill="#FEFECE" height="5" style="stroke: #A80036; stroke-width: 1.5;" width="10" x="813.5" y="223"/><rect fill="#FEFECE" height="5" style="stroke: #A80036; stroke-width: 1.5;" width="10" x="813.5" y="244.4883"/><text fill="#000000" font-family="sans-serif" font-size="14" lengthAdjust="spacingAndGlyphs" textLength="58" x="828.5" y="241.5352">bus-pile</text><!--entity busboxie--><rect fill="#FEFECE" filter="url(#f6tf8i3qn7cmx)" height="36.4883" style="stroke: #A80036; stroke-width: 1.5;" width="92" x="811.5" y="399"/><rect fill="#FEFECE" height="5" style="stroke: #A80036; stroke-width: 1.5;" width="10" x="806.5" y="404"/><rect fill="#FEFECE" height="5" style="stroke: #A80036; stroke-width: 1.5;" width="10" x="806.5" y="425.4883"/><text fill="#000000" font-family="sans-serif" font-size="14" lengthAdjust="spacingAndGlyphs" textLength="72" x="821.5" y="422.5352">bus-boxie</text><!--entity buscatl--><rect fill="#FEFECE" filter="url(#f6tf8i3qn7cmx)" height="36.4883" style="stroke: #A80036; stroke-width: 1.5;" width="125" x="795" y="476"/><rect fill="#FEFECE" height="5" style="stroke: #A80036; stroke-width: 1.5;" width="10" x="790" y="481"/><rect fill="#FEFECE" height="5" style="stroke: #A80036; stroke-width: 1.5;" width="10" x="790" y="502.4883"/><text fill="#000000" font-family="sans-serif" font-size="14" lengthAdjust="spacingAndGlyphs" textLength="105" x="805" y="499.5352">bus-core(-catl)</text><!--entity catlsys--><polygon fill="#FEFECE" filter="url(#f6tf8i3qn7cmx)" points="580.5,634,590.5,624,699.5,624,699.5,660.4883,689.5,670.4883,580.5,670.4883,580.5,634" style="stroke: #000000; stroke-width: 1.5;"/><line style="stroke: #000000; stroke-width: 1.5;" x1="689.5" x2="698.5" y1="634" y2="625"/><line style="stroke: #000000; stroke-width: 1.5;" x1="580.5" x2="689.5" y1="634" y2="634"/><line style="stroke: #000000; stroke-width: 1.5;" x1="689.5" x2="689.5" y1="634" y2="670.4883"/><text fill="#000000" font-family="sans-serif" font-size="14" lengthAdjust="spacingAndGlyphs" textLength="79" x="595.5" y="657.5352">catl-system</text><!--entity boxiesys--><polygon fill="#FEFECE" filter="url(#f6tf8i3qn7cmx)" points="573,482,583,472,707,472,707,508.4883,697,518.4883,573,518.4883,573,482" style="stroke: #000000; stroke-width: 1.5;"/><line style="stroke: #000000; stroke-width: 1.5;" x1="697" x2="706" y1="482" y2="473"/><line style="stroke: #000000; stroke-width: 1.5;" x1="573" x2="697" y1="482" y2="482"/><line style="stroke: #000000; stroke-width: 1.5;" x1="697" x2="697" y1="482" y2="518.4883"/><text fill="#000000" font-family="sans-serif" font-size="14" lengthAdjust="spacingAndGlyphs" textLength="94" x="588" y="505.5352">boxie-system</text><!--entity busadmin--><rect fill="#FEFECE" filter="url(#f6tf8i3qn7cmx)" height="36.4883" style="stroke: #A80036; stroke-width: 1.5;" width="96" x="320.5" y="210"/><rect fill="#FEFECE" height="5" style="stroke: #A80036; stroke-width: 1.5;" width="10" x="315.5" y="215"/><rect fill="#FEFECE" height="5" style="stroke: #A80036; stroke-width: 1.5;" width="10" x="315.5" y="236.4883"/><text fill="#000000" font-family="sans-serif" font-size="14" lengthAdjust="spacingAndGlyphs" textLength="76" x="330.5" y="233.5352">bus-admin</text><!--entity bustboxnotifier--><rect fill="#FEFECE" filter="url(#f6tf8i3qn7cmx)" height="36.4883" style="stroke: #A80036; stroke-width: 1.5;" width="143" x="1353" y="629"/><rect fill="#FEFECE" height="5" style="stroke: #A80036; stroke-width: 1.5;" width="10" x="1348" y="634"/><rect fill="#FEFECE" height="5" style="stroke: #A80036; stroke-width: 1.5;" width="10" x="1348" y="655.4883"/><text fill="#000000" font-family="sans-serif" font-size="14" lengthAdjust="spacingAndGlyphs" textLength="123" x="1363" y="652.5352">bus-tbox-notifier</text><!--entity extmq--><rect fill="#FEFECE" filter="url(#f6tf8i3qn7cmx)" height="36.4883" style="stroke: #A80036; stroke-width: 1.5;" width="224" x="1060" y="705"/><rect fill="#FEFECE" height="5" style="stroke: #A80036; stroke-width: 1.5;" width="10" x="1055" y="710"/><rect fill="#FEFECE" height="5" style="stroke: #A80036; stroke-width: 1.5;" width="10" x="1055" y="731.4883"/><text fill="#000000" font-family="sans-serif" font-size="14" lengthAdjust="spacingAndGlyphs" textLength="204" x="1070" y="728.5352">message-queue-for-external</text><!--entity extsys--><polygon fill="#FEFECE" filter="url(#f6tf8i3qn7cmx)" points="1345,716,1355,706,1504,706,1504,742.4883,1494,752.4883,1345,752.4883,1345,716" style="stroke: #000000; stroke-width: 1.5;"/><line style="stroke: #000000; stroke-width: 1.5;" x1="1494" x2="1503" y1="716" y2="707"/><line style="stroke: #000000; stroke-width: 1.5;" x1="1345" x2="1494" y1="716" y2="716"/><line style="stroke: #000000; stroke-width: 1.5;" x1="1494" x2="1494" y1="716" y2="752.4883"/><text fill="#000000" font-family="sans-serif" font-size="14" lengthAdjust="spacingAndGlyphs" textLength="119" x="1360" y="739.5352">external-systems</text><!--entity telaidiansys--><polygon fill="#FEFECE" filter="url(#f6tf8i3qn7cmx)" points="1095,130,1105,120,1249,120,1249,156.4883,1239,166.4883,1095,166.4883,1095,130" style="stroke: #000000; stroke-width: 1.5;"/><line style="stroke: #000000; stroke-width: 1.5;" x1="1239" x2="1248" y1="130" y2="121"/><line style="stroke: #000000; stroke-width: 1.5;" x1="1095" x2="1239" y1="130" y2="130"/><line style="stroke: #000000; stroke-width: 1.5;" x1="1239" x2="1239" y1="130" y2="166.4883"/><text fill="#000000" font-family="sans-serif" font-size="14" lengthAdjust="spacingAndGlyphs" textLength="114" x="1110" y="153.5352">telaidian-system</text><!--link tcpip to bustbox--><path d="M649.18,733.54 C675.1,732.1 756.77,727.55 809.54,724.62 " fill="none" id="tcpip-&gt;bustbox" style="stroke: #A80036; stroke-width: 1.0;"/><polygon fill="#A80036" points="814.55,724.34,805.3359,720.8615,809.5582,724.6261,805.7936,728.8484,814.55,724.34" style="stroke: #A80036; stroke-width: 1.0;"/><!--link "bus-2nd-terminal" to tcpip--><path d="M193.17,709.7 C278.56,713.89 420.68,721.02 543,728 C572.46,729.68 607,731.9 625.56,733.11 " fill="none" id="&quot;bus-2nd-terminal&quot;-&gt;tcpip" style="stroke: #A80036; stroke-width: 1.0;"/><polygon fill="#A80036" points="630.78,733.46,622.0617,728.8785,625.7908,733.1321,621.5371,736.8612,630.78,733.46" style="stroke: #A80036; stroke-width: 1.0;"/><!--link "vehicles-producer-platforms" to tcpip--><path d="M482.62,758.95 C538.56,750.02 599.62,740.28 625.84,736.1 " fill="none" id="&quot;vehicles-producer-platforms&quot;-&gt;tcpip" style="stroke: #A80036; stroke-width: 1.0;"/><polygon fill="#A80036" points="630.89,735.29,621.3736,732.7525,625.952,736.0749,622.6296,740.6533,630.89,735.29" style="stroke: #A80036; stroke-width: 1.0;"/><!--link "bus-terminal" to "vehicles-producer-platforms"--><path d="M175.67,777 C197.61,777 223.35,777 248.72,777 " fill="none" id="&quot;bus-terminal&quot;-&gt;&quot;vehicles-producer-platforms&quot;" style="stroke: #A80036; stroke-width: 1.0;"/><polygon fill="#A80036" points="253.79,777,244.79,773,248.79,777,244.79,781,253.79,777" style="stroke: #A80036; stroke-width: 1.0;"/><!--link bustbox to tbox--><path d="M871.49,703.68 C897.67,666.78 956.23,584.21 979.35,551.61 " fill="none" id="bustbox-&gt;tbox" style="stroke: #A80036; stroke-width: 1.0;"/><polygon fill="#A80036" points="982.49,547.18,974.0189,552.2039,979.596,551.2573,980.5426,556.8344,982.49,547.18" style="stroke: #A80036; stroke-width: 1.0;"/><!--link tbox to mq--><path d="M999.2,544.05 C1028,542.4 1124.61,475.51 1158.84,434.53 " fill="none" id="tbox-&gt;mq" style="stroke: #A80036; stroke-width: 1.0;"/><polygon fill="#A80036" points="1162.33,430.15,1153.5883,434.6869,1159.21,434.0571,1159.8397,439.6788,1162.33,430.15" style="stroke: #A80036; stroke-width: 1.0;"/><!--reverse link tbox to mq--><path d="M1003.5,529.25 C1032.72,508.79 1105.98,457.51 1145.23,430.04 " fill="none" id="tbox&lt;-mq" style="stroke: #A80036; stroke-width: 1.0; stroke-dasharray: 7.0,7.0;"/><polygon fill="#A80036" points="999.2,532.26,1008.8634,530.3576,1003.2908,529.385,1004.2634,523.8124,999.2,532.26" style="stroke: #A80036; stroke-width: 1.0;"/><!--reverse link tbox to mq--><path d="M996.57,524.2 C1013.56,498.49 1066.12,456.63 1109.14,430.22 " fill="none" id="tbox&lt;-mq-1" style="stroke: #A80036; stroke-width: 1.0; stroke-dasharray: 7.0,7.0;"/><polygon fill="#A80036" points="993.83,528.81,1001.8765,523.1308,996.3919,524.5162,995.0065,519.0317,993.83,528.81" style="stroke: #A80036; stroke-width: 1.0;"/><!--reverse link buscore to tbox--><path d="M888.51,349.35 C899.45,358.21 911.27,369.19 920,381 C956.82,430.79 979.36,503.32 986.52,528.76 " fill="none" id="buscore&lt;-tbox" style="stroke: #A80036; stroke-width: 1.0; stroke-dasharray: 7.0,7.0;"/><polygon fill="#A80036" points="884.53,346.18,889.102,354.9034,888.4496,349.2842,894.0688,348.6319,884.53,346.18" style="stroke: #A80036; stroke-width: 1.0;"/><!--reverse link buscore to extevent--><path d="M890.81,348.8 C920.68,368.02 963.04,395.29 980.73,406.68 " fill="none" id="buscore&lt;-extevent" style="stroke: #A80036; stroke-width: 1.0; stroke-dasharray: 7.0,7.0;"/><polygon fill="#A80036" points="886.5,346.02,891.9005,354.2562,890.7036,348.7274,896.2323,347.5304,886.5,346.02" style="stroke: #A80036; stroke-width: 1.0;"/><!--reverse link extevent to mq--><path d="M995.75,425.66 C1019.94,457.83 1129.61,459.37 1161.98,430.27 " fill="none" id="extevent&lt;-mq" style="stroke: #A80036; stroke-width: 1.0; stroke-dasharray: 7.0,7.0;"/><polygon fill="#A80036" points="993.02,421.14,994.2589,430.9106,995.6093,425.4173,1001.1026,426.7678,993.02,421.14" style="stroke: #A80036; stroke-width: 1.0;"/><!--link extevent to mq--><path d="M999.2,417.73 C1017.24,423.36 1061.86,425.6 1101.11,424.46 " fill="none" id="extevent-&gt;mq" style="stroke: #A80036; stroke-width: 1.0;"/><polygon fill="#A80036" points="1106.36,424.29,1097.2385,420.5755,1101.3625,424.4475,1097.4905,428.5715,1106.36,424.29" style="stroke: #A80036; stroke-width: 1.0;"/><!--link extevent to mq--><path d="M999.2,405.94 C1017.24,399.98 1061.86,397.6 1101.11,398.8 " fill="none" id="extevent-&gt;mq-1" style="stroke: #A80036; stroke-width: 1.0;"/><polygon fill="#A80036" points="1106.36,398.99,1097.5147,394.6587,1101.3634,398.8044,1097.2177,402.6532,1106.36,398.99" style="stroke: #A80036; stroke-width: 1.0;"/><!--link extevent to mq--><path d="M992.9,402.96 C1008.79,366.82 1119.89,362.58 1158.12,390.24 " fill="none" id="extevent-&gt;mq-2" style="stroke: #A80036; stroke-width: 1.0;"/><polygon fill="#A80036" points="1162.41,393.77,1158.018,384.9546,1158.5549,390.586,1152.9236,391.1228,1162.41,393.77" style="stroke: #A80036; stroke-width: 1.0;"/><!--link buscore to event--><path d="M889.43,309.99 C917.2,293.82 956.57,270.89 976.46,259.3 " fill="none" id="buscore-&gt;event" style="stroke: #A80036; stroke-width: 1.0;"/><polygon fill="#A80036" points="980.85,256.75,971.0601,257.8257,976.5301,259.2676,975.0882,264.7376,980.85,256.75" style="stroke: #A80036; stroke-width: 1.0;"/><!--link event to mq--><path d="M991.88,261.05 C999.5,302.4 1054.98,366.02 1102.2,402.03 " fill="none" id="event-&gt;mq" style="stroke: #A80036; stroke-width: 1.0;"/><polygon fill="#A80036" points="1106.45,405.21,1101.6353,396.6182,1102.4449,402.2168,1096.8463,403.0264,1106.45,405.21" style="stroke: #A80036; stroke-width: 1.0;"/><!--reverse link event to mq--><path d="M995.87,265.63 C1013.97,297.69 1078.68,359.89 1124.15,393.71 " fill="none" id="event&lt;-mq" style="stroke: #A80036; stroke-width: 1.0; stroke-dasharray: 7.0,7.0;"/><polygon fill="#A80036" points="993.54,261.13,994.1004,270.9629,995.8274,265.5761,1001.2142,267.3031,993.54,261.13" style="stroke: #A80036; stroke-width: 1.0;"/><!--link event to mq--><path d="M999.2,259.29 C1025.12,282.33 1105.95,354.18 1146.82,390.51 " fill="none" id="event-&gt;mq-1" style="stroke: #A80036; stroke-width: 1.0;"/><polygon fill="#A80036" points="1150.65,393.91,1146.5829,384.9401,1146.9137,390.5873,1141.2666,390.9181,1150.65,393.91" style="stroke: #A80036; stroke-width: 1.0;"/><!--reverse link event to mq--><path d="M1004.36,249.28 C1039.84,264.28 1135.6,350.46 1163.36,393.79 " fill="none" id="event&lt;-mq-1" style="stroke: #A80036; stroke-width: 1.0; stroke-dasharray: 7.0,7.0;"/><polygon fill="#A80036" points="999.2,247.5,1006.4069,254.2127,1003.9275,249.1282,1009.012,246.6488,999.2,247.5" style="stroke: #A80036; stroke-width: 1.0;"/><!--reverse link event to mq--><path d="M995.11,238.45 C1019.6,212.56 1145.87,325.41 1167.76,393.75 " fill="none" id="event&lt;-mq-2" style="stroke: #A80036; stroke-width: 1.0; stroke-dasharray: 7.0,7.0;"/><polygon fill="#A80036" points="992.45,242.8,1000.5683,237.2239,995.0665,238.5393,993.7511,233.0375,992.45,242.8" style="stroke: #A80036; stroke-width: 1.0;"/><!--reverse link busop to event--><path d="M869.95,107.26 C895.89,147.65 958.62,227.57 980.95,248.24 " fill="none" id="busop&lt;-event" style="stroke: #A80036; stroke-width: 1.0; stroke-dasharray: 7.0,7.0;"/><polygon fill="#A80036" points="867.27,103.01,868.7101,112.753,869.947,107.233,875.4669,108.4699,867.27,103.01" style="stroke: #A80036; stroke-width: 1.0;"/><!--link busop to event--><path d="M880.93,103.22 C911.65,137.37 965.02,207.13 982.94,238.13 " fill="none" id="busop-&gt;event" style="stroke: #A80036; stroke-width: 1.0;"/><polygon fill="#A80036" points="985.5,242.76,984.6258,232.95,983.0718,238.3892,977.6326,236.8352,985.5,242.76" style="stroke: #A80036; stroke-width: 1.0;"/><!--reverse link buslog to tbox--><path d="M682.83,567.03 C764.63,559.28 941.26,542.53 980.97,538.76 " fill="none" id="buslog&lt;-tbox" style="stroke: #A80036; stroke-width: 1.0; stroke-dasharray: 7.0,7.0;"/><polygon fill="#A80036" points="677.58,567.53,686.9174,570.6625,682.5577,567.058,686.1622,562.6982,677.58,567.53" style="stroke: #A80036; stroke-width: 1.0;"/><!--reverse link buschart to event--><path d="M686.28,50.95 C745.79,27.97 850.84,-0.54 920,49 C985.67,96.04 989.59,209.19 989.26,242.58 " fill="none" id="buschart&lt;-event" style="stroke: #A80036; stroke-width: 1.0; stroke-dasharray: 7.0,7.0;"/><polygon fill="#A80036" points="681.37,52.87,691.2086,53.3199,686.0271,51.0502,688.2968,45.8686,681.37,52.87" style="stroke: #A80036; stroke-width: 1.0;"/><!--reverse link buschart to buscore--><path d="M678.15,92.02 C688.26,98.83 698.7,106.99 707,116 C760.67,174.27 745.82,208.9 795,271 C806.39,285.38 821.46,299.41 833.84,309.96 " fill="none" id="buschart&lt;-buscore" style="stroke: #A80036; stroke-width: 1.0; stroke-dasharray: 7.0,7.0;"/><polygon fill="#A80036" points="673.85,89.18,679.1656,97.4712,678.0255,91.9304,683.5663,90.7904,673.85,89.18" style="stroke: #A80036; stroke-width: 1.0;"/><text fill="#000000" font-family="sans-serif" font-size="13" lengthAdjust="spacingAndGlyphs" textLength="26" x="738" y="154.5684">http</text><!--reverse link buschart to busop--><path d="M689.42,74.15 C729.73,76.76 786.14,80.43 822,82.76 " fill="none" id="buschart&lt;-busop" style="stroke: #A80036; stroke-width: 1.0; stroke-dasharray: 7.0,7.0;"/><polygon fill="#A80036" points="684.09,73.8,692.8205,78.3583,689.0801,74.1146,693.3238,70.3741,684.09,73.8" style="stroke: #A80036; stroke-width: 1.0;"/><text fill="#000000" font-family="sans-serif" font-size="13" lengthAdjust="spacingAndGlyphs" textLength="26" x="738" y="74.5684">http</text><!--reverse link buspile to event--><path d="M901.84,241.31 C930.35,244.81 965.16,249.08 980.76,250.99 " fill="none" id="buspile&lt;-event" style="stroke: #A80036; stroke-width: 1.0; stroke-dasharray: 7.0,7.0;"/><polygon fill="#A80036" points="896.6,240.67,905.0559,245.7196,901.564,241.2691,906.0144,237.7772,896.6,240.67" style="stroke: #A80036; stroke-width: 1.0;"/><!--link buspile to extevent--><path d="M881.74,254.18 C894,264.47 908.78,278.04 920,292 C948.25,327.15 972.16,375.25 982.91,398.42 " fill="none" id="buspile-&gt;extevent" style="stroke: #A80036; stroke-width: 1.0;"/><polygon fill="#A80036" points="985,402.98,984.88,393.1319,982.9138,398.436,977.6096,396.4698,985,402.98" style="stroke: #A80036; stroke-width: 1.0;"/><!--link busboxie to extevent--><path d="M903.78,415.27 C929.17,414.29 959.04,413.15 975.82,412.5 " fill="none" id="busboxie-&gt;extevent" style="stroke: #A80036; stroke-width: 1.0;"/><polygon fill="#A80036" points="980.98,412.31,971.8377,408.6468,975.9834,412.4956,972.1347,416.6413,980.98,412.31" style="stroke: #A80036; stroke-width: 1.0;"/><!--link buscatl to extevent--><path d="M887.46,475.8 C915.39,458.26 956.31,432.54 976.62,419.78 " fill="none" id="buscatl-&gt;extevent" style="stroke: #A80036; stroke-width: 1.0;"/><polygon fill="#A80036" points="980.86,417.11,971.1093,418.4968,976.6224,419.7638,975.3554,425.277,980.86,417.11" style="stroke: #A80036; stroke-width: 1.0;"/><!--link catlsys to buscatl--><path d="M679.41,623.93 C688.55,618.22 698.2,612.01 707,606 C750.9,576.01 799.88,538.5 829.43,515.4 " fill="none" id="catlsys-&gt;buscatl" style="stroke: #A80036; stroke-width: 1.0; stroke-dasharray: 7.0,7.0;"/><polygon fill="#A80036" points="833.65,512.1,824.0972,514.4968,829.7125,515.1815,829.0277,520.7968,833.65,512.1" style="stroke: #A80036; stroke-width: 1.0;"/><!--link boxiesys to busboxie--><path d="M704.78,471.91 C737.3,460.15 776.26,446.04 806.56,435.08 " fill="none" id="boxiesys-&gt;busboxie" style="stroke: #A80036; stroke-width: 1.0; stroke-dasharray: 7.0,7.0;"/><polygon fill="#A80036" points="811.35,433.34,801.5261,432.6397,806.6481,435.0407,804.2472,440.1627,811.35,433.34" style="stroke: #A80036; stroke-width: 1.0;"/><!--reverse link busadmin to buscore--><path d="M421.78,238.73 C519.5,258.8 727.92,301.6 815.94,319.67 " fill="none" id="busadmin&lt;-buscore" style="stroke: #A80036; stroke-width: 1.0; stroke-dasharray: 7.0,7.0;"/><polygon fill="#A80036" points="416.64,237.68,424.6424,243.4213,421.5362,238.6935,426.264,235.5873,416.64,237.68" style="stroke: #A80036; stroke-width: 1.0;"/><text fill="#000000" font-family="sans-serif" font-size="13" lengthAdjust="spacingAndGlyphs" textLength="26" x="627" y="268.5684">http</text><!--link busadmin to buscore--><path d="M398.82,246.03 C437.2,268.52 507.33,305.85 573,321 C655.19,339.96 754.35,336.68 810.95,332.43 " fill="none" id="busadmin-&gt;buscore" style="stroke: #A80036; stroke-width: 1.0;"/><polygon fill="#A80036" points="815.96,332.04,806.6783,328.7461,810.9749,332.4257,807.2953,336.7223,815.96,332.04" style="stroke: #A80036; stroke-width: 1.0;"/><text fill="#000000" font-family="sans-serif" font-size="13" lengthAdjust="spacingAndGlyphs" textLength="26" x="627" y="317.5684">http</text><!--reverse link busadmin to busop--><path d="M383.41,205.37 C412.18,161.22 483.09,65.24 573,35 C659.69,5.84 767.31,43.92 821.64,68.01 " fill="none" id="busadmin&lt;-busop" style="stroke: #A80036; stroke-width: 1.0; stroke-dasharray: 7.0,7.0;"/><polygon fill="#A80036" points="380.6,209.74,388.8315,204.3324,383.3038,205.5341,382.1021,200.0064,380.6,209.74" style="stroke: #A80036; stroke-width: 1.0;"/><text fill="#000000" font-family="sans-serif" font-size="13" lengthAdjust="spacingAndGlyphs" textLength="26" x="627" y="21.5684">http</text><!--link busadmin to busop--><path d="M416.64,214.16 C512.34,186.06 727.87,122.77 816.89,96.63 " fill="none" id="busadmin-&gt;busop" style="stroke: #A80036; stroke-width: 1.0;"/><polygon fill="#A80036" points="821.8,95.19,812.04,93.87,817,96.59,814.28,101.55,821.8,95.19" style="stroke: #A80036; stroke-width: 1.0;"/><text fill="#000000" font-family="sans-serif" font-size="13" lengthAdjust="spacingAndGlyphs" textLength="26" x="627" y="127.5684">http</text><!--reverse link busadmin to buslog--><path d="M379.8,250.84 C405.52,305.79 477.41,447.3 573,535 C581.56,542.85 592.14,549.6 602.31,555.05 " fill="none" id="busadmin&lt;-buslog" style="stroke: #A80036; stroke-width: 1.0; stroke-dasharray: 7.0,7.0;"/><polygon fill="#A80036" points="377.6,246.11,377.7711,255.9574,379.7097,250.6431,385.024,252.5818,377.6,246.11" style="stroke: #A80036; stroke-width: 1.0;"/><text fill="#000000" font-family="sans-serif" font-size="13" lengthAdjust="spacingAndGlyphs" textLength="26" x="516" y="473.5684">http</text><!--reverse link busadmin to buschart--><path d="M392.74,206.42 C420.21,181.83 468.13,141.73 515,116 C540.6,101.95 571.45,90.73 595.98,83.01 " fill="none" id="busadmin&lt;-buschart" style="stroke: #A80036; stroke-width: 1.0; stroke-dasharray: 7.0,7.0;"/><polygon fill="#A80036" points="388.84,209.93,398.199,206.8626,392.5494,206.5773,392.8347,200.9276,388.84,209.93" style="stroke: #A80036; stroke-width: 1.0;"/><text fill="#000000" font-family="sans-serif" font-size="13" lengthAdjust="spacingAndGlyphs" textLength="26" x="516" y="100.5684">http</text><!--reverse link busadmin to buspile--><path d="M421.82,228.86 C520.44,230.48 731.66,233.95 818.26,235.37 " fill="none" id="busadmin&lt;-buspile" style="stroke: #A80036; stroke-width: 1.0; stroke-dasharray: 7.0,7.0;"/><polygon fill="#A80036" points="416.64,228.77,425.5701,232.9237,421.6393,228.8557,425.7072,224.9249,416.64,228.77" style="stroke: #A80036; stroke-width: 1.0;"/><text fill="#000000" font-family="sans-serif" font-size="13" lengthAdjust="spacingAndGlyphs" textLength="26" x="627" y="228.5684">http</text><!--link mq to bustboxnotifier--><path d="M1192.24,430.05 C1237.68,472.68 1351.52,579.47 1400.5,625.42 " fill="none" id="mq-&gt;bustboxnotifier" style="stroke: #A80036; stroke-width: 1.0; stroke-dasharray: 7.0,7.0;"/><polygon fill="#A80036" points="1404.19,628.89,1400.3587,619.8169,1400.5419,625.4708,1394.888,625.6539,1404.19,628.89" style="stroke: #A80036; stroke-width: 1.0;"/><!--reverse link extmq to bustboxnotifier--><path d="M1237.56,703.41 C1276.61,691.56 1326.05,676.57 1364.13,665.01 " fill="none" id="extmq&lt;-bustboxnotifier" style="stroke: #A80036; stroke-width: 1.0;"/><polygon fill="#A80036" points="1232.37,704.99,1242.1449,706.1951,1237.1532,703.5336,1239.8147,698.542,1232.37,704.99" style="stroke: #A80036; stroke-width: 1.0;"/><!--reverse link catlsys to bustboxnotifier--><path d="M704.69,647 C747.59,647 805.45,647 856.5,647 C856.5,647 856.5,647 1173,647 C1233.67,647 1302.6,647 1352.78,647 " fill="none" id="catlsys&lt;-bustboxnotifier" style="stroke: #A80036; stroke-width: 1.0;"/><polygon fill="#A80036" points="699.54,647,708.54,651,704.54,647,708.54,643,699.54,647" style="stroke: #A80036; stroke-width: 1.0;"/><!--link extmq to extsys--><path d="M1284.33,725.67 C1302.81,726.11 1321.69,726.56 1339.34,726.98 " fill="none" id="extmq-&gt;extsys" style="stroke: #A80036; stroke-width: 1.0; stroke-dasharray: 7.0,7.0;"/><polygon fill="#A80036" points="1344.78,727.11,1335.8861,722.8793,1339.7817,726.9811,1335.6799,730.8767,1344.78,727.11" style="stroke: #A80036; stroke-width: 1.0;"/><!--reverse link buspile to telaidiansys--><path d="M901.51,223.2 C951.26,208.39 1034.1,183.74 1094.83,165.67 " fill="none" id="buspile&lt;-telaidiansys" style="stroke: #A80036; stroke-width: 1.0;"/><polygon fill="#A80036" points="896.51,224.69,906.2781,225.9486,901.3011,223.2598,903.9898,218.2828,896.51,224.69" style="stroke: #A80036; stroke-width: 1.0;"/><!--
@startuml

left to right direction

component "message-queue" as mq

component "bus-tbox" as bustbox

interface "tcp-ip" as tcpip
tcpip - -> bustbox

cloud {
    ["bus-2nd-terminal"] - -> tcpip
    ["vehicles-producer-platforms"] - -> tcpip
    ["bus-terminal"] - -> ["vehicles-producer-platforms"]
}

interface "tbox" as tbox

bustbox - -> tbox
tbox - -> mq

component "bus-core" as buscore
buscore <.. tbox
tbox <.. mq

interface "extevent" as extevent
buscore <.. extevent
extevent <.. mq

interface "event" as event
buscore - -> event
event - -> mq

component "bus-op" as busop
busop <.. event
event <.. mq
busop - -> event
event - -> mq

component "bus-log" as buslog
buslog <.. tbox
tbox <.. mq

component "bus-chart" as buschart
buschart <.. event
event <.. mq

buschart <..buscore : http
buschart <..busop : http

component "bus-pile" as buspile
buspile <.. event
event <.. mq
buspile - -> extevent
extevent - -> mq

component "bus-boxie" as busboxie
busboxie - -> extevent
extevent - -> mq

component "bus-core(-catl)" as buscatl
buscatl - -> extevent
extevent - -> mq

node "catl-system" as catlsys
catlsys ..> buscatl

node "boxie-system" as boxiesys
boxiesys ..> busboxie

component "bus-admin" as busadmin
busadmin <.. buscore : http
busadmin - -> buscore : http
busadmin <.. busop : http
busadmin - -> busop : http
busadmin <.. buslog : http
busadmin <.. buschart : http
busadmin <.. buspile : http

component "bus-tbox-notifier" as bustboxnotifier

component "message-queue-for-external" as extmq
mq ..> bustboxnotifier
extmq <- - bustboxnotifier
catlsys <- - bustboxnotifier

node "external-systems" as extsys
extmq ..> extsys

node "telaidian-system" as telaidiansys

buspile <- - - telaidiansys

@enduml

PlantUML version 1.2019.09(Tue Aug 27 00:19:51 CST 2019)
(GPL source distribution)
Java Runtime: OpenJDK Runtime Environment
JVM: OpenJDK 64-Bit Server VM
Java Version: 13.0.1+9
Operating System: Mac OS X
OS Version: 10.15.2
Default Encoding: UTF-8
Language: en
Country: GB
--></g></svg>