<?xml version="1.0" encoding="UTF-8" standalone="no"?><svg xmlns="http://www.w3.org/2000/svg" xmlns:xlink="http://www.w3.org/1999/xlink" contentScriptType="application/ecmascript" contentStyleType="text/css" height="263px" preserveAspectRatio="none" style="width:398px;height:263px;" version="1.1" viewBox="0 0 398 263" width="398px" zoomAndPan="magnify"><defs><filter height="300%" id="f18ft08b0fobe6" width="300%" x="-1" y="-1"><feGaussianBlur result="blurOut" stdDeviation="2.0"/><feColorMatrix in="blurOut" result="blurOut2" type="matrix" values="0 0 0 0 0 0 0 0 0 0 0 0 0 0 0 0 0 0 .4 0"/><feOffset dx="4.0" dy="4.0" in="blurOut2" result="blurOut3"/><feBlend in="SourceGraphic" in2="blurOut3" mode="normal"/></filter></defs><g><!--entity c1--><rect fill="#FEFECE" filter="url(#f18ft08b0fobe6)" height="36.4883" style="stroke: #A80036; stroke-width: 1.5;" width="39" x="133" y="24"/><rect fill="#FEFECE" height="5" style="stroke: #A80036; stroke-width: 1.5;" width="10" x="128" y="29"/><rect fill="#FEFECE" height="5" style="stroke: #A80036; stroke-width: 1.5;" width="10" x="128" y="50.4883"/><text fill="#000000" font-family="sans-serif" font-size="14" lengthAdjust="spacingAndGlyphs" textLength="19" x="143" y="47.5352">C1</text><!--entity c2--><rect fill="#FEFECE" filter="url(#f18ft08b0fobe6)" height="36.4883" style="stroke: #A80036; stroke-width: 1.5;" width="39" x="348" y="66"/><rect fill="#FEFECE" height="5" style="stroke: #A80036; stroke-width: 1.5;" width="10" x="343" y="71"/><rect fill="#FEFECE" height="5" style="stroke: #A80036; stroke-width: 1.5;" width="10" x="343" y="92.4883"/><text fill="#000000" font-family="sans-serif" font-size="14" lengthAdjust="spacingAndGlyphs" textLength="19" x="358" y="89.5352">C2</text><!--entity c3--><rect fill="#FEFECE" filter="url(#f18ft08b0fobe6)" height="36.4883" style="stroke: #A80036; stroke-width: 1.5;" width="39" x="133" y="96"/><rect fill="#FEFECE" height="5" style="stroke: #A80036; stroke-width: 1.5;" width="10" x="128" y="101"/><rect fill="#FEFECE" height="5" style="stroke: #A80036; stroke-width: 1.5;" width="10" x="128" y="122.4883"/><text fill="#000000" font-family="sans-serif" font-size="14" lengthAdjust="spacingAndGlyphs" textLength="19" x="143" y="119.5352">C3</text><!--entity c4--><rect fill="#FEFECE" filter="url(#f18ft08b0fobe6)" height="36.4883" style="stroke: #A80036; stroke-width: 1.5;" width="39" x="6" y="61"/><rect fill="#FEFECE" height="5" style="stroke: #A80036; stroke-width: 1.5;" width="10" x="1" y="66"/><rect fill="#FEFECE" height="5" style="stroke: #A80036; stroke-width: 1.5;" width="10" x="1" y="87.4883"/><text fill="#000000" font-family="sans-serif" font-size="14" lengthAdjust="spacingAndGlyphs" textLength="19" x="16" y="84.5352">C4</text><!--entity p1--><ellipse cx="260" cy="37" fill="#FEFECE" filter="url(#f18ft08b0fobe6)" rx="8" ry="8" style="stroke: #A80036; stroke-width: 2.0;"/><text fill="#000000" font-family="sans-serif" font-size="14" lengthAdjust="spacingAndGlyphs" textLength="17" x="251.5" y="67.5352">P1</text><!--entity p2--><ellipse cx="260" cy="130" fill="#FEFECE" filter="url(#f18ft08b0fobe6)" rx="8" ry="8" style="stroke: #A80036; stroke-width: 2.0;"/><text fill="#000000" font-family="sans-serif" font-size="14" lengthAdjust="spacingAndGlyphs" textLength="17" x="251.5" y="160.5352">P2</text><!--link c1 to p1--><path d="M172.36,41.11 C193.42,40.11 226.96,38.52 245.53,37.64 " fill="none" id="c1-&gt;p1" style="stroke: #A80036; stroke-width: 1.0;"/><polygon fill="#A80036" points="250.78,37.39,241.596,33.8326,245.7859,37.6333,241.9853,41.8231,250.78,37.39" style="stroke: #A80036; stroke-width: 1.0;"/><!--link p1 to c2--><path d="M269.28,40.69 C284.97,47.68 319.56,63.09 342.96,73.51 " fill="none" id="p1-&gt;c2" style="stroke: #A80036; stroke-width: 1.0;"/><polygon fill="#A80036" points="347.77,75.65,341.166,68.3433,343.1998,73.622,337.9211,75.6557,347.77,75.65" style="stroke: #A80036; stroke-width: 1.0;"/><!--reverse link c3 to p2--><path d="M177.47,117.64 C200.89,121.19 235.22,126.39 250.78,128.75 " fill="none" id="c3&lt;-p2" style="stroke: #A80036; stroke-width: 1.0; stroke-dasharray: 7.0,7.0;"/><polygon fill="#A80036" points="172.36,116.86,180.6506,122.1766,177.3024,117.6171,181.8619,114.2688,172.36,116.86" style="stroke: #A80036; stroke-width: 1.0;"/><!--reverse link p2 to c2--><path d="M274.07,124.3 C292.59,116.23 326.57,101.41 347.77,92.17 " fill="none" id="p2&lt;-c2" style="stroke: #A80036; stroke-width: 1.0; stroke-dasharray: 7.0,7.0;"/><polygon fill="#A80036" points="269.28,126.39,279.1286,126.4585,273.8631,124.3912,275.9305,119.1256,269.28,126.39" style="stroke: #A80036; stroke-width: 1.0;"/><!--link c4 to c1--><path d="M45.21,73.46 C67.21,66.95 103.76,56.13 127.74,49.03 " fill="none" id="c4-&gt;c1" style="stroke: #A80036; stroke-width: 1.0;"/><polygon fill="#A80036" points="132.66,47.58,122.8954,46.2947,127.865,48.997,125.1626,53.9667,132.66,47.58" style="stroke: #A80036; stroke-width: 1.0;"/><text fill="#000000" font-family="sans-serif" font-size="13" lengthAdjust="spacingAndGlyphs" textLength="26" x="76" y="54.5684">http</text><!--reverse link c4 to c3--><path d="M50.03,95.31 C57.67,99.84 66.41,104.27 75,107 C94.07,113.05 117.05,114.42 132.82,114.51 " fill="none" id="c4&lt;-c3" style="stroke: #A80036; stroke-width: 1.0; stroke-dasharray: 7.0,7.0;"/><polygon fill="#A80036" points="45.42,92.48,50.9961,100.5983,49.6807,95.0965,55.1825,93.7811,45.42,92.48" style="stroke: #A80036; stroke-width: 1.0;"/><text fill="#000000" font-family="sans-serif" font-size="13" lengthAdjust="spacingAndGlyphs" textLength="26" x="76" y="103.5684">http</text><rect fill="#DDDDDD" height="75.9531" rx="5" ry="5" style="stroke: #000000; stroke-width: 1.0;" width="376" x="8" y="177"/><text fill="#000000" font-family="sans-serif" font-size="14" lengthAdjust="spacingAndGlyphs" textLength="337" x="14" y="195.5352">C1 writes information to C2, through protocol P1</text><text fill="#000000" font-family="sans-serif" font-size="14" lengthAdjust="spacingAndGlyphs" textLength="353" x="14" y="212.0234">C3 reads information from C2, through protocol P2</text><text fill="#000000" font-family="sans-serif" font-size="14" lengthAdjust="spacingAndGlyphs" textLength="348" x="14" y="228.5117">C4 writes information to C1, through protocol http</text><text fill="#000000" font-family="sans-serif" font-size="14" lengthAdjust="spacingAndGlyphs" textLength="364" x="14" y="245">C4 reads information from C3, through protocol http</text><!--
@startuml

left to right direction

component C1 as c1
component C2 as c2
component C3 as c3
component C4 as c4

interface P1 as p1
interface P2 as p2

c1 - -> p1
p1 - -> c2

c3 <.. p2
p2 <.. c2

c4 - -> c1 : http
c4 <.. c3 : http

legend bottom left
    C1 writes information to C2, through protocol P1
    C3 reads information from C2, through protocol P2
    C4 writes information to C1, through protocol http
    C4 reads information from C3, through protocol http
endlegend

@enduml

PlantUML version 1.2019.09(Tue Aug 27 00:19:51 CST 2019)
(GPL source distribution)
Java Runtime: OpenJDK Runtime Environment
JVM: OpenJDK 64-Bit Server VM
Java Version: 13.0.1+9
Operating System: Mac OS X
OS Version: 10.15.2
Default Encoding: UTF-8
Language: en
Country: GB
--></g></svg>