<?xml version="1.0" encoding="UTF-8" standalone="no"?><svg xmlns="http://www.w3.org/2000/svg" xmlns:xlink="http://www.w3.org/1999/xlink" contentScriptType="application/ecmascript" contentStyleType="text/css" height="845px" preserveAspectRatio="none" style="width:1526px;height:845px;" version="1.1" viewBox="0 0 1526 845" width="1526px" zoomAndPan="magnify"><defs><filter height="300%" id="f15n73ccm9f8n5" width="300%" x="-1" y="-1"><feGaussianBlur result="blurOut" stdDeviation="2.0"/><feColorMatrix in="blurOut" result="blurOut2" type="matrix" values="0 0 0 0 0 0 0 0 0 0 0 0 0 0 0 0 0 0 .4 0"/><feOffset dx="4.0" dy="4.0" in="blurOut2" result="blurOut3"/><feBlend in="SourceGraphic" in2="blurOut3" mode="normal"/></filter></defs><g><path d="M42.1853,685.993 C47.0705,670.7975 59.6027,669.4683 69.6639,680.5883 C80.855,665.4975 98.2231,665.1374 106.1186,684.1147 C115.1537,668.9407 125.0089,671.7526 133.9753,684.184 C143.7893,667.6527 155.7139,666.4655 166.6259,683.1032 C173.9801,665.1222 191.6585,663.3938 202.0383,680.0058 C211.2168,663.1117 225.4793,663.8933 234.3384,680.3155 C243.4099,668.1163 253.4239,666.7973 263.3927,679.2583 C275.0164,664.6449 286.4402,665.5765 297.0084,680.4612 C303.7583,664.3298 319.6284,662.0224 329.6734,677.0014 C340.098,664.7735 351.9077,666.3024 359.3903,680.331 C369.0575,665.7566 378.5129,667.4392 388.5993,679.8778 C400.0208,662.824 414.8782,665.2387 422.3463,683.6408 C430.4793,668.4428 446.1402,665.5532 455.8242,682.0001 C469.1145,664.414 483.7777,670.0113 491,688 C494.4451,688.66 495.1277,690.7536 493.2612,693.5699 C516.9919,711.3326 524.4125,727.8834 495.6646,747.9649 C518.392,769.9201 517.2044,793.6879 484,804 C487.7202,803.0978 489.1381,804.3673 488.3657,808.1693 C480.0744,824.3277 463.838,823.9883 455.7133,808.0001 C449.2332,822.7975 436.5466,826.3253 425.9334,812.2654 C415.9783,830.1903 400.1616,826.9465 389.9648,812.5344 C382.361,828.9956 367.4467,831.5579 356.8106,815.6392 C345.0894,831.1295 335.4272,828.4501 325.9161,813.4032 C317.9717,826.319 307.4317,827.4605 297.9718,815.0772 C287.9418,833.9563 274.2766,832.0745 262.8831,816.4645 C253.7322,828.5201 244.3481,829.7735 234.0528,817.8398 C220.7922,833.5427 211.1685,830.9126 201.8141,813.9809 C189.4685,830.1487 177.5453,827.5549 166.9281,812.0756 C157.6227,827.7649 143.2816,826.3809 133.9371,812.1186 C123.876,826.4152 114.1328,823.47 106.3464,809.8689 C94.933,825.2518 82.4807,823.3687 72.7171,808.0611 C54.104,821.6115 38.6185,822.0485 30,797 C33.1619,796.7113 34.3644,798.9399 32.9349,801.5882 C6.7462,791.9098 -2.6409,768.5569 21.5432,748.142 C-6.8175,717.1293 -3.9744,696.051 37,681 C40.7416,679.8509 42.8932,682.5214 42.1853,685.993 " fill="#FFFFFF" style="stroke: #000000; stroke-width: 1.5;"/><!--entity "bus-2nd-terminal"--><rect fill="#FEFECE" filter="url(#f15n73ccm9f8n5)" height="36.4883" style="stroke: #A80036; stroke-width: 1.5;" width="155" x="38" y="689"/><rect fill="#FEFECE" height="5" style="stroke: #A80036; stroke-width: 1.5;" width="10" x="33" y="694"/><rect fill="#FEFECE" height="5" style="stroke: #A80036; stroke-width: 1.5;" width="10" x="33" y="715.4883"/><text fill="#000000" font-family="sans-serif" font-size="14" lengthAdjust="spacingAndGlyphs" textLength="135" x="48" y="712.5352">"bus-2nd-terminal"</text><!--entity "vehicles-producer-platforms"--><rect fill="#FEFECE" filter="url(#f15n73ccm9f8n5)" height="36.4883" style="stroke: #A80036; stroke-width: 1.5;" width="229" x="254" y="760"/><rect fill="#FEFECE" height="5" style="stroke: #A80036; stroke-width: 1.5;" width="10" x="249" y="765"/><rect fill="#FEFECE" height="5" style="stroke: #A80036; stroke-width: 1.5;" width="10" x="249" y="786.4883"/><text fill="#000000" font-family="sans-serif" font-size="14" lengthAdjust="spacingAndGlyphs" textLength="209" x="264" y="783.5352">"vehicles-producer-platforms"</text><!--entity "bus-terminal"--><rect fill="#FEFECE" filter="url(#f15n73ccm9f8n5)" height="36.4883" style="stroke: #A80036; stroke-width: 1.5;" width="120" x="55.5" y="760"/><rect fill="#FEFECE" height="5" style="stroke: #A80036; stroke-width: 1.5;" width="10" x="50.5" y="765"/><rect fill="#FEFECE" height="5" style="stroke: #A80036; stroke-width: 1.5;" width="10" x="50.5" y="786.4883"/><text fill="#000000" font-family="sans-serif" font-size="14" lengthAdjust="spacingAndGlyphs" textLength="100" x="65.5" y="783.5352">"bus-terminal"</text><!--entity mq--><rect fill="#FEFECE" filter="url(#f15n73ccm9f8n5)" height="36.4883" style="stroke: #A80036; stroke-width: 1.5;" width="131" x="1106.5" y="400"/><rect fill="#FEFECE" height="5" style="stroke: #A80036; stroke-width: 1.5;" width="10" x="1101.5" y="405"/><rect fill="#FEFECE" height="5" style="stroke: #A80036; stroke-width: 1.5;" width="10" x="1101.5" y="426.4883"/><text fill="#000000" font-family="sans-serif" font-size="14" lengthAdjust="spacingAndGlyphs" textLength="111" x="1116.5" y="423.5352">message-queue</text><!--entity bustbox--><rect fill="#FEFECE" filter="url(#f15n73ccm9f8n5)" height="36.4883" style="stroke: #A80036; stroke-width: 1.5;" width="85" x="815" y="705"/><rect fill="#FEFECE" height="5" style="stroke: #A80036; stroke-width: 1.5;" width="10" x="810" y="710"/><rect fill="#FEFECE" height="5" style="stroke: #A80036; stroke-width: 1.5;" width="10" x="810" y="731.4883"/><text fill="#000000" font-family="sans-serif" font-size="14" lengthAdjust="spacingAndGlyphs" textLength="65" x="825" y="728.5352">bus-tbox</text><!--entity tcpip--><ellipse cx="640" cy="735" fill="#FEFECE" filter="url(#f15n73ccm9f8n5)" rx="8" ry="8" style="stroke: #A80036; stroke-width: 2.0;"/><text fill="#000000" font-family="sans-serif" font-size="14" lengthAdjust="spacingAndGlyphs" textLength="42" x="619" y="765.5352">tcp-ip</text><!--entity tbox--><ellipse cx="990" cy="561" fill="#FEFECE" filter="url(#f15n73ccm9f8n5)" rx="8" ry="8" style="stroke: #A80036; stroke-width: 2.0;"/><text fill="#000000" font-family="sans-serif" font-size="14" lengthAdjust="spacingAndGlyphs" textLength="32" x="974" y="591.5352">tbox</text><!--entity buscore--><rect fill="#FEFECE" filter="url(#f15n73ccm9f8n5)" height="36.4883" style="stroke: #A80036; stroke-width: 1.5;" width="83" x="816" y="312"/><rect fill="#FEFECE" height="5" style="stroke: #A80036; stroke-width: 1.5;" width="10" x="811" y="317"/><rect fill="#FEFECE" height="5" style="stroke: #A80036; stroke-width: 1.5;" width="10" x="811" y="338.4883"/><text fill="#000000" font-family="sans-serif" font-size="14" lengthAdjust="spacingAndGlyphs" textLength="63" x="826" y="335.5352">bus-core</text><!--entity extevent--><ellipse cx="990" cy="418" fill="#FEFECE" filter="url(#f15n73ccm9f8n5)" rx="8" ry="8" style="stroke: #A80036; stroke-width: 2.0;"/><text fill="#000000" font-family="sans-serif" font-size="14" lengthAdjust="spacingAndGlyphs" textLength="59" x="960.5" y="448.5352">extevent</text><!--entity event--><ellipse cx="990" cy="241" fill="#FEFECE" filter="url(#f15n73ccm9f8n5)" rx="8" ry="8" style="stroke: #A80036; stroke-width: 2.0;"/><text fill="#000000" font-family="sans-serif" font-size="14" lengthAdjust="spacingAndGlyphs" textLength="37" x="971.5" y="271.5352">event</text><!--entity busop--><rect fill="#FEFECE" filter="url(#f15n73ccm9f8n5)" height="36.4883" style="stroke: #A80036; stroke-width: 1.5;" width="71" x="822" y="56"/><rect fill="#FEFECE" height="5" style="stroke: #A80036; stroke-width: 1.5;" width="10" x="817" y="61"/><rect fill="#FEFECE" height="5" style="stroke: #A80036; stroke-width: 1.5;" width="10" x="817" y="82.4883"/><text fill="#000000" font-family="sans-serif" font-size="14" lengthAdjust="spacingAndGlyphs" textLength="51" x="832" y="79.5352">bus-op</text><!--entity buslog--><rect fill="#FEFECE" filter="url(#f15n73ccm9f8n5)" height="36.4883" style="stroke: #A80036; stroke-width: 1.5;" width="75" x="602.5" y="554"/><rect fill="#FEFECE" height="5" style="stroke: #A80036; stroke-width: 1.5;" width="10" x="597.5" y="559"/><rect fill="#FEFECE" height="5" style="stroke: #A80036; stroke-width: 1.5;" width="10" x="597.5" y="580.4883"/><text fill="#000000" font-family="sans-serif" font-size="14" lengthAdjust="spacingAndGlyphs" textLength="55" x="612.5" y="577.5352">bus-log</text><!--entity buschart--><rect fill="#FEFECE" filter="url(#f15n73ccm9f8n5)" height="36.4883" style="stroke: #A80036; stroke-width: 1.5;" width="88" x="596" y="54"/><rect fill="#FEFECE" height="5" style="stroke: #A80036; stroke-width: 1.5;" width="10" x="591" y="59"/><rect fill="#FEFECE" height="5" style="stroke: #A80036; stroke-width: 1.5;" width="10" x="591" y="80.4883"/><text fill="#000000" font-family="sans-serif" font-size="14" lengthAdjust="spacingAndGlyphs" textLength="68" x="606" y="77.5352">bus-chart</text><!--entity buspile--><rect fill="#FEFECE" filter="url(#f15n73ccm9f8n5)" height="36.4883" style="stroke: #A80036; stroke-width: 1.5;" width="78" x="818.5" y="211"/><rect fill="#FEFECE" height="5" style="stroke: #A80036; stroke-width: 1.5;" width="10" x="813.5" y="216"/><rect fill="#FEFECE" height="5" style="stroke: #A80036; stroke-width: 1.5;" width="10" x="813.5" y="237.4883"/><text fill="#000000" font-family="sans-serif" font-size="14" lengthAdjust="spacingAndGlyphs" textLength="58" x="828.5" y="234.5352">bus-pile</text><!--entity busboxie--><rect fill="#FEFECE" filter="url(#f15n73ccm9f8n5)" height="36.4883" style="stroke: #A80036; stroke-width: 1.5;" width="92" x="811.5" y="405"/><rect fill="#FEFECE" height="5" style="stroke: #A80036; stroke-width: 1.5;" width="10" x="806.5" y="410"/><rect fill="#FEFECE" height="5" style="stroke: #A80036; stroke-width: 1.5;" width="10" x="806.5" y="431.4883"/><text fill="#000000" font-family="sans-serif" font-size="14" lengthAdjust="spacingAndGlyphs" textLength="72" x="821.5" y="428.5352">bus-boxie</text><!--entity buscatl--><rect fill="#FEFECE" filter="url(#f15n73ccm9f8n5)" height="36.4883" style="stroke: #A80036; stroke-width: 1.5;" width="125" x="795" y="478"/><rect fill="#FEFECE" height="5" style="stroke: #A80036; stroke-width: 1.5;" width="10" x="790" y="483"/><rect fill="#FEFECE" height="5" style="stroke: #A80036; stroke-width: 1.5;" width="10" x="790" y="504.4883"/><text fill="#000000" font-family="sans-serif" font-size="14" lengthAdjust="spacingAndGlyphs" textLength="105" x="805" y="501.5352">bus-core(-catl)</text><!--entity catlsys--><polygon fill="#FEFECE" filter="url(#f15n73ccm9f8n5)" points="580.5,635,590.5,625,699.5,625,699.5,661.4883,689.5,671.4883,580.5,671.4883,580.5,635" style="stroke: #000000; stroke-width: 1.5;"/><line style="stroke: #000000; stroke-width: 1.5;" x1="689.5" x2="698.5" y1="635" y2="626"/><line style="stroke: #000000; stroke-width: 1.5;" x1="580.5" x2="689.5" y1="635" y2="635"/><line style="stroke: #000000; stroke-width: 1.5;" x1="689.5" x2="689.5" y1="635" y2="671.4883"/><text fill="#000000" font-family="sans-serif" font-size="14" lengthAdjust="spacingAndGlyphs" textLength="79" x="595.5" y="658.5352">catl-system</text><!--entity boxiesys--><polygon fill="#FEFECE" filter="url(#f15n73ccm9f8n5)" points="573,483,583,473,707,473,707,509.4883,697,519.4883,573,519.4883,573,483" style="stroke: #000000; stroke-width: 1.5;"/><line style="stroke: #000000; stroke-width: 1.5;" x1="697" x2="706" y1="483" y2="474"/><line style="stroke: #000000; stroke-width: 1.5;" x1="573" x2="697" y1="483" y2="483"/><line style="stroke: #000000; stroke-width: 1.5;" x1="697" x2="697" y1="483" y2="519.4883"/><text fill="#000000" font-family="sans-serif" font-size="14" lengthAdjust="spacingAndGlyphs" textLength="94" x="588" y="506.5352">boxie-system</text><!--entity busadmin--><rect fill="#FEFECE" filter="url(#f15n73ccm9f8n5)" height="36.4883" style="stroke: #A80036; stroke-width: 1.5;" width="96" x="320.5" y="211"/><rect fill="#FEFECE" height="5" style="stroke: #A80036; stroke-width: 1.5;" width="10" x="315.5" y="216"/><rect fill="#FEFECE" height="5" style="stroke: #A80036; stroke-width: 1.5;" width="10" x="315.5" y="237.4883"/><text fill="#000000" font-family="sans-serif" font-size="14" lengthAdjust="spacingAndGlyphs" textLength="76" x="330.5" y="234.5352">bus-admin</text><!--entity bustboxnotifier--><rect fill="#FEFECE" filter="url(#f15n73ccm9f8n5)" height="36.4883" style="stroke: #A80036; stroke-width: 1.5;" width="143" x="1353" y="631"/><rect fill="#FEFECE" height="5" style="stroke: #A80036; stroke-width: 1.5;" width="10" x="1348" y="636"/><rect fill="#FEFECE" height="5" style="stroke: #A80036; stroke-width: 1.5;" width="10" x="1348" y="657.4883"/><text fill="#000000" font-family="sans-serif" font-size="14" lengthAdjust="spacingAndGlyphs" textLength="123" x="1363" y="654.5352">bus-tbox-notifier</text><!--entity extmq--><rect fill="#FEFECE" filter="url(#f15n73ccm9f8n5)" height="36.4883" style="stroke: #A80036; stroke-width: 1.5;" width="224" x="1060" y="707"/><rect fill="#FEFECE" height="5" style="stroke: #A80036; stroke-width: 1.5;" width="10" x="1055" y="712"/><rect fill="#FEFECE" height="5" style="stroke: #A80036; stroke-width: 1.5;" width="10" x="1055" y="733.4883"/><text fill="#000000" font-family="sans-serif" font-size="14" lengthAdjust="spacingAndGlyphs" textLength="204" x="1070" y="730.5352">message-queue-for-external</text><!--entity extsys--><polygon fill="#FEFECE" filter="url(#f15n73ccm9f8n5)" points="1345,718,1355,708,1504,708,1504,744.4883,1494,754.4883,1345,754.4883,1345,718" style="stroke: #000000; stroke-width: 1.5;"/><line style="stroke: #000000; stroke-width: 1.5;" x1="1494" x2="1503" y1="718" y2="709"/><line style="stroke: #000000; stroke-width: 1.5;" x1="1345" x2="1494" y1="718" y2="718"/><line style="stroke: #000000; stroke-width: 1.5;" x1="1494" x2="1494" y1="718" y2="754.4883"/><text fill="#000000" font-family="sans-serif" font-size="14" lengthAdjust="spacingAndGlyphs" textLength="119" x="1360" y="741.5352">external-systems</text><!--entity telaidiansys--><polygon fill="#FEFECE" filter="url(#f15n73ccm9f8n5)" points="1095,119,1105,109,1249,109,1249,145.4883,1239,155.4883,1095,155.4883,1095,119" style="stroke: #000000; stroke-width: 1.5;"/><line style="stroke: #000000; stroke-width: 1.5;" x1="1239" x2="1248" y1="119" y2="110"/><line style="stroke: #000000; stroke-width: 1.5;" x1="1095" x2="1239" y1="119" y2="119"/><line style="stroke: #000000; stroke-width: 1.5;" x1="1239" x2="1239" y1="119" y2="155.4883"/><text fill="#000000" font-family="sans-serif" font-size="14" lengthAdjust="spacingAndGlyphs" textLength="114" x="1110" y="142.5352">telaidian-system</text><!--link tcpip to bustbox--><path d="M649.18,734.54 C675.1,733.1 756.77,728.55 809.54,725.62 " fill="none" id="tcpip-&gt;bustbox" style="stroke: #A80036; stroke-width: 1.0;"/><polygon fill="#A80036" points="814.55,725.34,805.3359,721.8615,809.5582,725.6261,805.7936,729.8484,814.55,725.34" style="stroke: #A80036; stroke-width: 1.0;"/><!--link "bus-2nd-terminal" to tcpip--><path d="M193.17,710.7 C278.56,714.89 420.68,722.02 543,729 C572.46,730.68 607,732.9 625.56,734.11 " fill="none" id="&quot;bus-2nd-terminal&quot;-&gt;tcpip" style="stroke: #A80036; stroke-width: 1.0;"/><polygon fill="#A80036" points="630.78,734.46,622.0617,729.8785,625.7908,734.1321,621.5371,737.8612,630.78,734.46" style="stroke: #A80036; stroke-width: 1.0;"/><!--link "vehicles-producer-platforms" to tcpip--><path d="M482.62,759.95 C538.56,751.02 599.62,741.28 625.84,737.1 " fill="none" id="&quot;vehicles-producer-platforms&quot;-&gt;tcpip" style="stroke: #A80036; stroke-width: 1.0;"/><polygon fill="#A80036" points="630.89,736.29,621.3736,733.7525,625.952,737.0749,622.6296,741.6533,630.89,736.29" style="stroke: #A80036; stroke-width: 1.0;"/><!--link "bus-terminal" to "vehicles-producer-platforms"--><path d="M175.67,778 C197.61,778 223.35,778 248.72,778 " fill="none" id="&quot;bus-terminal&quot;-&gt;&quot;vehicles-producer-platforms&quot;" style="stroke: #A80036; stroke-width: 1.0;"/><polygon fill="#A80036" points="253.79,778,244.79,774,248.79,778,244.79,782,253.79,778" style="stroke: #A80036; stroke-width: 1.0;"/><!--link bustbox to tbox--><path d="M873.22,704.73 C899.77,671.76 955.11,603.07 978.35,574.22 " fill="none" id="bustbox-&gt;tbox" style="stroke: #A80036; stroke-width: 1.0;"/><polygon fill="#A80036" points="981.54,570.26,972.7782,574.7578,978.4026,574.1532,979.0073,579.7776,981.54,570.26" style="stroke: #A80036; stroke-width: 1.0;"/><!--link tbox to mq--><path d="M999.2,566.27 C1028.32,561.85 1126.74,484.22 1159.95,440.23 " fill="none" id="tbox-&gt;mq" style="stroke: #A80036; stroke-width: 1.0;"/><polygon fill="#A80036" points="1162.96,436.08,1154.4377,441.0167,1160.0242,440.1274,1160.9135,445.7139,1162.96,436.08" style="stroke: #A80036; stroke-width: 1.0;"/><!--reverse link tbox to mq--><path d="M1003.25,551.27 C1033.03,527.61 1109.64,466.75 1148.16,436.14 " fill="none" id="tbox&lt;-mq" style="stroke: #A80036; stroke-width: 1.0; stroke-dasharray: 7.0,7.0;"/><polygon fill="#A80036" points="999.2,554.48,1008.7333,552.0067,1003.1127,551.367,1003.7524,545.7464,999.2,554.48" style="stroke: #A80036; stroke-width: 1.0;"/><!--reverse link tbox to mq--><path d="M996.14,547.37 C1013.75,518.35 1072.98,466.41 1117.67,436.16 " fill="none" id="tbox&lt;-mq-1" style="stroke: #A80036; stroke-width: 1.0; stroke-dasharray: 7.0,7.0;"/><polygon fill="#A80036" points="993.68,551.83,1001.5326,545.8855,996.0973,547.4532,994.5296,542.0179,993.68,551.83" style="stroke: #A80036; stroke-width: 1.0;"/><!--reverse link buscore to tbox--><path d="M886.71,351.44 C898.21,361.29 910.91,373.73 920,387 C958.56,443.31 980.29,524.32 986.85,551.62 " fill="none" id="buscore&lt;-tbox" style="stroke: #A80036; stroke-width: 1.0; stroke-dasharray: 7.0,7.0;"/><polygon fill="#A80036" points="882.86,348.21,887.1646,357.0684,886.6834,351.432,892.3198,350.9508,882.86,348.21" style="stroke: #A80036; stroke-width: 1.0;"/><!--reverse link buscore to extevent--><path d="M889.55,350.94 C919.53,371.16 962.96,400.44 980.84,412.5 " fill="none" id="buscore&lt;-extevent" style="stroke: #A80036; stroke-width: 1.0; stroke-dasharray: 7.0,7.0;"/><polygon fill="#A80036" points="885.22,348.02,890.4368,356.3737,889.3626,350.8198,894.9165,349.7456,885.22,348.02" style="stroke: #A80036; stroke-width: 1.0;"/><!--reverse link extevent to mq--><path d="M993.65,431.99 C1013.64,481.94 1140.61,483.3 1166.42,436.08 " fill="none" id="extevent&lt;-mq" style="stroke: #A80036; stroke-width: 1.0; stroke-dasharray: 7.0,7.0;"/><polygon fill="#A80036" points="992.06,427.01,990.9965,436.8013,993.5854,431.7716,998.6151,434.3606,992.06,427.01" style="stroke: #A80036; stroke-width: 1.0;"/><!--link extevent to mq--><path d="M995.81,427.25 C1016.65,445.75 1099.95,449.15 1143.76,437.45 " fill="none" id="extevent-&gt;mq" style="stroke: #A80036; stroke-width: 1.0;"/><polygon fill="#A80036" points="1148.64,436.04,1138.88,434.72,1143.84,437.44,1141.12,442.4,1148.64,436.04" style="stroke: #A80036; stroke-width: 1.0;"/><!--reverse link extevent to mq--><path d="M1004.41,418 C1025.85,418 1069.24,418 1106.36,418 " fill="none" id="extevent&lt;-mq-1" style="stroke: #A80036; stroke-width: 1.0;"/><polygon fill="#A80036" points="999.2,418,1008.2,422,1004.2,418,1008.2,414,999.2,418" style="stroke: #A80036; stroke-width: 1.0;"/><!--link extevent to mq--><path d="M995.81,408.75 C1016.65,390.25 1099.95,386.85 1143.76,398.55 " fill="none" id="extevent-&gt;mq-1" style="stroke: #A80036; stroke-width: 1.0;"/><polygon fill="#A80036" points="1148.64,399.96,1141.12,393.6,1143.84,398.56,1138.88,401.28,1148.64,399.96" style="stroke: #A80036; stroke-width: 1.0;"/><!--link extevent to mq--><path d="M992.06,408.99 C1004.92,355.91 1131.49,351.42 1163.62,395.5 " fill="none" id="extevent-&gt;mq-2" style="stroke: #A80036; stroke-width: 1.0;"/><polygon fill="#A80036" points="1166.42,399.92,1164.9713,390.1783,1163.7393,395.6993,1158.2182,394.4674,1166.42,399.92" style="stroke: #A80036; stroke-width: 1.0;"/><!--link buscore to event--><path d="M884.91,311.99 C912.74,293.01 955.4,263.91 976.42,249.58 " fill="none" id="buscore-&gt;event" style="stroke: #A80036; stroke-width: 1.0;"/><polygon fill="#A80036" points="980.8,246.59,971.1104,248.3541,976.6686,249.4062,975.6164,254.9644,980.8,246.59" style="stroke: #A80036; stroke-width: 1.0;"/><!--link event to mq--><path d="M991.88,250.13 C999.52,292.29 1055.2,361.34 1102.49,401.78 " fill="none" id="event-&gt;mq" style="stroke: #A80036; stroke-width: 1.0;"/><polygon fill="#A80036" points="1106.45,405.12,1102.1648,396.2523,1102.6336,401.8896,1096.9962,402.3585,1106.45,405.12" style="stroke: #A80036; stroke-width: 1.0;"/><!--reverse link event to mq--><path d="M995.79,254.95 C1014.52,290.03 1083.93,362.71 1129.56,399.76 " fill="none" id="event&lt;-mq" style="stroke: #A80036; stroke-width: 1.0; stroke-dasharray: 7.0,7.0;"/><polygon fill="#A80036" points="993.41,250.06,993.7817,259.9018,995.6117,254.5492,1000.9644,256.3791,993.41,250.06" style="stroke: #A80036; stroke-width: 1.0;"/><!--link event to mq--><path d="M999.2,249.07 C1025.52,274.94 1108.46,356.5 1148.69,396.06 " fill="none" id="event-&gt;mq-1" style="stroke: #A80036; stroke-width: 1.0;"/><polygon fill="#A80036" points="1152.44,399.75,1148.8302,390.5865,1148.876,396.2432,1143.2193,396.289,1152.44,399.75" style="stroke: #A80036; stroke-width: 1.0;"/><!--reverse link event to mq--><path d="M1003.95,239.33 C1039.26,257.24 1136.41,353.86 1163.76,399.72 " fill="none" id="event&lt;-mq-1" style="stroke: #A80036; stroke-width: 1.0; stroke-dasharray: 7.0,7.0;"/><polygon fill="#A80036" points="999.2,237.27,1005.8505,244.5344,1003.7831,239.2688,1009.0486,237.2015,999.2,237.27" style="stroke: #A80036; stroke-width: 1.0;"/><!--reverse link event to mq--><path d="M995.43,227.55 C1020.71,205.25 1146.53,329.88 1167.91,399.91 " fill="none" id="event&lt;-mq-2" style="stroke: #A80036; stroke-width: 1.0; stroke-dasharray: 7.0,7.0;"/><polygon fill="#A80036" points="992.45,231.93,1000.8037,226.7132,995.2498,227.7874,994.1756,222.2335,992.45,231.93" style="stroke: #A80036; stroke-width: 1.0;"/><!--reverse link busop to event--><path d="M869.95,96.26 C895.89,136.65 958.62,216.57 980.95,237.24 " fill="none" id="busop&lt;-event" style="stroke: #A80036; stroke-width: 1.0; stroke-dasharray: 7.0,7.0;"/><polygon fill="#A80036" points="867.27,92.01,868.7101,101.753,869.947,96.233,875.4669,97.4699,867.27,92.01" style="stroke: #A80036; stroke-width: 1.0;"/><!--link busop to event--><path d="M880.93,92.22 C911.65,126.37 965.02,196.13 982.94,227.13 " fill="none" id="busop-&gt;event" style="stroke: #A80036; stroke-width: 1.0;"/><polygon fill="#A80036" points="985.5,231.76,984.6258,221.95,983.0718,227.3892,977.6326,225.8352,985.5,231.76" style="stroke: #A80036; stroke-width: 1.0;"/><!--reverse link buslog to tbox--><path d="M682.83,570.68 C764.63,568.09 941.26,562.51 980.97,561.25 " fill="none" id="buslog&lt;-tbox" style="stroke: #A80036; stroke-width: 1.0; stroke-dasharray: 7.0,7.0;"/><polygon fill="#A80036" points="677.58,570.84,686.7015,574.5545,682.5775,570.6825,686.4495,566.5585,677.58,570.84" style="stroke: #A80036; stroke-width: 1.0;"/><!--reverse link buschart to event--><path d="M689.11,58.45 C758.95,40.05 884.02,12.23 920,38 C985.67,85.04 989.59,198.19 989.26,231.58 " fill="none" id="buschart&lt;-event" style="stroke: #A80036; stroke-width: 1.0; stroke-dasharray: 7.0,7.0;"/><polygon fill="#A80036" points="684.17,59.76,693.8962,61.3096,689.0016,58.4735,691.8377,53.5789,684.17,59.76" style="stroke: #A80036; stroke-width: 1.0;"/><!--reverse link buschart to buscore--><path d="M677.72,92.94 C687.92,99.8 698.51,107.99 707,117 C759.23,172.41 749.24,203.14 795,264 C807.99,281.27 824.85,299.1 837.63,311.87 " fill="none" id="buschart&lt;-buscore" style="stroke: #A80036; stroke-width: 1.0; stroke-dasharray: 7.0,7.0;"/><polygon fill="#A80036" points="673.38,90.09,678.7154,98.3685,677.5621,92.8305,683.1001,91.6772,673.38,90.09" style="stroke: #A80036; stroke-width: 1.0;"/><text fill="#000000" font-family="sans-serif" font-size="13" lengthAdjust="spacingAndGlyphs" textLength="26" x="738" y="153.5684">http</text><!--reverse link buschart to busop--><path d="M689.42,72.45 C729.73,72.82 786.14,73.35 822,73.68 " fill="none" id="buschart&lt;-busop" style="stroke: #A80036; stroke-width: 1.0; stroke-dasharray: 7.0,7.0;"/><polygon fill="#A80036" points="684.09,72.4,693.0554,76.477,689.0898,72.4429,693.124,68.4773,684.09,72.4" style="stroke: #A80036; stroke-width: 1.0;"/><text fill="#000000" font-family="sans-serif" font-size="13" lengthAdjust="spacingAndGlyphs" textLength="26" x="738" y="69.5684">http</text><!--reverse link buspile to event--><path d="M901.84,232.99 C930.35,235.61 965.16,238.81 980.76,240.24 " fill="none" id="buspile&lt;-event" style="stroke: #A80036; stroke-width: 1.0; stroke-dasharray: 7.0,7.0;"/><polygon fill="#A80036" points="896.6,232.5,905.1959,237.3073,901.579,232.9578,905.9285,229.3409,896.6,232.5" style="stroke: #A80036; stroke-width: 1.0;"/><!--link buspile to extevent--><path d="M866.55,247.04 C878.99,264.71 903.19,288.07 920,311 C944.11,343.88 965.88,386.06 978.26,407.19 " fill="none" id="buspile-&gt;extevent" style="stroke: #A80036; stroke-width: 1.0;"/><polygon fill="#A80036" points="980.91,411.61,979.7335,401.8317,978.3481,407.3162,972.8635,405.9308,980.91,411.61" style="stroke: #A80036; stroke-width: 1.0;"/><!--reverse link buspile to extevent--><path d="M898.94,250.98 C906.32,258.71 913.68,267.39 920,276 C952.64,320.5 980.99,382.06 987.56,408.82 " fill="none" id="buspile&lt;-extevent" style="stroke: #A80036; stroke-width: 1.0;"/><polygon fill="#A80036" points="895.31,247.26,898.7152,256.5015,898.7952,250.8452,904.4515,250.9252,895.31,247.26" style="stroke: #A80036; stroke-width: 1.0;"/><!--link busboxie to extevent--><path d="M903.78,421.27 C929.17,420.29 959.04,419.15 975.82,418.5 " fill="none" id="busboxie-&gt;extevent" style="stroke: #A80036; stroke-width: 1.0;"/><polygon fill="#A80036" points="980.98,418.31,971.8377,414.6468,975.9834,418.4956,972.1347,422.6413,980.98,418.31" style="stroke: #A80036; stroke-width: 1.0;"/><!--link buscatl to extevent--><path d="M888.77,477.91 C916.51,461.33 956.23,437.58 976.32,425.58 " fill="none" id="buscatl-&gt;extevent" style="stroke: #A80036; stroke-width: 1.0;"/><polygon fill="#A80036" points="980.76,422.92,970.9846,424.1205,976.4725,425.4925,975.1005,430.9804,980.76,422.92" style="stroke: #A80036; stroke-width: 1.0;"/><!--link catlsys to buscatl--><path d="M679.39,624.9 C688.53,619.19 698.19,612.99 707,607 C750.69,577.28 799.54,540.26 829.15,517.38 " fill="none" id="catlsys-&gt;buscatl" style="stroke: #A80036; stroke-width: 1.0; stroke-dasharray: 7.0,7.0;"/><polygon fill="#A80036" points="833.37,514.11,823.8024,516.4469,829.4133,517.1668,828.6933,522.7777,833.37,514.11" style="stroke: #A80036; stroke-width: 1.0;"/><!--link boxiesys to busboxie--><path d="M707.12,473.6 C739.05,462.79 776.74,450.02 806.28,440.01 " fill="none" id="boxiesys-&gt;busboxie" style="stroke: #A80036; stroke-width: 1.0; stroke-dasharray: 7.0,7.0;"/><polygon fill="#A80036" points="811.32,438.3,801.5111,437.4132,806.5867,439.911,804.0888,444.9866,811.32,438.3" style="stroke: #A80036; stroke-width: 1.0;"/><!--reverse link busadmin to buscore--><path d="M421.78,239.84 C519.5,260.11 727.92,303.33 815.94,321.59 " fill="none" id="busadmin&lt;-buscore" style="stroke: #A80036; stroke-width: 1.0; stroke-dasharray: 7.0,7.0;"/><polygon fill="#A80036" points="416.64,238.78,424.6424,244.5213,421.5362,239.7935,426.264,236.6873,416.64,238.78" style="stroke: #A80036; stroke-width: 1.0;"/><text fill="#000000" font-family="sans-serif" font-size="13" lengthAdjust="spacingAndGlyphs" textLength="26" x="627" y="269.5684">http</text><!--link busadmin to buscore--><path d="M398.46,247.03 C436.74,269.74 507.05,307.65 573,323 C655.16,342.12 754.33,338.79 810.94,334.49 " fill="none" id="busadmin-&gt;buscore" style="stroke: #A80036; stroke-width: 1.0;"/><polygon fill="#A80036" points="815.95,334.09,806.6589,330.8226,810.966,334.4899,807.2987,338.7969,815.95,334.09" style="stroke: #A80036; stroke-width: 1.0;"/><text fill="#000000" font-family="sans-serif" font-size="13" lengthAdjust="spacingAndGlyphs" textLength="26" x="627" y="319.5684">http</text><!--reverse link busadmin to busop--><path d="M383.41,206.37 C412.18,162.22 483.09,66.24 573,36 C659.37,6.95 767.58,39.07 821.95,59.59 " fill="none" id="busadmin&lt;-busop" style="stroke: #A80036; stroke-width: 1.0; stroke-dasharray: 7.0,7.0;"/><polygon fill="#A80036" points="380.6,210.74,388.8315,205.3324,383.3038,206.5341,382.1021,201.0064,380.6,210.74" style="stroke: #A80036; stroke-width: 1.0;"/><text fill="#000000" font-family="sans-serif" font-size="13" lengthAdjust="spacingAndGlyphs" textLength="26" x="627" y="21.5684">http</text><!--link busadmin to busop--><path d="M416.55,214.7 C481.87,194.78 603.64,157.36 707,124 C744.3,111.96 786.66,97.74 816.74,87.55 " fill="none" id="busadmin-&gt;busop" style="stroke: #A80036; stroke-width: 1.0;"/><polygon fill="#A80036" points="821.83,85.83,812.0211,84.9432,817.0967,87.441,814.5988,92.5166,821.83,85.83" style="stroke: #A80036; stroke-width: 1.0;"/><text fill="#000000" font-family="sans-serif" font-size="13" lengthAdjust="spacingAndGlyphs" textLength="26" x="627" y="120.5684">http</text><!--reverse link busadmin to buslog--><path d="M379.8,251.84 C405.52,306.79 477.41,448.3 573,536 C581.56,543.85 592.14,550.6 602.31,556.05 " fill="none" id="busadmin&lt;-buslog" style="stroke: #A80036; stroke-width: 1.0; stroke-dasharray: 7.0,7.0;"/><polygon fill="#A80036" points="377.6,247.11,377.7711,256.9574,379.7097,251.6431,385.024,253.5818,377.6,247.11" style="stroke: #A80036; stroke-width: 1.0;"/><text fill="#000000" font-family="sans-serif" font-size="13" lengthAdjust="spacingAndGlyphs" textLength="26" x="516" y="474.5684">http</text><!--reverse link busadmin to buschart--><path d="M392.74,207.42 C420.21,182.83 468.13,142.73 515,117 C540.6,102.95 571.45,91.73 595.98,84.01 " fill="none" id="busadmin&lt;-buschart" style="stroke: #A80036; stroke-width: 1.0; stroke-dasharray: 7.0,7.0;"/><polygon fill="#A80036" points="388.84,210.93,398.199,207.8626,392.5494,207.5773,392.8347,201.9276,388.84,210.93" style="stroke: #A80036; stroke-width: 1.0;"/><text fill="#000000" font-family="sans-serif" font-size="13" lengthAdjust="spacingAndGlyphs" textLength="26" x="516" y="101.5684">http</text><!--reverse link busadmin to buspile--><path d="M421.82,229 C520.44,229 731.66,229 818.26,229 " fill="none" id="busadmin&lt;-buspile" style="stroke: #A80036; stroke-width: 1.0; stroke-dasharray: 7.0,7.0;"/><polygon fill="#A80036" points="416.64,229,425.64,233,421.64,229,425.64,225,416.64,229" style="stroke: #A80036; stroke-width: 1.0;"/><text fill="#000000" font-family="sans-serif" font-size="13" lengthAdjust="spacingAndGlyphs" textLength="26" x="627" y="225.5684">http</text><!--link mq to bustboxnotifier--><path d="M1192.66,436.13 C1238.29,478.21 1351.27,582.39 1400.24,627.55 " fill="none" id="mq-&gt;bustboxnotifier" style="stroke: #A80036; stroke-width: 1.0; stroke-dasharray: 7.0,7.0;"/><polygon fill="#A80036" points="1403.93,630.96,1400.0445,621.91,1400.2615,627.5627,1394.6088,627.7796,1403.93,630.96" style="stroke: #A80036; stroke-width: 1.0;"/><!--reverse link extmq to bustboxnotifier--><path d="M1237.56,705.41 C1276.61,693.56 1326.05,678.57 1364.13,667.01 " fill="none" id="extmq&lt;-bustboxnotifier" style="stroke: #A80036; stroke-width: 1.0;"/><polygon fill="#A80036" points="1232.37,706.99,1242.1449,708.1951,1237.1532,705.5336,1239.8147,700.542,1232.37,706.99" style="stroke: #A80036; stroke-width: 1.0;"/><!--reverse link catlsys to bustboxnotifier--><path d="M704.69,648.45 C747.59,648.72 805.45,649 856.5,649 C856.5,649 856.5,649 1173,649 C1233.67,649 1302.6,649 1352.78,649 " fill="none" id="catlsys&lt;-bustboxnotifier" style="stroke: #A80036; stroke-width: 1.0;"/><polygon fill="#A80036" points="699.54,648.42,708.517,652.4714,704.5399,648.4486,708.5627,644.4715,699.54,648.42" style="stroke: #A80036; stroke-width: 1.0;"/><!--link extmq to extsys--><path d="M1284.33,727.67 C1302.81,728.11 1321.69,728.56 1339.34,728.98 " fill="none" id="extmq-&gt;extsys" style="stroke: #A80036; stroke-width: 1.0; stroke-dasharray: 7.0,7.0;"/><polygon fill="#A80036" points="1344.78,729.11,1335.8861,724.8793,1339.7817,728.9811,1335.6799,732.8767,1344.78,729.11" style="stroke: #A80036; stroke-width: 1.0;"/><!--reverse link buspile to telaidiansys--><path d="M901.56,215.63 C951.83,200.03 1035.83,173.96 1096.69,155.06 " fill="none" id="buspile&lt;-telaidiansys" style="stroke: #A80036; stroke-width: 1.0;"/><polygon fill="#A80036" points="896.51,217.2,906.2923,218.3435,901.2839,215.7135,903.9139,210.7052,896.51,217.2" style="stroke: #A80036; stroke-width: 1.0;"/><!--
@startuml

left to right direction

component "message-queue" as mq

component "bus-tbox" as bustbox

interface "tcp-ip" as tcpip
tcpip - -> bustbox

cloud {
    ["bus-2nd-terminal"] - -> tcpip
    ["vehicles-producer-platforms"] - -> tcpip
    ["bus-terminal"] - -> ["vehicles-producer-platforms"]
}

interface "tbox" as tbox

bustbox - -> tbox
tbox - -> mq

component "bus-core" as buscore
buscore <.. tbox
tbox <.. mq

interface "extevent" as extevent
buscore <.. extevent
extevent <.. mq

interface "event" as event
buscore - -> event
event - -> mq

component "bus-op" as busop
busop <.. event
event <.. mq
busop - -> event
event - -> mq

component "bus-log" as buslog
buslog <.. tbox
tbox <.. mq

component "bus-chart" as buschart
buschart <.. event
event <.. mq

buschart <..buscore : http
buschart <..busop : http

component "bus-pile" as buspile
buspile <.. event
event <.. mq
buspile - -> extevent
extevent - -> mq
buspile <- - extevent
extevent <- - mq

component "bus-boxie" as busboxie
busboxie - -> extevent
extevent - -> mq

component "bus-core(-catl)" as buscatl
buscatl - -> extevent
extevent - -> mq

node "catl-system" as catlsys
catlsys ..> buscatl

node "boxie-system" as boxiesys
boxiesys ..> busboxie

component "bus-admin" as busadmin
busadmin <.. buscore : http
busadmin - -> buscore : http
busadmin <.. busop : http
busadmin - -> busop : http
busadmin <.. buslog : http
busadmin <.. buschart : http
busadmin <.. buspile : http

component "bus-tbox-notifier" as bustboxnotifier

component "message-queue-for-external" as extmq
mq ..> bustboxnotifier
extmq <- - bustboxnotifier
catlsys <- - bustboxnotifier

node "external-systems" as extsys
extmq ..> extsys

node "telaidian-system" as telaidiansys

buspile <- - - telaidiansys

@enduml

PlantUML version 1.2019.09(Tue Aug 27 00:19:51 CST 2019)
(GPL source distribution)
Java Runtime: OpenJDK Runtime Environment
JVM: OpenJDK 64-Bit Server VM
Java Version: 13.0.1+9
Operating System: Mac OS X
OS Version: 10.15.2
Default Encoding: UTF-8
Language: en
Country: GB
--></g></svg>