<?xml version="1.0" encoding="UTF-8" standalone="no"?><svg xmlns="http://www.w3.org/2000/svg" xmlns:xlink="http://www.w3.org/1999/xlink" contentScriptType="application/ecmascript" contentStyleType="text/css" height="702px" preserveAspectRatio="none" style="width:1526px;height:702px;" version="1.1" viewBox="0 0 1526 702" width="1526px" zoomAndPan="magnify"><defs><filter height="300%" id="fvihujln37gon" width="300%" x="-1" y="-1"><feGaussianBlur result="blurOut" stdDeviation="2.0"/><feColorMatrix in="blurOut" result="blurOut2" type="matrix" values="0 0 0 0 0 0 0 0 0 0 0 0 0 0 0 0 0 0 .4 0"/><feOffset dx="4.0" dy="4.0" in="blurOut2" result="blurOut3"/><feBlend in="SourceGraphic" in2="blurOut3" mode="normal"/></filter></defs><g><path d="M42.1853,37.293 C47.0705,22.0975 59.6027,20.7683 69.6639,31.8883 C80.855,16.7975 98.2231,16.4374 106.1186,35.4147 C115.1537,20.2407 125.0089,23.0526 133.9753,35.484 C143.7893,18.9527 155.7139,17.7655 166.6259,34.4032 C173.9801,16.4222 191.6585,14.6938 202.0383,31.3058 C211.2168,14.4117 225.4793,15.1933 234.3384,31.6155 C243.4099,19.4163 253.4239,18.0973 263.3927,30.5583 C275.0164,15.9449 286.4402,16.8765 297.0084,31.7612 C303.7583,15.6298 319.6284,13.3224 329.6734,28.3014 C340.098,16.0735 351.9077,17.6024 359.3903,31.631 C369.0575,17.0566 378.5129,18.7392 388.5993,31.1778 C400.0208,14.124 414.8782,16.5387 422.3463,34.9408 C430.4793,19.7428 446.1402,16.8532 455.8242,33.3001 C469.1145,15.714 483.7777,21.3113 491,39.3 C494.4451,39.96 495.1277,42.0536 493.2612,44.8699 C516.9919,62.6326 524.4125,79.1834 495.6646,99.2649 C518.392,121.2201 517.2044,144.9879 484,155.3 C487.7202,154.3978 489.1381,155.6673 488.3657,159.4693 C480.0744,175.6277 463.838,175.2883 455.7133,159.3001 C449.2332,174.0975 436.5466,177.6253 425.9334,163.5654 C415.9783,181.4903 400.1616,178.2465 389.9648,163.8344 C382.361,180.2956 367.4467,182.8579 356.8106,166.9392 C345.0894,182.4295 335.4272,179.7501 325.9161,164.7032 C317.9717,177.619 307.4317,178.7605 297.9718,166.3772 C287.9418,185.2563 274.2766,183.3745 262.8831,167.7645 C253.7322,179.8201 244.3481,181.0735 234.0528,169.1398 C220.7922,184.8427 211.1685,182.2126 201.8141,165.2809 C189.4685,181.4487 177.5453,178.8549 166.9281,163.3756 C157.6227,179.0649 143.2816,177.6809 133.9371,163.4186 C123.876,177.7152 114.1328,174.77 106.3464,161.1689 C94.933,176.5518 82.4807,174.6687 72.7171,159.3611 C54.104,172.9115 38.6185,173.3485 30,148.3 C33.1619,148.0113 34.3644,150.2399 32.9349,152.8882 C6.7462,143.2098 -2.6409,119.8569 21.5432,99.442 C-6.8175,68.4293 -3.9744,47.351 37,32.3 C40.7416,31.1509 42.8932,33.8214 42.1853,37.293 " fill="#FFFFFF" style="stroke: #000000; stroke-width: 1.5;"/><!--entity "bus-2nd-terminal"--><rect fill="#FEFECE" filter="url(#fvihujln37gon)" height="36.4883" style="stroke: #A80036; stroke-width: 1.5;" width="155" x="38" y="40.3"/><rect fill="#FEFECE" height="5" style="stroke: #A80036; stroke-width: 1.5;" width="10" x="33" y="45.3"/><rect fill="#FEFECE" height="5" style="stroke: #A80036; stroke-width: 1.5;" width="10" x="33" y="66.7883"/><text fill="#000000" font-family="sans-serif" font-size="14" lengthAdjust="spacingAndGlyphs" textLength="135" x="48" y="63.8352">"bus-2nd-terminal"</text><!--entity "vehicles-producer-platforms"--><rect fill="#FEFECE" filter="url(#fvihujln37gon)" height="36.4883" style="stroke: #A80036; stroke-width: 1.5;" width="229" x="254" y="111.3"/><rect fill="#FEFECE" height="5" style="stroke: #A80036; stroke-width: 1.5;" width="10" x="249" y="116.3"/><rect fill="#FEFECE" height="5" style="stroke: #A80036; stroke-width: 1.5;" width="10" x="249" y="137.7883"/><text fill="#000000" font-family="sans-serif" font-size="14" lengthAdjust="spacingAndGlyphs" textLength="209" x="264" y="134.8352">"vehicles-producer-platforms"</text><!--entity "bus-terminal"--><rect fill="#FEFECE" filter="url(#fvihujln37gon)" height="36.4883" style="stroke: #A80036; stroke-width: 1.5;" width="120" x="55.5" y="111.3"/><rect fill="#FEFECE" height="5" style="stroke: #A80036; stroke-width: 1.5;" width="10" x="50.5" y="116.3"/><rect fill="#FEFECE" height="5" style="stroke: #A80036; stroke-width: 1.5;" width="10" x="50.5" y="137.7883"/><text fill="#000000" font-family="sans-serif" font-size="14" lengthAdjust="spacingAndGlyphs" textLength="100" x="65.5" y="134.8352">"bus-terminal"</text><!--entity mq--><rect fill="#FEFECE" filter="url(#fvihujln37gon)" height="36.4883" style="stroke: #A80036; stroke-width: 1.5;" width="131" x="1106.5" y="371.3"/><rect fill="#FEFECE" height="5" style="stroke: #A80036; stroke-width: 1.5;" width="10" x="1101.5" y="376.3"/><rect fill="#FEFECE" height="5" style="stroke: #A80036; stroke-width: 1.5;" width="10" x="1101.5" y="397.7883"/><text fill="#000000" font-family="sans-serif" font-size="14" lengthAdjust="spacingAndGlyphs" textLength="111" x="1116.5" y="394.8352">message-queue</text><!--entity bustbox--><rect fill="#FEFECE" filter="url(#fvihujln37gon)" height="36.4883" style="stroke: #A80036; stroke-width: 1.5;" width="85" x="815" y="72.3"/><rect fill="#FEFECE" height="5" style="stroke: #A80036; stroke-width: 1.5;" width="10" x="810" y="77.3"/><rect fill="#FEFECE" height="5" style="stroke: #A80036; stroke-width: 1.5;" width="10" x="810" y="98.7883"/><text fill="#000000" font-family="sans-serif" font-size="14" lengthAdjust="spacingAndGlyphs" textLength="65" x="825" y="95.8352">bus-tbox</text><!--entity tcpip--><ellipse cx="640" cy="86.3" fill="#FEFECE" filter="url(#fvihujln37gon)" rx="8" ry="8" style="stroke: #A80036; stroke-width: 2.0;"/><text fill="#000000" font-family="sans-serif" font-size="14" lengthAdjust="spacingAndGlyphs" textLength="42" x="619" y="116.8352">tcp-ip</text><!--entity tbox--><ellipse cx="990" cy="280.3" fill="#FEFECE" filter="url(#fvihujln37gon)" rx="8" ry="8" style="stroke: #A80036; stroke-width: 2.0;"/><text fill="#000000" font-family="sans-serif" font-size="14" lengthAdjust="spacingAndGlyphs" textLength="32" x="974" y="310.8352">tbox</text><!--entity buscore--><rect fill="#FEFECE" filter="url(#fvihujln37gon)" height="36.4883" style="stroke: #A80036; stroke-width: 1.5;" width="83" x="816" y="431.3"/><rect fill="#FEFECE" height="5" style="stroke: #A80036; stroke-width: 1.5;" width="10" x="811" y="436.3"/><rect fill="#FEFECE" height="5" style="stroke: #A80036; stroke-width: 1.5;" width="10" x="811" y="457.7883"/><text fill="#000000" font-family="sans-serif" font-size="14" lengthAdjust="spacingAndGlyphs" textLength="63" x="826" y="454.8352">bus-core</text><!--entity extevent--><ellipse cx="990" cy="389.3" fill="#FEFECE" filter="url(#fvihujln37gon)" rx="8" ry="8" style="stroke: #A80036; stroke-width: 2.0;"/><text fill="#000000" font-family="sans-serif" font-size="14" lengthAdjust="spacingAndGlyphs" textLength="59" x="960.5" y="419.8352">extevent</text><!--entity event--><ellipse cx="990" cy="515.3" fill="#FEFECE" filter="url(#fvihujln37gon)" rx="8" ry="8" style="stroke: #A80036; stroke-width: 2.0;"/><text fill="#000000" font-family="sans-serif" font-size="14" lengthAdjust="spacingAndGlyphs" textLength="37" x="971.5" y="545.8352">event</text><!--entity busop--><rect fill="#FEFECE" filter="url(#fvihujln37gon)" height="36.4883" style="stroke: #A80036; stroke-width: 1.5;" width="71" x="822" y="600.3"/><rect fill="#FEFECE" height="5" style="stroke: #A80036; stroke-width: 1.5;" width="10" x="817" y="605.3"/><rect fill="#FEFECE" height="5" style="stroke: #A80036; stroke-width: 1.5;" width="10" x="817" y="626.7883"/><text fill="#000000" font-family="sans-serif" font-size="14" lengthAdjust="spacingAndGlyphs" textLength="51" x="832" y="623.8352">bus-op</text><!--entity buslog--><rect fill="#FEFECE" filter="url(#fvihujln37gon)" height="36.4883" style="stroke: #A80036; stroke-width: 1.5;" width="75" x="602.5" y="150.3"/><rect fill="#FEFECE" height="5" style="stroke: #A80036; stroke-width: 1.5;" width="10" x="597.5" y="155.3"/><rect fill="#FEFECE" height="5" style="stroke: #A80036; stroke-width: 1.5;" width="10" x="597.5" y="176.7883"/><text fill="#000000" font-family="sans-serif" font-size="14" lengthAdjust="spacingAndGlyphs" textLength="55" x="612.5" y="173.8352">bus-log</text><!--entity buschart--><rect fill="#FEFECE" filter="url(#fvihujln37gon)" height="36.4883" style="stroke: #A80036; stroke-width: 1.5;" width="88" x="596" y="557.3"/><rect fill="#FEFECE" height="5" style="stroke: #A80036; stroke-width: 1.5;" width="10" x="591" y="562.3"/><rect fill="#FEFECE" height="5" style="stroke: #A80036; stroke-width: 1.5;" width="10" x="591" y="583.7883"/><text fill="#000000" font-family="sans-serif" font-size="14" lengthAdjust="spacingAndGlyphs" textLength="68" x="606" y="580.8352">bus-chart</text><!--entity busboxie--><rect fill="#FEFECE" filter="url(#fvihujln37gon)" height="36.4883" style="stroke: #A80036; stroke-width: 1.5;" width="92" x="811.5" y="360.3"/><rect fill="#FEFECE" height="5" style="stroke: #A80036; stroke-width: 1.5;" width="10" x="806.5" y="365.3"/><rect fill="#FEFECE" height="5" style="stroke: #A80036; stroke-width: 1.5;" width="10" x="806.5" y="386.7883"/><text fill="#000000" font-family="sans-serif" font-size="14" lengthAdjust="spacingAndGlyphs" textLength="72" x="821.5" y="383.8352">bus-boxie</text><!--entity buscatl--><rect fill="#FEFECE" filter="url(#fvihujln37gon)" height="36.4883" style="stroke: #A80036; stroke-width: 1.5;" width="125" x="795" y="289.3"/><rect fill="#FEFECE" height="5" style="stroke: #A80036; stroke-width: 1.5;" width="10" x="790" y="294.3"/><rect fill="#FEFECE" height="5" style="stroke: #A80036; stroke-width: 1.5;" width="10" x="790" y="315.7883"/><text fill="#000000" font-family="sans-serif" font-size="14" lengthAdjust="spacingAndGlyphs" textLength="105" x="805" y="312.8352">bus-core(-catl)</text><!--entity catlsys--><polygon fill="#FEFECE" filter="url(#fvihujln37gon)" points="580.5,231.3,590.5,221.3,699.5,221.3,699.5,257.7883,689.5,267.7883,580.5,267.7883,580.5,231.3" style="stroke: #000000; stroke-width: 1.5;"/><line style="stroke: #000000; stroke-width: 1.5;" x1="689.5" x2="698.5" y1="231.3" y2="222.3"/><line style="stroke: #000000; stroke-width: 1.5;" x1="580.5" x2="689.5" y1="231.3" y2="231.3"/><line style="stroke: #000000; stroke-width: 1.5;" x1="689.5" x2="689.5" y1="231.3" y2="267.7883"/><text fill="#000000" font-family="sans-serif" font-size="14" lengthAdjust="spacingAndGlyphs" textLength="79" x="595.5" y="254.8352">catl-system</text><!--entity boxiesys--><polygon fill="#FEFECE" filter="url(#fvihujln37gon)" points="573,312.3,583,302.3,707,302.3,707,338.7883,697,348.7883,573,348.7883,573,312.3" style="stroke: #000000; stroke-width: 1.5;"/><line style="stroke: #000000; stroke-width: 1.5;" x1="697" x2="706" y1="312.3" y2="303.3"/><line style="stroke: #000000; stroke-width: 1.5;" x1="573" x2="697" y1="312.3" y2="312.3"/><line style="stroke: #000000; stroke-width: 1.5;" x1="697" x2="697" y1="312.3" y2="348.7883"/><text fill="#000000" font-family="sans-serif" font-size="14" lengthAdjust="spacingAndGlyphs" textLength="94" x="588" y="335.8352">boxie-system</text><!--entity busadmin--><rect fill="#FEFECE" filter="url(#fvihujln37gon)" height="36.4883" style="stroke: #A80036; stroke-width: 1.5;" width="96" x="320.5" y="501.3"/><rect fill="#FEFECE" height="5" style="stroke: #A80036; stroke-width: 1.5;" width="10" x="315.5" y="506.3"/><rect fill="#FEFECE" height="5" style="stroke: #A80036; stroke-width: 1.5;" width="10" x="315.5" y="527.7883"/><text fill="#000000" font-family="sans-serif" font-size="14" lengthAdjust="spacingAndGlyphs" textLength="76" x="330.5" y="524.8352">bus-admin</text><!--entity bustboxnotifier--><rect fill="#FEFECE" filter="url(#fvihujln37gon)" height="36.4883" style="stroke: #A80036; stroke-width: 1.5;" width="143" x="1353" y="368.3"/><rect fill="#FEFECE" height="5" style="stroke: #A80036; stroke-width: 1.5;" width="10" x="1348" y="373.3"/><rect fill="#FEFECE" height="5" style="stroke: #A80036; stroke-width: 1.5;" width="10" x="1348" y="394.7883"/><text fill="#000000" font-family="sans-serif" font-size="14" lengthAdjust="spacingAndGlyphs" textLength="123" x="1363" y="391.8352">bus-tbox-notifier</text><!--entity extmq--><rect fill="#FEFECE" filter="url(#fvihujln37gon)" height="36.4883" style="stroke: #A80036; stroke-width: 1.5;" width="224" x="1060" y="445.3"/><rect fill="#FEFECE" height="5" style="stroke: #A80036; stroke-width: 1.5;" width="10" x="1055" y="450.3"/><rect fill="#FEFECE" height="5" style="stroke: #A80036; stroke-width: 1.5;" width="10" x="1055" y="471.7883"/><text fill="#000000" font-family="sans-serif" font-size="14" lengthAdjust="spacingAndGlyphs" textLength="204" x="1070" y="468.8352">message-queue-for-external</text><!--entity extsys--><polygon fill="#FEFECE" filter="url(#fvihujln37gon)" points="1345,455.3,1355,445.3,1504,445.3,1504,481.7883,1494,491.7883,1345,491.7883,1345,455.3" style="stroke: #000000; stroke-width: 1.5;"/><line style="stroke: #000000; stroke-width: 1.5;" x1="1494" x2="1503" y1="455.3" y2="446.3"/><line style="stroke: #000000; stroke-width: 1.5;" x1="1345" x2="1494" y1="455.3" y2="455.3"/><line style="stroke: #000000; stroke-width: 1.5;" x1="1494" x2="1494" y1="455.3" y2="491.7883"/><text fill="#000000" font-family="sans-serif" font-size="14" lengthAdjust="spacingAndGlyphs" textLength="119" x="1360" y="478.8352">external-systems</text><!--link tcpip to bustbox--><path d="M649.18,86.45 C675.1,86.93 756.77,88.45 809.54,89.43 " fill="none" id="tcpip-&gt;bustbox" style="stroke: #A80036; stroke-width: 1.0;"/><polygon fill="#A80036" points="814.55,89.52,805.6199,85.3663,809.5507,89.4343,805.4828,93.3651,814.55,89.52" style="stroke: #A80036; stroke-width: 1.0;"/><!--link "bus-2nd-terminal" to tcpip--><path d="M193.17,62 C278.56,66.19 420.68,73.32 543,80.3 C572.46,81.98 607,84.2 625.56,85.41 " fill="none" id="&quot;bus-2nd-terminal&quot;-&gt;tcpip" style="stroke: #A80036; stroke-width: 1.0;"/><polygon fill="#A80036" points="630.78,85.76,622.0625,81.1768,625.7908,85.4312,621.5364,89.1595,630.78,85.76" style="stroke: #A80036; stroke-width: 1.0;"/><!--link "vehicles-producer-platforms" to tcpip--><path d="M482.62,111.25 C538.56,102.32 599.62,92.58 625.84,88.4 " fill="none" id="&quot;vehicles-producer-platforms&quot;-&gt;tcpip" style="stroke: #A80036; stroke-width: 1.0;"/><polygon fill="#A80036" points="630.89,87.59,621.3736,85.0525,625.952,88.3749,622.6296,92.9533,630.89,87.59" style="stroke: #A80036; stroke-width: 1.0;"/><!--link "bus-terminal" to "vehicles-producer-platforms"--><path d="M175.67,129.3 C197.61,129.3 223.35,129.3 248.72,129.3 " fill="none" id="&quot;bus-terminal&quot;-&gt;&quot;vehicles-producer-platforms&quot;" style="stroke: #A80036; stroke-width: 1.0;"/><polygon fill="#A80036" points="253.79,129.3,244.79,125.3,248.79,129.3,244.79,133.3,253.79,129.3" style="stroke: #A80036; stroke-width: 1.0;"/><!--link bustbox to tbox--><path d="M873.87,108.33 C893.05,131.25 926.32,172.38 951,210.3 C963.2,229.04 975.15,252.04 982.3,266.44 " fill="none" id="bustbox-&gt;tbox" style="stroke: #A80036; stroke-width: 1.0;"/><polygon fill="#A80036" points="984.53,270.97,984.1331,261.1291,982.3168,266.4865,976.9595,264.6703,984.53,270.97" style="stroke: #A80036; stroke-width: 1.0;"/><!--link tbox to mq--><path d="M993.97,289.49 C1006.66,312.02 1057.58,348.94 1101.58,372.89 " fill="none" id="tbox-&gt;mq" style="stroke: #A80036; stroke-width: 1.0;"/><polygon fill="#A80036" points="1106.09,375.31,1100.0546,367.527,1101.6854,372.9438,1096.2686,374.5745,1106.09,375.31" style="stroke: #A80036; stroke-width: 1.0;"/><!--reverse link tbox to mq--><path d="M1003.7,287.99 C1032.05,305.16 1101.15,347 1141.11,371.2 " fill="none" id="tbox&lt;-mq" style="stroke: #A80036; stroke-width: 1.0; stroke-dasharray: 7.0,7.0;"/><polygon fill="#A80036" points="999.2,285.27,1004.808,293.3663,1003.471,287.8697,1008.9676,286.5327,999.2,285.27" style="stroke: #A80036; stroke-width: 1.0;"/><!--reverse link tbox to mq--><path d="M1004.25,273.78 C1038.97,278.53 1131.91,335.51 1161.69,371.18 " fill="none" id="tbox&lt;-mq-1" style="stroke: #A80036; stroke-width: 1.0; stroke-dasharray: 7.0,7.0;"/><polygon fill="#A80036" points="999.2,273.48,1007.9435,278.0133,1004.191,273.7803,1008.424,270.0278,999.2,273.48" style="stroke: #A80036; stroke-width: 1.0;"/><!--reverse link buscore to tbox--><path d="M902.69,428.38 C908.95,424.26 914.96,419.56 920,414.3 C957.13,375.58 979.04,312.95 986.3,289.53 " fill="none" id="buscore&lt;-tbox" style="stroke: #A80036; stroke-width: 1.0; stroke-dasharray: 7.0,7.0;"/><polygon fill="#A80036" points="898.33,431.14,908.073,429.6999,902.553,428.463,903.7899,422.9431,898.33,431.14" style="stroke: #A80036; stroke-width: 1.0;"/><!--reverse link buscore to extevent--><path d="M902.53,429.06 C930.99,415.97 965.5,400.1 980.9,393.02 " fill="none" id="buscore&lt;-extevent" style="stroke: #A80036; stroke-width: 1.0; stroke-dasharray: 7.0,7.0;"/><polygon fill="#A80036" points="897.65,431.3,907.4981,431.18,902.194,429.2138,904.1602,423.9096,897.65,431.3" style="stroke: #A80036; stroke-width: 1.0;"/><!--reverse link extevent to mq--><path d="M999.95,401.56 C1027.05,418.03 1108.77,419.96 1148.64,407.34 " fill="none" id="extevent&lt;-mq" style="stroke: #A80036; stroke-width: 1.0; stroke-dasharray: 7.0,7.0;"/><polygon fill="#A80036" points="995.81,398.55,1000.7324,407.0806,999.8524,401.4926,1005.4404,400.6126,995.81,398.55" style="stroke: #A80036; stroke-width: 1.0;"/><!--link extevent to mq--><path d="M999.2,389.3 C1017.24,389.3 1061.86,389.3 1101.11,389.3 " fill="none" id="extevent-&gt;mq" style="stroke: #A80036; stroke-width: 1.0;"/><polygon fill="#A80036" points="1106.36,389.3,1097.36,385.3,1101.36,389.3,1097.36,393.3,1106.36,389.3" style="stroke: #A80036; stroke-width: 1.0;"/><!--link extevent to mq--><path d="M995.81,380.05 C1016.65,361.55 1099.95,358.15 1143.76,369.84 " fill="none" id="extevent-&gt;mq-1" style="stroke: #A80036; stroke-width: 1.0;"/><polygon fill="#A80036" points="1148.64,371.26,1141.12,364.9,1143.84,369.86,1138.88,372.58,1148.64,371.26" style="stroke: #A80036; stroke-width: 1.0;"/><!--link buscore to event--><path d="M894.16,467.33 C921.34,481.08 957.21,499.22 976.09,508.77 " fill="none" id="buscore-&gt;event" style="stroke: #A80036; stroke-width: 1.0;"/><polygon fill="#A80036" points="980.95,511.23,974.728,503.5954,976.4894,508.9711,971.1137,510.7325,980.95,511.23" style="stroke: #A80036; stroke-width: 1.0;"/><!--link event to mq--><path d="M991.42,524.68 C995.11,559.24 1022.63,506.92 1060,480.3 C1095.36,455.11 1148.52,444.86 1165.55,412.35 " fill="none" id="event-&gt;mq" style="stroke: #A80036; stroke-width: 1.0;"/><polygon fill="#A80036" points="1167.79,407.39,1160.4413,413.9472,1165.7328,411.9472,1167.7329,417.2387,1167.79,407.39" style="stroke: #A80036; stroke-width: 1.0;"/><!--reverse link event to mq--><path d="M1002.45,507.89 C1014.45,492.36 1035.03,463.09 1060,445.3 C1085.78,426.93 1121.04,416.51 1144.84,407.37 " fill="none" id="event&lt;-mq" style="stroke: #A80036; stroke-width: 1.0; stroke-dasharray: 7.0,7.0;"/><polygon fill="#A80036" points="999.29,511.89,1008.0052,507.3026,1002.3873,507.9649,1001.725,502.3469,999.29,511.89" style="stroke: #A80036; stroke-width: 1.0;"/><!--link event to mq--><path d="M992.48,506.16 C998.85,482.32 1025.15,435.13 1060,410.3 C1072.4,401.46 1087,394.46 1101.46,389.43 " fill="none" id="event-&gt;mq-1" style="stroke: #A80036; stroke-width: 1.0;"/><polygon fill="#A80036" points="1106.35,387.79,1096.5487,386.8236,1101.6037,389.3626,1099.0648,394.4176,1106.35,387.79" style="stroke: #A80036; stroke-width: 1.0;"/><!--reverse link event to mq--><path d="M991.66,501.21 C996.16,452.26 1023.34,401.42 1060,375.3 C1096.76,349.11 1152.78,339.07 1167.4,370.92 " fill="none" id="event&lt;-mq-1" style="stroke: #A80036; stroke-width: 1.0; stroke-dasharray: 7.0,7.0;"/><polygon fill="#A80036" points="991.27,506.25,995.9523,497.5853,991.6557,501.2649,987.9761,496.9683,991.27,506.25" style="stroke: #A80036; stroke-width: 1.0;"/><!--reverse link busop to event--><path d="M898.03,619.56 C915.55,613.46 935.62,602.84 951,589.3 C970.37,572.24 984.2,543.15 987.97,524.32 " fill="none" id="busop&lt;-event" style="stroke: #A80036; stroke-width: 1.0; stroke-dasharray: 7.0,7.0;"/><polygon fill="#A80036" points="893.16,621.15,902.9605,622.1252,897.9077,619.5817,900.4512,614.5289,893.16,621.15" style="stroke: #A80036; stroke-width: 1.0;"/><!--link busop to event--><path d="M875.41,600.09 C895.23,587.96 928.26,574.33 951,554.3 C962.04,544.57 971.29,530.93 977.9,521.46 " fill="none" id="busop-&gt;event" style="stroke: #A80036; stroke-width: 1.0;"/><polygon fill="#A80036" points="980.92,517.19,972.4523,522.2197,978.0287,521.2693,978.9791,526.8457,980.92,517.19" style="stroke: #A80036; stroke-width: 1.0;"/><!--reverse link buslog to tbox--><path d="M682.34,181.61 C763.93,207.86 941.18,264.91 980.97,277.71 " fill="none" id="buslog&lt;-tbox" style="stroke: #A80036; stroke-width: 1.0; stroke-dasharray: 7.0,7.0;"/><polygon fill="#A80036" points="677.58,180.07,684.9249,186.6315,682.3403,181.5996,687.3722,179.015,677.58,180.07" style="stroke: #A80036; stroke-width: 1.0;"/><!--reverse link buschart to event--><path d="M689.19,566.99 C773.33,552.48 941.79,523.44 980.8,516.71 " fill="none" id="buschart&lt;-event" style="stroke: #A80036; stroke-width: 1.0; stroke-dasharray: 7.0,7.0;"/><polygon fill="#A80036" points="684.02,567.88,693.5723,570.2788,688.9461,567.0233,692.2015,562.3971,684.02,567.88" style="stroke: #A80036; stroke-width: 1.0;"/><!--reverse link buschart to buscore--><path d="M676.31,554.66 C717.86,530.36 786.18,490.41 825.68,467.32 " fill="none" id="buschart&lt;-buscore" style="stroke: #A80036; stroke-width: 1.0; stroke-dasharray: 7.0,7.0;"/><polygon fill="#A80036" points="671.88,557.25,681.6673,556.1501,676.1937,554.7218,677.6221,549.2482,671.88,557.25" style="stroke: #A80036; stroke-width: 1.0;"/><text fill="#000000" font-family="sans-serif" font-size="13" lengthAdjust="spacingAndGlyphs" textLength="26" x="738" y="500.8684">http</text><!--reverse link buschart to busop--><path d="M689.42,584.96 C729.73,593 786.14,604.26 822,611.42 " fill="none" id="buschart&lt;-busop" style="stroke: #A80036; stroke-width: 1.0; stroke-dasharray: 7.0,7.0;"/><polygon fill="#A80036" points="684.09,583.9,692.1244,589.5964,688.9918,584.8861,693.7021,581.7535,684.09,583.9" style="stroke: #A80036; stroke-width: 1.0;"/><text fill="#000000" font-family="sans-serif" font-size="13" lengthAdjust="spacingAndGlyphs" textLength="26" x="738" y="591.8684">http</text><!--link busboxie to extevent--><path d="M903.78,382.12 C929.17,384.26 959.04,386.77 975.82,388.19 " fill="none" id="busboxie-&gt;extevent" style="stroke: #A80036; stroke-width: 1.0;"/><polygon fill="#A80036" points="980.98,388.62,972.3556,383.8639,975.9984,388.1918,971.6705,391.8345,980.98,388.62" style="stroke: #A80036; stroke-width: 1.0;"/><!--link buscatl to extevent--><path d="M893.53,325.32 C911.16,334.8 932.63,347 951,359.3 C959.91,365.27 969.37,372.73 976.62,378.72 " fill="none" id="buscatl-&gt;extevent" style="stroke: #A80036; stroke-width: 1.0;"/><polygon fill="#A80036" points="980.83,382.24,976.4929,373.3975,976.9947,379.0321,971.3602,379.5339,980.83,382.24" style="stroke: #A80036; stroke-width: 1.0;"/><!--link catlsys to buscatl--><path d="M699.6,261.43 C727.53,269.59 761.05,279.4 789.93,287.84 " fill="none" id="catlsys-&gt;buscatl" style="stroke: #A80036; stroke-width: 1.0; stroke-dasharray: 7.0,7.0;"/><polygon fill="#A80036" points="794.9,289.29,787.38,282.93,790.1,287.89,785.14,290.61,794.9,289.29" style="stroke: #A80036; stroke-width: 1.0;"/><!--link boxiesys to busboxie--><path d="M707.12,341.56 C739.05,349.41 776.74,358.68 806.28,365.95 " fill="none" id="boxiesys-&gt;busboxie" style="stroke: #A80036; stroke-width: 1.0; stroke-dasharray: 7.0,7.0;"/><polygon fill="#A80036" points="811.32,367.19,803.5254,361.1697,806.4626,366.0042,801.6281,368.9415,811.32,367.19" style="stroke: #A80036; stroke-width: 1.0;"/><!--reverse link busadmin to buscore--><path d="M413.09,499.13 C441.57,486.66 479.86,471.19 515,461.3 C611.36,434.17 637.26,431.77 737,423.3 C749.4,422.25 752.67,421.58 765,423.3 C781.85,425.65 799.95,430.31 815.57,435.05 " fill="none" id="busadmin&lt;-buscore" style="stroke: #A80036; stroke-width: 1.0; stroke-dasharray: 7.0,7.0;"/><polygon fill="#A80036" points="408.25,501.26,418.0988,501.2915,412.8255,499.2439,414.8731,493.9706,408.25,501.26" style="stroke: #A80036; stroke-width: 1.0;"/><text fill="#000000" font-family="sans-serif" font-size="13" lengthAdjust="spacingAndGlyphs" textLength="26" x="627" y="421.8684">http</text><!--link busadmin to buscore--><path d="M416.64,512.52 C510.23,499.07 718.43,469.14 810.82,455.87 " fill="none" id="busadmin-&gt;buscore" style="stroke: #A80036; stroke-width: 1.0;"/><polygon fill="#A80036" points="815.94,455.13,806.4604,452.4583,810.9914,455.8451,807.6046,460.3761,815.94,455.13" style="stroke: #A80036; stroke-width: 1.0;"/><text fill="#000000" font-family="sans-serif" font-size="13" lengthAdjust="spacingAndGlyphs" textLength="26" x="627" y="467.8684">http</text><!--reverse link busadmin to busop--><path d="M397.99,540.49 C435.71,567.11 505.39,611.33 573,628.3 C660.42,650.24 767.72,635.7 821.81,625.63 " fill="none" id="busadmin&lt;-busop" style="stroke: #A80036; stroke-width: 1.0; stroke-dasharray: 7.0,7.0;"/><polygon fill="#A80036" points="393.55,537.34,398.5599,545.8194,397.6225,540.2408,403.2012,539.3034,393.55,537.34" style="stroke: #A80036; stroke-width: 1.0;"/><text fill="#000000" font-family="sans-serif" font-size="13" lengthAdjust="spacingAndGlyphs" textLength="26" x="627" y="624.8684">http</text><!--link busadmin to busop--><path d="M386.36,537.4 C418.7,570.59 493.33,640 573,664.3 C657.72,690.14 761.37,657.97 816.89,635.85 " fill="none" id="busadmin-&gt;busop" style="stroke: #A80036; stroke-width: 1.0;"/><polygon fill="#A80036" points="821.78,633.88,811.9368,633.5452,817.1446,635.7542,814.9356,640.9619,821.78,633.88" style="stroke: #A80036; stroke-width: 1.0;"/><text fill="#000000" font-family="sans-serif" font-size="13" lengthAdjust="spacingAndGlyphs" textLength="26" x="627" y="660.8684">http</text><!--reverse link busadmin to buslog--><path d="M379.47,496.25 C404.68,440.12 475.97,294.38 573,204.3 C581.51,196.4 592.08,189.64 602.25,184.18 " fill="none" id="busadmin&lt;-buslog" style="stroke: #A80036; stroke-width: 1.0; stroke-dasharray: 7.0,7.0;"/><polygon fill="#A80036" points="377.31,501.08,384.6415,494.5036,379.3553,496.5175,377.3415,491.2312,377.31,501.08" style="stroke: #A80036; stroke-width: 1.0;"/><text fill="#000000" font-family="sans-serif" font-size="13" lengthAdjust="spacingAndGlyphs" textLength="26" x="516" y="236.8684">http</text><!--reverse link busadmin to buschart--><path d="M421.88,530.18 C472.57,540.72 548.49,556.49 595.81,566.33 " fill="none" id="busadmin&lt;-buschart" style="stroke: #A80036; stroke-width: 1.0; stroke-dasharray: 7.0,7.0;"/><polygon fill="#A80036" points="416.75,529.12,424.7524,534.8613,421.6462,530.1335,426.374,527.0273,416.75,529.12" style="stroke: #A80036; stroke-width: 1.0;"/><text fill="#000000" font-family="sans-serif" font-size="13" lengthAdjust="spacingAndGlyphs" textLength="26" x="516" y="546.8684">http</text><!--link mq to bustboxnotifier--><path d="M1237.51,388.53 C1271.08,388.12 1312.34,387.63 1347.46,387.21 " fill="none" id="mq-&gt;bustboxnotifier" style="stroke: #A80036; stroke-width: 1.0; stroke-dasharray: 7.0,7.0;"/><polygon fill="#A80036" points="1352.6,387.15,1343.5549,383.2531,1347.6003,387.2071,1343.6463,391.2526,1352.6,387.15" style="stroke: #A80036; stroke-width: 1.0;"/><!--reverse link extmq to bustboxnotifier--><path d="M1236.96,443.64 C1276.31,431.54 1326.35,416.16 1364.7,404.37 " fill="none" id="extmq&lt;-bustboxnotifier" style="stroke: #A80036; stroke-width: 1.0;"/><polygon fill="#A80036" points="1231.73,445.25,1241.5049,446.4551,1236.5132,443.7936,1239.1747,438.802,1231.73,445.25" style="stroke: #A80036; stroke-width: 1.0;"/><!--reverse link catlsys to bustboxnotifier--><path d="M683.31,218.75 C725.6,195.67 793.25,165.3 856.5,165.3 C856.5,165.3 856.5,165.3 1173,165.3 C1295.37,165.3 1386.19,315.43 1414.34,368.21 " fill="none" id="catlsys&lt;-bustboxnotifier" style="stroke: #A80036; stroke-width: 1.0;"/><polygon fill="#A80036" points="678.79,221.24,688.6033,220.4039,683.1702,218.8288,684.7453,213.3956,678.79,221.24" style="stroke: #A80036; stroke-width: 1.0;"/><!--link extmq to extsys--><path d="M1284.33,465.52 C1302.81,465.89 1321.69,466.27 1339.34,466.62 " fill="none" id="extmq-&gt;extsys" style="stroke: #A80036; stroke-width: 1.0; stroke-dasharray: 7.0,7.0;"/><polygon fill="#A80036" points="1344.78,466.73,1335.8618,462.5508,1339.781,466.63,1335.7018,470.5492,1344.78,466.73" style="stroke: #A80036; stroke-width: 1.0;"/><!--
@startuml

left to right direction

component "message-queue" as mq

component "bus-tbox" as bustbox

interface "tcp-ip" as tcpip
tcpip - -> bustbox

cloud {
    ["bus-2nd-terminal"] - -> tcpip
    ["vehicles-producer-platforms"] - -> tcpip
    ["bus-terminal"] - -> ["vehicles-producer-platforms"]
}

interface "tbox" as tbox

bustbox - -> tbox
tbox - -> mq

component "bus-core" as buscore
buscore <.. tbox
tbox <.. mq

interface "extevent" as extevent
buscore <.. extevent
extevent <.. mq

interface "event" as event
buscore - -> event
event - -> mq

component "bus-op" as busop
busop <.. event
event <.. mq
busop - -> event
event - -> mq

component "bus-log" as buslog
buslog <.. tbox
tbox <.. mq

component "bus-chart" as buschart
buschart <.. event
event <.. mq

buschart <..buscore : http
buschart <..busop : http

component "bus-boxie" as busboxie
busboxie - -> extevent
extevent - -> mq

component "bus-core(-catl)" as buscatl
buscatl - -> extevent
extevent - -> mq

node "catl-system" as catlsys
catlsys ..> buscatl

node "boxie-system" as boxiesys
boxiesys ..> busboxie

component "bus-admin" as busadmin
busadmin <.. buscore : http
busadmin - -> buscore : http
busadmin <.. busop : http
busadmin - -> busop : http
busadmin <.. buslog : http
busadmin <.. buschart : http

component "bus-tbox-notifier" as bustboxnotifier

component "message-queue-for-external" as extmq
mq ..> bustboxnotifier
extmq <- - bustboxnotifier
catlsys <- - bustboxnotifier

node "external-systems" as extsys
extmq ..> extsys

@enduml

PlantUML version 1.2019.09(Tue Aug 27 00:19:51 CST 2019)
(GPL source distribution)
Java Runtime: OpenJDK Runtime Environment
JVM: OpenJDK 64-Bit Server VM
Java Version: 13.0.1+9
Operating System: Mac OS X
OS Version: 10.15.2
Default Encoding: UTF-8
Language: en
Country: GB
--></g></svg>